<?xml version="1.0" encoding="UTF-8" standalone="no"?>
<!-- Created with Inkscape (http://www.inkscape.org/) -->

<svg
   width="120.67457mm"
   height="128.82454mm"
   viewBox="0 0 120.67457 128.82454"
   version="1.1"
   id="svg23491"
   sodipodi:docname="freya_logo.svg"
   inkscape:version="1.1.1 (3bf5ae0d25, 2021-09-20, custom)"
   inkscape:export-filename="/home/alvaro/Desktop/AcheronProject/Freya/freya_logo.png"
   inkscape:export-xdpi="1000"
   inkscape:export-ydpi="1000"
   xmlns:inkscape="http://www.inkscape.org/namespaces/inkscape"
   xmlns:sodipodi="http://sodipodi.sourceforge.net/DTD/sodipodi-0.dtd"
   xmlns="http://www.w3.org/2000/svg"
   xmlns:svg="http://www.w3.org/2000/svg">
  <sodipodi:namedview
     id="namedview23493"
     pagecolor="#ffffff"
     bordercolor="#666666"
     borderopacity="1.0"
     inkscape:pageshadow="2"
     inkscape:pageopacity="0.0"
     inkscape:pagecheckerboard="0"
     inkscape:document-units="mm"
     showgrid="false"
     inkscape:zoom="0.66368547"
     inkscape:cx="337.50927"
     inkscape:cy="223.75057"
     inkscape:window-width="1920"
     inkscape:window-height="1043"
     inkscape:window-x="1920"
     inkscape:window-y="293"
     inkscape:window-maximized="1"
     inkscape:current-layer="layer1" />
  <defs
     id="defs23488">
    <rect
       x="-17.056744"
       y="448.88739"
       width="497.57202"
       height="244.19102"
       id="rect31543" />
  </defs>
  <g
     inkscape:label="Layer 1"
     inkscape:groupmode="layer"
     id="layer1"
     transform="translate(-84.740226,-45.633438)">
    <g
       id="g35772"
       transform="translate(2.7607224)">
      <path
         sodipodi:type="spiral"
         style="fill:none;fill-opacity:1;fill-rule:evenodd;stroke:#000000;stroke-width:11.3386;stroke-linecap:round;stroke-linejoin:round;stroke-miterlimit:4;stroke-dasharray:none"
         id="path23858"
         sodipodi:cx="342.91382"
         sodipodi:cy="350.37033"
         sodipodi:expansion="1"
         sodipodi:revolution="3.1160223"
         sodipodi:radius="113.92114"
         sodipodi:argument="-17.195896"
         sodipodi:t0="0"
         transform="matrix(-0.04405787,0.26088933,-0.26088933,-0.04405787,278.98134,47.131948)"
         d="m 342.91382,350.37033 c -0.45516,5.48028 -7.61187,2.09024 -9.10859,-0.7565 -4.05602,-7.71448 3.3779,-15.80044 10.62159,-17.46068 12.95726,-2.96976 24.25814,8.23748 25.81276,20.48668 2.28147,17.97621 -13.12854,32.87124 -30.35177,34.16485 -22.95585,1.72418 -41.54483,-18.02627 -42.51693,-40.21686 -1.2233,-27.92458 22.92609,-50.24855 50.08195,-50.86902 32.88938,-0.75146 58.96951,27.82685 59.2211,59.94704 0.2965,37.85253 -32.72816,67.70126 -69.81212,67.57319 -42.8149,-0.14785 -76.4402,-37.62985 -75.92528,-79.67721 0.58508,-47.77688 42.53181,-85.18419 89.5423,-84.27737 52.73866,1.01731 93.93184,47.43398 92.62946,99.40739 -1.4459,57.70034 -52.33632,102.68225 -109.27249,100.98155 -27.33677,-0.81656 -53.79299,-12.07103 -73.57904,-30.90767" />
      <path
         sodipodi:type="spiral"
         style="fill:none;fill-opacity:1;fill-rule:evenodd;stroke:#000000;stroke-width:11.3386;stroke-linecap:round;stroke-linejoin:round;stroke-miterlimit:4;stroke-dasharray:none"
         id="path23963"
         sodipodi:cx="342.91382"
         sodipodi:cy="350.37033"
         sodipodi:expansion="1"
         sodipodi:revolution="3.1160223"
         sodipodi:radius="113.92114"
         sodipodi:argument="-17.195896"
         sodipodi:t0="0"
         transform="matrix(0.24796573,-0.09228943,0.09228943,0.24796573,23.542987,16.534576)"
         d="m 342.91382,350.37033 c -0.45516,5.48028 -7.61187,2.09024 -9.10859,-0.7565 -4.05602,-7.71448 3.3779,-15.80044 10.62159,-17.46068 12.95726,-2.96976 24.25814,8.23748 25.81276,20.48668 2.28147,17.97621 -13.12854,32.87124 -30.35177,34.16485 -22.95585,1.72418 -41.54483,-18.02627 -42.51693,-40.21686 -1.2233,-27.92458 22.92609,-50.24855 50.08195,-50.86902 32.88938,-0.75146 58.96951,27.82685 59.2211,59.94704 0.2965,37.85253 -32.72816,67.70126 -69.81212,67.57319 -42.8149,-0.14785 -76.4402,-37.62985 -75.92528,-79.67721 0.58508,-47.77688 42.53181,-85.18419 89.5423,-84.27737 52.73866,1.01731 93.93184,47.43398 92.62946,99.40739 -1.4459,57.70034 -52.33632,102.68225 -109.27249,100.98155 -27.33677,-0.81656 -53.79299,-12.07103 -73.57904,-30.90767" />
      <path
         sodipodi:type="spiral"
         style="fill:none;fill-opacity:1;fill-rule:evenodd;stroke:#000000;stroke-width:11.3386;stroke-linecap:round;stroke-linejoin:round;stroke-miterlimit:4;stroke-dasharray:none"
         id="path23965"
         sodipodi:cx="342.91382"
         sodipodi:cy="350.37033"
         sodipodi:expansion="1"
         sodipodi:revolution="3.1160223"
         sodipodi:radius="113.92114"
         sodipodi:argument="-17.195896"
         sodipodi:t0="0"
         transform="matrix(-0.20390785,-0.1685999,0.1685999,-0.20390785,124.54481,253.21605)"
         d="m 342.91382,350.37033 c -0.45516,5.48028 -7.61187,2.09024 -9.10859,-0.7565 -4.05602,-7.71448 3.3779,-15.80044 10.62159,-17.46068 12.95726,-2.96976 24.25814,8.23748 25.81276,20.48668 2.28147,17.97621 -13.12854,32.87124 -30.35177,34.16485 -22.95585,1.72418 -41.54483,-18.02627 -42.51693,-40.21686 -1.2233,-27.92458 22.92609,-50.24855 50.08195,-50.86902 32.88938,-0.75146 58.96951,27.82685 59.2211,59.94704 0.2965,37.85253 -32.72816,67.70126 -69.81212,67.57319 -42.8149,-0.14785 -76.4402,-37.62985 -75.92528,-79.67721 0.58508,-47.77688 42.53181,-85.18419 89.5423,-84.27737 52.73866,1.01731 93.93184,47.43398 92.62946,99.40739 -1.4459,57.70034 -52.33632,102.68225 -109.27249,100.98155 -27.33677,-0.81656 -53.79299,-12.07103 -73.57904,-30.90767" />
    </g>
    <text
       xml:space="preserve"
       transform="matrix(0.69529012,0,0,0.69529012,94.791785,-162.26179)"
       id="text31541"
       style="font-style:normal;font-weight:normal;font-size:40px;line-height:1.25;font-family:sans-serif;white-space:pre;shape-inside:url(#rect31543);fill:#000000;fill-opacity:1;stroke:none"><tspan
         x="-17.056641"
         y="484.28672"
         id="tspan35818"><tspan
           style="font-family:Pirulen;-inkscape-font-specification:Pirulen"
           id="tspan35816">FREYA</tspan></tspan></text>
  </g>
</svg>
