<?xml version="1.0" encoding="UTF-8" standalone="no"?>
<!-- Created with Inkscape (http://www.inkscape.org/) -->

<svg
   xmlns:dc="http://purl.org/dc/elements/1.1/"
   xmlns:cc="http://creativecommons.org/ns#"
   xmlns:rdf="http://www.w3.org/1999/02/22-rdf-syntax-ns#"
   xmlns:svg="http://www.w3.org/2000/svg"
   xmlns="http://www.w3.org/2000/svg"
   xmlns:sodipodi="http://sodipodi.sourceforge.net/DTD/sodipodi-0.dtd"
   xmlns:inkscape="http://www.inkscape.org/namespaces/inkscape"
   width="98.328865mm"
   height="38.681374mm"
   viewBox="0 0 98.328865 38.681373"
   version="1.1"
   id="svg8"
   inkscape:version="0.92.4 5da689c313, 2019-01-14"
   sodipodi:docname="faraday_logo.svg">
  <defs
     id="defs2">
    <marker
       inkscape:stockid="Arrow2Mend"
       orient="auto"
       refY="0"
       refX="0"
       id="marker1471"
       style="overflow:visible"
       inkscape:isstock="true">
      <path
         id="path1469"
         style="fill:#353130;fill-opacity:1;fill-rule:evenodd;stroke:#353130;stroke-width:0.625;stroke-linejoin:round;stroke-opacity:1"
         d="M 8.7185878,4.0337352 -2.2072895,0.01601326 8.7185884,-4.0017078 c -1.7454984,2.3720609 -1.7354408,5.6174519 -6e-7,8.035443 z"
         transform="scale(-0.6)"
         inkscape:connector-curvature="0" />
    </marker>
    <marker
       inkscape:isstock="true"
       style="overflow:visible"
       id="marker1312"
       refX="0"
       refY="0"
       orient="auto"
       inkscape:stockid="Arrow2Mend">
      <path
         inkscape:connector-curvature="0"
         transform="scale(-0.6)"
         d="M 8.7185878,4.0337352 -2.2072895,0.01601326 8.7185884,-4.0017078 c -1.7454984,2.3720609 -1.7354408,5.6174519 -6e-7,8.035443 z"
         style="fill:#353130;fill-opacity:1;fill-rule:evenodd;stroke:#353130;stroke-width:0.625;stroke-linejoin:round;stroke-opacity:1"
         id="path1310" />
    </marker>
    <marker
       inkscape:isstock="true"
       style="overflow:visible"
       id="marker1254"
       refX="0"
       refY="0"
       orient="auto"
       inkscape:stockid="Arrow2Mend">
      <path
         inkscape:connector-curvature="0"
         transform="scale(-0.6)"
         d="M 8.7185878,4.0337352 -2.2072895,0.01601326 8.7185884,-4.0017078 c -1.7454984,2.3720609 -1.7354408,5.6174519 -6e-7,8.035443 z"
         style="fill:#353130;fill-opacity:1;fill-rule:evenodd;stroke:#353130;stroke-width:0.625;stroke-linejoin:round;stroke-opacity:1"
         id="path1252" />
    </marker>
    <marker
       inkscape:isstock="true"
       style="overflow:visible"
       id="marker1202"
       refX="0"
       refY="0"
       orient="auto"
       inkscape:stockid="Arrow2Mend"
       inkscape:collect="always">
      <path
         inkscape:connector-curvature="0"
         transform="scale(-0.6)"
         d="M 8.7185878,4.0337352 -2.2072895,0.01601326 8.7185884,-4.0017078 c -1.7454984,2.3720609 -1.7354408,5.6174519 -6e-7,8.035443 z"
         style="fill:#353130;fill-opacity:1;fill-rule:evenodd;stroke:#353130;stroke-width:0.625;stroke-linejoin:round;stroke-opacity:1"
         id="path1200" />
    </marker>
    <marker
       inkscape:stockid="Arrow2Mend"
       orient="auto"
       refY="0"
       refX="0"
       id="marker8766"
       style="overflow:visible"
       inkscape:isstock="true">
      <path
         id="path8764"
         style="fill:#000000;fill-opacity:1;fill-rule:evenodd;stroke:#000000;stroke-width:0.625;stroke-linejoin:round;stroke-opacity:1"
         d="M 8.7185878,4.0337352 -2.2072895,0.01601326 8.7185884,-4.0017078 c -1.7454984,2.3720609 -1.7354408,5.6174519 -6e-7,8.035443 z"
         transform="scale(-0.6)"
         inkscape:connector-curvature="0" />
    </marker>
    <marker
       inkscape:isstock="true"
       style="overflow:visible"
       id="marker8118"
       refX="0"
       refY="0"
       orient="auto"
       inkscape:stockid="Arrow2Mend">
      <path
         transform="scale(-0.6)"
         d="M 8.7185878,4.0337352 -2.2072895,0.01601326 8.7185884,-4.0017078 c -1.7454984,2.3720609 -1.7354408,5.6174519 -6e-7,8.035443 z"
         style="fill:#000000;fill-opacity:1;fill-rule:evenodd;stroke:#000000;stroke-width:0.625;stroke-linejoin:round;stroke-opacity:1"
         id="path8116"
         inkscape:connector-curvature="0" />
    </marker>
    <marker
       inkscape:stockid="Arrow2Mend"
       orient="auto"
       refY="0"
       refX="0"
       id="marker3354"
       style="overflow:visible"
       inkscape:isstock="true">
      <path
         id="path3352"
         style="fill:#000000;fill-opacity:1;fill-rule:evenodd;stroke:#000000;stroke-width:0.625;stroke-linejoin:round;stroke-opacity:1"
         d="M 8.7185878,4.0337352 -2.2072895,0.01601326 8.7185884,-4.0017078 c -1.7454984,2.3720609 -1.7354408,5.6174519 -6e-7,8.035443 z"
         transform="scale(-0.6)"
         inkscape:connector-curvature="0" />
    </marker>
    <marker
       inkscape:isstock="true"
       style="overflow:visible"
       id="marker2484"
       refX="0"
       refY="0"
       orient="auto"
       inkscape:stockid="Arrow2Mend">
      <path
         transform="scale(-0.6)"
         d="M 8.7185878,4.0337352 -2.2072895,0.01601326 8.7185884,-4.0017078 c -1.7454984,2.3720609 -1.7354408,5.6174519 -6e-7,8.035443 z"
         style="fill:#000000;fill-opacity:1;fill-rule:evenodd;stroke:#000000;stroke-width:0.625;stroke-linejoin:round;stroke-opacity:1"
         id="path2482"
         inkscape:connector-curvature="0" />
    </marker>
  </defs>
  <sodipodi:namedview
     id="base"
     pagecolor="#ffffff"
     bordercolor="#666666"
     borderopacity="1.0"
     inkscape:pageopacity="0.0"
     inkscape:pageshadow="2"
     inkscape:zoom="0.98994949"
     inkscape:cx="215.09385"
     inkscape:cy="-38.123107"
     inkscape:document-units="mm"
     inkscape:current-layer="g1090"
     showgrid="false"
     inkscape:window-width="1366"
     inkscape:window-height="711"
     inkscape:window-x="0"
     inkscape:window-y="20"
     inkscape:window-maximized="1"
     inkscape:snap-object-midpoints="true"
     fit-margin-top="0"
     fit-margin-left="0"
     fit-margin-right="0"
     fit-margin-bottom="0" />
  <metadata
     id="metadata5">
    <rdf:RDF>
      <cc:Work
         rdf:about="">
        <dc:format>image/svg+xml</dc:format>
        <dc:type
           rdf:resource="http://purl.org/dc/dcmitype/StillImage" />
        <dc:title></dc:title>
      </cc:Work>
    </rdf:RDF>
  </metadata>
  <g
     inkscape:label="Layer 1"
     inkscape:groupmode="layer"
     id="layer1"
     transform="translate(-19.532739,-62.094316)">
    <flowRoot
       xml:space="preserve"
       id="flowRoot10"
       style="font-style:normal;font-variant:normal;font-weight:normal;font-stretch:normal;font-size:40px;line-height:1.25;font-family:Pirulen;-inkscape-font-specification:Pirulen;letter-spacing:0px;word-spacing:0px;fill:#353130;fill-opacity:1;stroke:none"
       transform="scale(0.26458333)"><flowRegion
         id="flowRegion12"
         style="font-style:normal;font-variant:normal;font-weight:normal;font-stretch:normal;font-family:Pirulen;-inkscape-font-specification:Pirulen;fill:#353130;fill-opacity:1"><rect
           id="rect14"
           width="320"
           height="178.57143"
           x="132.85715"
           y="502.51968"
           style="font-style:normal;font-variant:normal;font-weight:normal;font-stretch:normal;font-family:Pirulen;-inkscape-font-specification:Pirulen;fill:#353130;fill-opacity:1" /></flowRegion><flowPara
         id="flowPara16">faraday</flowPara></flowRoot>    <circle
       style="opacity:1;fill:none;fill-opacity:1;stroke:#353130;stroke-width:0.71536267;stroke-linecap:round;stroke-linejoin:round;stroke-miterlimit:4;stroke-dasharray:none;stroke-dashoffset:37.79527664;stroke-opacity:1"
       id="path267"
       cx="24.757441"
       cy="138.24998"
       r="4.8670206" />
    <g
       id="g1080"
       transform="translate(0.03500957,0.00810813)"
       style="stroke:#353130;stroke-opacity:1">
      <path
         inkscape:connector-curvature="0"
         id="path1074"
         d="m 21.782466,138.24189 h 5.87993"
         style="fill:none;stroke:#353130;stroke-width:0.5;stroke-linecap:butt;stroke-linejoin:miter;stroke-miterlimit:4;stroke-dasharray:none;stroke-opacity:1" />
      <path
         style="fill:none;stroke:#353130;stroke-width:0.5;stroke-linecap:butt;stroke-linejoin:miter;stroke-miterlimit:4;stroke-dasharray:none;stroke-opacity:1"
         d="m 24.722431,135.30192 v 5.87993"
         id="path1076"
         inkscape:connector-curvature="0" />
    </g>
    <circle
       r="4.8670206"
       cy="138.24998"
       cx="112.6369"
       id="circle1084"
       style="opacity:1;fill:none;fill-opacity:1;stroke:#353130;stroke-width:0.71536267;stroke-linecap:round;stroke-linejoin:round;stroke-miterlimit:4;stroke-dasharray:none;stroke-dashoffset:37.79527664;stroke-opacity:1" />
    <g
       transform="translate(87.914474,0.00810813)"
       id="g1090"
       style="stroke:#353130;stroke-opacity:1">
      <path
         style="fill:none;stroke:#353130;stroke-width:0.5;stroke-linecap:butt;stroke-linejoin:miter;stroke-miterlimit:4;stroke-dasharray:none;stroke-opacity:1"
         d="m 21.782466,138.24189 h 5.87993"
         id="path1086"
         inkscape:connector-curvature="0" />
      <path
         style="fill:none;stroke:#353130;stroke-width:0.5;stroke-linecap:butt;stroke-linejoin:miter;stroke-miterlimit:4;stroke-dasharray:none;stroke-opacity:1;marker-end:url(#marker1254)"
         d="m -58.758551,132.77466 c 0,0 14.595424,-13.29805 40.202708,-13.2426 25.6072843,0.0554 36.947172,13.51265 36.947172,13.51265"
         id="path1092"
         inkscape:connector-curvature="0"
         sodipodi:nodetypes="czc" />
      <path
         sodipodi:nodetypes="czc"
         inkscape:connector-curvature="0"
         id="path149"
         d="m -58.758551,144.47049 c 0,0 14.595424,13.29805 40.202708,13.2426 25.6072843,-0.0554 36.947172,-13.51265 36.947172,-13.51265"
         style="fill:none;stroke:#353130;stroke-width:0.5;stroke-linecap:butt;stroke-linejoin:miter;stroke-miterlimit:4;stroke-dasharray:none;stroke-opacity:1;marker-end:url(#marker1202)" />
      <g
         style="fill:#353130;fill-opacity:1;stroke:#353130;stroke-opacity:1"
         transform="matrix(0.26458333,0,0,0.26458333,-619.303,274.49076)"
         inkscape:export-ydpi="1000"
         inkscape:export-xdpi="1000"
         id="g827">
        <g
           style="fill:#353130;fill-opacity:1;stroke:#353130;stroke-opacity:1"
           inkscape:export-ydpi="1000"
           inkscape:export-xdpi="1000"
           id="g828" />
      </g>
      <path
         inkscape:connector-curvature="0"
         id="path1446"
         d="m 21.782466,81.046211 h 5.87993"
         style="fill:none;stroke:#353130;stroke-width:0.5;stroke-linecap:butt;stroke-linejoin:miter;stroke-miterlimit:4;stroke-dasharray:none;stroke-opacity:1" />
      <path
         sodipodi:nodetypes="czc"
         inkscape:connector-curvature="0"
         id="path1448"
         d="m -58.758551,75.578981 c 0,0 14.595424,-13.29805 40.202708,-13.2426 25.6072843,0.0554 36.947172,13.51265 36.947172,13.51265"
         style="fill:none;stroke:#353130;stroke-width:0.5;stroke-linecap:butt;stroke-linejoin:miter;stroke-miterlimit:4;stroke-dasharray:none;stroke-opacity:1;marker-end:url(#marker1254)" />
      <path
         style="fill:none;stroke:#353130;stroke-width:0.5;stroke-linecap:butt;stroke-linejoin:miter;stroke-miterlimit:4;stroke-dasharray:none;stroke-opacity:1;marker-end:url(#marker1471)"
         d="m -58.758551,87.274811 c 0,0 14.595424,13.298049 40.202708,13.242599 25.6072843,-0.0554 36.947172,-13.512649 36.947172,-13.512649"
         id="path1450"
         inkscape:connector-curvature="0"
         sodipodi:nodetypes="czc" />
    </g>
    <g
       aria-label="faraday"
       transform="matrix(0.26458333,0,0,0.26458333,0,-57.195679)"
       style="font-style:normal;font-variant:normal;font-weight:normal;font-stretch:normal;font-size:40px;line-height:1.25;font-family:Pirulen;-inkscape-font-specification:Pirulen;letter-spacing:0px;word-spacing:0px;fill:#353130;fill-opacity:1;stroke:none"
       id="flowRoot1434">
      <path
         d="m 135.45742,537.91953 z m 5.32,-11.6 v 11.6 h -5.32 v -28.16 h 28.96 v 4.16 h -23.64 v 8.24 h 22.04 v 4.16 z"
         id="path1452"
         inkscape:connector-curvature="0" />
      <path
         d="m 160.97739,537.91953 z m 35.2,0 -14.52,-22.68 -14.76,22.68 h -5.92 l 18.72,-28.16 h 3.88 l 18.6,28.16 z"
         id="path1454"
         inkscape:connector-curvature="0" />
      <path
         d="m 204.77734,537.91953 z m 26.76,0 -6.6,-12.56 h -14.84 v 12.56 h -5.32 v -28.16 h 23.92 q 2.4,0 4.08,0.52 1.68,0.48 2.72,1.4 1.08,0.88 1.56,2.12 0.48,1.24 0.48,2.76 v 2 q 0,2.72 -1.6,4.56 -1.6,1.8 -5.36,2.16 l 6.64,12.64 z m 0.68,-21.4 q 0,-2.6 -3.52,-2.6 h -18.6 v 7.28 h 18.6 q 3.52,0 3.52,-2.6 z"
         id="path1456"
         inkscape:connector-curvature="0" />
      <path
         d="m 239.21729,537.91953 z m 35.2,0 -14.52,-22.68 -14.76,22.68 h -5.92 l 18.72,-28.16 h 3.88 l 18.6,28.16 z"
         id="path1458"
         inkscape:connector-curvature="0" />
      <path
         d="m 283.01724,537.91953 z m 0,0 v -28.16 h 25.8 q 3,0 5,0.52 2,0.52 3.2,1.56 1.2,1.04 1.68,2.6 0.52,1.56 0.52,3.64 v 11.8 q 0,2 -0.52,3.52 -0.48,1.48 -1.68,2.48 -1.2,1 -3.2,1.52 -2,0.52 -5,0.52 z m 30.88,-19.84 q 0,-1.2 -0.24,-2 -0.24,-0.8 -0.84,-1.28 -0.56,-0.48 -1.56,-0.68 -0.96,-0.2 -2.44,-0.2 h -20.48 v 19.84 h 20.48 q 1.48,0 2.44,-0.2 1,-0.2 1.56,-0.64 0.6,-0.44 0.84,-1.2 0.24,-0.76 0.24,-1.88 z"
         id="path1460"
         inkscape:connector-curvature="0" />
      <path
         d="m 319.89714,537.91953 z m 35.2,0 -14.52,-22.68 -14.76,22.68 h -5.92 l 18.72,-28.16 h 3.88 l 18.6,28.16 z"
         id="path1462"
         inkscape:connector-curvature="0" />
      <path
         d="m 351.37709,537.91953 z m 18.08,0 v -11.44 l -18.08,-16.72 h 6.8 l 13.92,12.88 13.92,-12.88 h 6.72 l -17.96,16.72 v 11.44 z"
         id="path1464"
         inkscape:connector-curvature="0" />
    </g>
    <path
       style="opacity:1;fill:none;fill-opacity:1;stroke:#353130;stroke-width:0.71536267;stroke-linecap:round;stroke-linejoin:round;stroke-miterlimit:4;stroke-dasharray:none;stroke-dashoffset:37.79527664;stroke-opacity:1"
       d="m 29.624461,81.054306 a 4.8670206,4.8670206 0 0 1 -4.86702,4.867021 4.8670206,4.8670206 0 0 1 -4.867021,-4.867021 4.8670206,4.8670206 0 0 1 4.867021,-4.867021 4.8670206,4.8670206 0 0 1 4.86702,4.867021 z"
       id="circle1436"
       inkscape:connector-curvature="0" />
    <g
       style="stroke:#353130;stroke-opacity:1"
       transform="translate(0.03500957,-57.187571)"
       id="g1442">
      <path
         style="fill:none;stroke:#353130;stroke-width:0.5;stroke-linecap:butt;stroke-linejoin:miter;stroke-miterlimit:4;stroke-dasharray:none;stroke-opacity:1"
         d="m 21.782466,138.24189 h 5.87993"
         id="path1438"
         inkscape:connector-curvature="0" />
      <path
         inkscape:connector-curvature="0"
         id="path1440"
         d="m 24.722431,135.30192 v 5.87993"
         style="fill:none;stroke:#353130;stroke-width:0.5;stroke-linecap:butt;stroke-linejoin:miter;stroke-miterlimit:4;stroke-dasharray:none;stroke-opacity:1" />
    </g>
    <path
       style="opacity:1;fill:none;fill-opacity:1;stroke:#353130;stroke-width:0.71536267;stroke-linecap:round;stroke-linejoin:round;stroke-miterlimit:4;stroke-dasharray:none;stroke-dashoffset:37.79527664;stroke-opacity:1"
       d="m 117.50392,81.054306 a 4.8670206,4.8670206 0 0 1 -4.86702,4.867021 4.8670206,4.8670206 0 0 1 -4.86702,-4.867021 4.8670206,4.8670206 0 0 1 4.86702,-4.867021 4.8670206,4.8670206 0 0 1 4.86702,4.867021 z"
       id="circle1444"
       inkscape:connector-curvature="0" />
  </g>
</svg>
