<?xml version="1.0" encoding="UTF-8" standalone="no"?>
<!-- Created with Inkscape (http://www.inkscape.org/) -->

<svg
   version="1.1"
   id="svg2"
   xml:space="preserve"
   width="2181.4336"
   height="1106.2133"
   viewBox="0 0 2181.4336 1106.2133"
   sodipodi:docname="logo.svg"
   inkscape:version="1.1.2 (0a00cf5339, 2022-02-04, custom)"
   inkscape:export-filename="/home/alvaro/Desktop/SharkPCB/sharkLogo/shark.png"
   inkscape:export-xdpi="1000"
   inkscape:export-ydpi="1000"
   xmlns:inkscape="http://www.inkscape.org/namespaces/inkscape"
   xmlns:sodipodi="http://sodipodi.sourceforge.net/DTD/sodipodi-0.dtd"
   xmlns="http://www.w3.org/2000/svg"
   xmlns:svg="http://www.w3.org/2000/svg"
   xmlns:rdf="http://www.w3.org/1999/02/22-rdf-syntax-ns#"
   xmlns:cc="http://creativecommons.org/ns#"
   xmlns:dc="http://purl.org/dc/elements/1.1/"><metadata
     id="metadata8"><rdf:RDF><cc:Work
         rdf:about=""><dc:format>image/svg+xml</dc:format><dc:type
           rdf:resource="http://purl.org/dc/dcmitype/StillImage" /></cc:Work></rdf:RDF></metadata><defs
     id="defs6" /><sodipodi:namedview
     pagecolor="#ffffff"
     bordercolor="#666666"
     borderopacity="1"
     objecttolerance="10"
     gridtolerance="10"
     guidetolerance="10"
     inkscape:pageopacity="0"
     inkscape:pageshadow="2"
     inkscape:window-width="1920"
     inkscape:window-height="1043"
     id="namedview4"
     showgrid="false"
     inkscape:zoom="0.14866306"
     inkscape:cx="1227.6083"
     inkscape:cy="1052.7161"
     inkscape:window-x="1920"
     inkscape:window-y="305"
     inkscape:window-maximized="1"
     inkscape:current-layer="g10"
     fit-margin-top="0"
     fit-margin-left="0"
     fit-margin-right="0"
     fit-margin-bottom="0"
     inkscape:pagecheckerboard="0" /><g
     id="g10"
     inkscape:groupmode="layer"
     inkscape:label="shark"
     transform="matrix(1.3333333,0,0,-1.3333333,-15.609333,2499.3025)"><g
       style="fill:#000000;fill-opacity:1"
       inkscape:export-ydpi="500"
       inkscape:export-xdpi="500"
       id="g863"
       transform="translate(0,1039.2629)"><path
         inkscape:connector-curvature="0"
         id="path847"
         style="fill:#000000;fill-opacity:1;fill-rule:evenodd;stroke:none"
         d="m 507.277,638.667 c -8.578,-10.844 -26.945,-11.922 -33.199,-6.277 -6.25,5.644 -2.148,13.16 9.059,10.086 11.207,-3.078 16.008,-8.895 24.14,-3.809 z" /><path
         inkscape:connector-curvature="0"
         id="path849"
         style="fill:#000000;fill-opacity:1;fill-rule:evenodd;stroke:none"
         d="m 240.121,835.214 c 99.113,-10.129 125.637,-47.211 138.809,-56.965 -21.602,9.055 -48.508,23.555 -68.071,22.543 7.719,-12.086 13.028,-27.258 24.332,-32.875 48.047,5.383 125.832,0.094 188.067,-35.855 70.305,-40.618 104.523,-84.243 -27.867,-117.922 177.601,77.742 -82.149,160.988 -97.516,125.113 -1.434,3.172 -1.105,6.652 -0.402,9.895 -19.735,-1.938 -29.153,-6.731 -28.278,-14.375 -5.058,7.777 -3.668,12.921 0.211,17.054 -16.133,-5.097 -28.605,-12.48 -32.363,-25.316 -2.684,7.39 -3.402,14.808 2.633,22.316 -51.02,-13.488 -111.785,-28.543 -187.453,-117.164 45.898,89.641 123.468,122.25 148.617,129.61 3.59,27.859 -40.195,60.343 -60.719,73.941 z" /><path
         inkscape:connector-curvature="0"
         id="path851"
         style="fill:#000000;fill-opacity:1;fill-rule:evenodd;stroke:none"
         d="m 343.172,686.683 c 17.555,8.316 34.82,15.933 48.641,15.301 -17.735,-13.168 -23.805,-23.282 -25.598,-32.278 37.855,49.563 157.926,56.985 158.16,-14.586 9.258,16.633 5.18,38.774 -22.492,54.852 -41.047,23.851 -100.973,27.902 -158.711,-23.289 z" /><path
         inkscape:connector-curvature="0"
         id="path853"
         style="fill:#000000;fill-opacity:1;fill-rule:evenodd;stroke:none"
         d="M 321.922,690.058 C 283.848,689.944 98.449,629.359 59.414,454.046 c 21.301,21.93 75.953,40.898 105.457,44.512 10.844,-39.004 67.965,-72.864 100.535,-73.473 -30.008,10.563 -118.14,68.008 -62.484,151.383 -18.75,-13.914 -42.332,-29.332 -41.309,-51.356 -4.531,-15.605 -49.511,-18.933 -75.062,-32.64 69.387,137.375 179.605,181.265 235.371,197.586 z" /><path
         inkscape:connector-curvature="0"
         id="path855"
         style="fill:#000000;fill-opacity:1;fill-rule:evenodd;stroke:none"
         d="m 305.621,667.804 c -79.48,-66.008 -72.223,-131.52 -43.547,-159.852 -4.898,8.84 -14.156,26.203 -6.769,49.285 2.687,-4.582 5.699,-8.976 11.097,-11.992 -9.023,55.77 18.868,89.524 39.219,122.559 z" /><path
         inkscape:connector-curvature="0"
         id="path857"
         style="fill:#000000;fill-opacity:1;fill-rule:evenodd;stroke:none"
         d="m 243.629,422.163 c 15.75,-19.129 46.031,-44.5 -12.566,-102.496 19.339,12.399 33.289,12.856 41.023,-0.449 16.918,27.887 34.961,69.664 -28.457,102.945 z" /><path
         inkscape:connector-curvature="0"
         id="path859"
         style="fill:#000000;fill-opacity:1;fill-rule:evenodd;stroke:none"
         d="m 293.445,368.468 c 25.176,-60.25 -13.527,-134.277 -19.679,-145.113 -2.93,47.812 -36.598,-14.375 -123.422,40.343 44.957,-53.39 99.14,-28.449 89.371,-103.855 25.414,18.422 37.144,34.766 57.609,67.293 C 275.977,171.124 225.504,67.601 11.707,5.554 c 108.313,47.773 242.75,151.019 185.84,206.887 -24.586,21.933 -52.094,18.859 -71.793,82.554 133.426,-106.113 171.394,40.992 167.691,73.473 z" /><path
         inkscape:connector-curvature="0"
         id="path861"
         style="fill:#000000;fill-opacity:1;fill-rule:evenodd;stroke:none"
         d="m 458.715,608.546 c -71.77,-25.957 -49.902,-71.441 -106.246,-96.961 11.886,35.762 5.219,62.25 -4.149,81.875 19.071,-18.043 21.77,-23.926 21.336,-45.508 33.793,36.34 29.641,49.035 19.336,55.731 -21.129,13.734 -68.383,-13.692 -63.758,-58.317 2.11,-20.363 66.801,-106.148 64.625,-151.59 22.95,-33.042 10.614,-69.078 7.868,-74.91 0.199,11.719 -4.332,19.715 -18.618,22.754 -3.031,-29.191 -29.386,-81.707 -75.871,-96.961 47.344,82.989 -3.203,146.235 -31.582,172.371 19.078,-5.296 85.774,-31.586 75.688,-120.211 8.41,20.02 11.941,40.348 12.281,60.883 58.164,4.223 21.441,74.34 -64.273,98.199 -61.305,17.071 -65.641,71.215 -64.844,78.708 42.648,-87.833 81.211,-51.114 116.336,-70.102 -26.239,34.723 -67.84,114.16 5.664,151.398 -15.445,7.563 -16.227,17.86 -15.988,28.344 6.453,-6.246 9.16,-12.785 31.941,-18.035 -13.07,12.609 -6.488,30.402 -6.652,32.086 3.843,-5.535 12.109,-32.016 32.539,-28.274 -10.989,6.379 -5.047,17.938 -0.364,27.938 5.836,-22.242 15.012,-47.063 64.731,-49.418 z" /></g><g
       aria-label="Sharkpcb"
       transform="matrix(6.0843608,0,0,-6.0843608,6936.7487,3115.2633)"
       style="font-style:normal;font-weight:normal;font-size:40px;line-height:1.25;font-family:sans-serif;letter-spacing:0px;word-spacing:0px;fill:#000000;fill-opacity:1;stroke:none"
       id="flowRoot871"><path
         d="m -1055.3486,290.21055 v -4.16 h 24.48 q 3.52,0 3.52,-2.6 v -3.56 q 0,-2.6 -3.52,-2.6 h -16.56 q -2.4,0 -4.08,-0.48 -1.68,-0.52 -2.76,-1.4 -1.04,-0.92 -1.52,-2.16 -0.48,-1.24 -0.48,-2.76 v -1.64 q 0,-1.52 0.48,-2.76 0.48,-1.24 1.52,-2.12 1.08,-0.92 2.76,-1.4 1.68,-0.52 4.08,-0.52 h 23.84 v 4.16 h -23.84 q -3.52,0 -3.52,2.6 v 1.72 q 0,2.6 3.52,2.6 h 16.56 q 2.4,0 4.08,0.52 1.68,0.48 2.72,1.4 1.08,0.88 1.56,2.12 0.48,1.24 0.48,2.76 v 3.48 q 0,1.52 -0.48,2.76 -0.48,1.24 -1.56,2.16 -1.04,0.88 -2.72,1.4 -1.68,0.48 -4.08,0.48 z"
         style="font-style:normal;font-variant:normal;font-weight:normal;font-stretch:normal;font-family:Pirulen;-inkscape-font-specification:Pirulen;fill:#000000;fill-opacity:1"
         id="path873"
         inkscape:connector-curvature="0" /><path
         d="m -1017.6617,290.21055 z m 28.35998,0 v -12.8 h -23.03998 v 12.8 h -5.32 v -28.16 h 5.32 v 11.2 h 23.03998 v -11.2 h 5.32 v 28.16 z"
         style="font-style:normal;font-variant:normal;font-weight:normal;font-stretch:normal;font-family:Pirulen;-inkscape-font-specification:Pirulen;fill:#000000;fill-opacity:1"
         id="path875"
         inkscape:connector-curvature="0" /><path
         d="m -981.35547,290.21055 z m 35.2,0 -14.52,-22.68 -14.76,22.68 h -5.92 l 18.72,-28.16 h 3.88 l 18.6,28.16 z"
         style="font-style:normal;font-variant:normal;font-weight:normal;font-stretch:normal;font-family:Pirulen;-inkscape-font-specification:Pirulen;fill:#000000;fill-opacity:1"
         id="path877"
         inkscape:connector-curvature="0" /><path
         d="m -937.58359,290.21055 z m 26.76,0 -6.6,-12.56 h -14.84 v 12.56 h -5.32 v -28.16 h 23.92 q 2.4,0 4.08,0.52 1.68,0.48 2.72,1.4 1.08,0.88 1.56,2.12 0.48,1.24 0.48,2.76 v 2 q 0,2.72 -1.6,4.56 -1.6,1.8 -5.36,2.16 l 6.64,12.64 z m 0.68,-21.4 q 0,-2.6 -3.52,-2.6 h -18.6 v 7.28 h 18.6 q 3.52,0 3.52,-2.6 z"
         style="font-style:normal;font-variant:normal;font-weight:normal;font-stretch:normal;font-family:Pirulen;-inkscape-font-specification:Pirulen;fill:#000000;fill-opacity:1"
         id="path879"
         inkscape:connector-curvature="0" /><path
         d="m -900.55234,290.21055 z m 25.12,0 -10.64,-12.56 h -9.16 v 12.56 h -5.32 v -28.16 h 5.32 v 11.44 h 9.04 l 10.6,-11.44 h 6.32 l -12.52,13.12 12.48,15.04 z"
         style="font-style:normal;font-variant:normal;font-weight:normal;font-stretch:normal;font-family:Pirulen;-inkscape-font-specification:Pirulen;fill:#000000;fill-opacity:1"
         id="path881"
         inkscape:connector-curvature="0" /></g></g></svg>
