<?xml version="1.0" encoding="UTF-8" standalone="no"?>
<svg
   xmlns:dc="http://purl.org/dc/elements/1.1/"
   xmlns:cc="http://creativecommons.org/ns#"
   xmlns:rdf="http://www.w3.org/1999/02/22-rdf-syntax-ns#"
   xmlns:svg="http://www.w3.org/2000/svg"
   xmlns="http://www.w3.org/2000/svg"
   xmlns:sodipodi="http://sodipodi.sourceforge.net/DTD/sodipodi-0.dtd"
   xmlns:inkscape="http://www.inkscape.org/namespaces/inkscape"
   version="1.1"
   id="svg2"
   xml:space="preserve"
   width="614.88"
   height="322.42322"
   viewBox="0 0 614.88 322.4232"
   sodipodi:docname="thresholds_table.svg"
   inkscape:version="1.0 (4035a4fb49, 2020-05-01)"><metadata
     id="metadata8"><rdf:RDF><cc:Work
         rdf:about=""><dc:format>image/svg+xml</dc:format><dc:type
           rdf:resource="http://purl.org/dc/dcmitype/StillImage" /><dc:title /></cc:Work></rdf:RDF></metadata><defs
     id="defs6"><clipPath
       clipPathUnits="userSpaceOnUse"
       id="clipPath36"><path
         d="m 496.8,104.96 h 28.38 V 89.84 H 496.8 Z"
         clip-rule="evenodd"
         id="path34" /></clipPath><clipPath
       clipPathUnits="userSpaceOnUse"
       id="clipPath42"><path
         d="M 0,841.98 H 595.2 V 0 H 0 Z"
         id="path40" /></clipPath></defs><sodipodi:namedview
     inkscape:snap-global="false"
     inkscape:document-rotation="0"
     pagecolor="#ffffff"
     bordercolor="#666666"
     borderopacity="1"
     objecttolerance="10"
     gridtolerance="10"
     guidetolerance="10"
     inkscape:pageopacity="0"
     inkscape:pageshadow="2"
     inkscape:window-width="1366"
     inkscape:window-height="711"
     id="namedview4"
     showgrid="false"
     inkscape:zoom="0.60513126"
     inkscape:cx="105.92506"
     inkscape:cy="141.64186"
     inkscape:window-x="0"
     inkscape:window-y="20"
     inkscape:window-maximized="1"
     inkscape:current-layer="g10" /><g
     id="g10"
     inkscape:groupmode="layer"
     inkscape:label="stm32f072c8"
     transform="matrix(1.3333333,0,0,-1.3333333,-89.359998,610.76986)"><text
       transform="matrix(1,0,0,-1,216,450.8603)"
       style="font-variant:normal;font-weight:bold;font-stretch:normal;font-size:9.96px;font-family:Arial;-inkscape-font-specification:Arial-BoldMT;writing-mode:lr-tb;fill:#000000;fill-opacity:1;fill-rule:nonzero;stroke:none"
       id="text180"><tspan
         x="0 5.341548 10.920144 17.034588 19.832352 25.398996 28.160904 33.727547 39.246384 42.044147 44.806057 47.603821 50.401585 58.179348 61.001015 66.519852 69.879356 75.398193 78.757706 81.555466 87.122108 89.884018 95.450661 101.51232 107.07896 110.98228 116.50112 122.07972 125.37947 130.95807 134.86139 137.65915 143.2258 146.52554 149.3233 154.84215 160.40878"
         y="0"
         sodipodi:role="line"
         id="tspan178">Table 53. I/O static characteristics </tspan></text><text
       transform="matrix(1,0,0,-1,71.28,433.5203)"
       style="font-variant:normal;font-weight:bold;font-stretch:normal;font-size:9px;font-family:Arial;-inkscape-font-specification:Arial-BoldMT;writing-mode:lr-tb;fill:#000000;fill-opacity:1;fill-rule:nonzero;stroke:none"
       id="text184"><tspan
         x="0 6.0110998 10.9899 18.999001 24.5061 29.9673 57.329102 63.340199 68.319 71.828102 76.8069 84.816002 89.7948 92.799896 97.778702 146.37691 152.8551 158.3622 163.82339 169.33051 171.84061 174.8457 177.30721 182.8143 188.2755 257.634 265.1337 267.6438 321.16501 325.96649 330.94531 379.42651 386.92621 391.905 435.5235 442.0296 447.49081 450.00089"
         y="0"
         sodipodi:role="line"
         id="tspan182">SymbolParameterConditionsMinTypMaxUnit</tspan></text><text
       transform="matrix(1,0,0,-1,81.54,383.5406)"
       style="font-variant:normal;font-weight:normal;font-stretch:normal;font-size:9px;font-family:Arial;-inkscape-font-specification:ArialMT;writing-mode:lr-tb;fill:#000000;fill-opacity:1;fill-rule:nonzero;stroke:none"
       id="text188"><tspan
         x="0"
         y="0"
         id="tspan186">V</tspan></text><text
       transform="matrix(1,0,0,-1,87.54,381.3203)"
       style="font-variant:normal;font-weight:normal;font-stretch:normal;font-size:7.2px;font-family:Arial;-inkscape-font-specification:ArialMT;writing-mode:lr-tb;fill:#000000;fill-opacity:1;fill-rule:nonzero;stroke:none"
       id="text192"><tspan
         x="0 1.9814399"
         y="0"
         sodipodi:role="line"
         id="tspan190">IL</tspan></text><text
       transform="matrix(1,0,0,-1,110.76,389.0603)"
       style="font-variant:normal;font-weight:normal;font-stretch:normal;font-size:9px;font-family:Arial;-inkscape-font-specification:ArialMT;writing-mode:lr-tb;fill:#000000;fill-opacity:1;fill-rule:nonzero;stroke:none"
       id="text200"><tspan
         x="0 5.0381999 10.017 16.493401 19.0152 20.9916 25.974001 30.4524 35.490601 37.466999 39.928501 41.966999 46.949402 51.931801 56.970001 59.450401"
         y="0"
         sodipodi:role="line"
         id="tspan194">Low level input </tspan><tspan
         x="0 4.4892001 9.5274 11.5146 14.0058 18.999001 23.992201"
         y="11.0403"
         sodipodi:role="line"
         id="tspan196">voltage</tspan><tspan
         x="85.619698 91.119598 97.6185 100.1403 105.1452 110.1501 115.155 117.4968 122.958 127.4598 132.46471 134.9865 137.4894 139.9509 224.4321 287.9118 311.67181 316.6506 319.1535 324.15839 326.68021"
         y="-25.499701"
         sodipodi:role="line"
         id="tspan198">TC and TTa I/O--0.3 V</tspan></text><text
       transform="matrix(1,0,0,-1,443.4,412.2803)"
       style="font-variant:normal;font-weight:normal;font-stretch:normal;font-size:7.2px;font-family:Arial;-inkscape-font-specification:ArialMT;writing-mode:lr-tb;fill:#000000;fill-opacity:1;fill-rule:nonzero;stroke:none"
       id="text204"><tspan
         x="0 5.17032 10.38888 12.3624 17.935921"
         y="0"
         sodipodi:role="line"
         id="tspan202">DDIOx</tspan></text><text
       transform="matrix(1,0,0,-1,464.94,414.5603)"
       style="font-variant:normal;font-weight:normal;font-stretch:normal;font-size:9px;font-family:Arial;-inkscape-font-specification:ArialMT;writing-mode:lr-tb;fill:#000000;fill-opacity:1;fill-rule:nonzero;stroke:none"
       id="text208"><tspan
         x="0 5.2172999 10.2555 12.7188 17.757"
         y="0"
         sodipodi:role="line"
         id="tspan206">+0.07</tspan></text><text
       transform="matrix(1,0,0,-1,487.68,418.1603)"
       style="font-variant:normal;font-weight:normal;font-stretch:normal;font-size:7.2px;font-family:Arial;-inkscape-font-specification:ArialMT;writing-mode:lr-tb;fill:#000000;fill-opacity:1;fill-rule:nonzero;stroke:none"
       id="text212"><tspan
         x="0 2.39976 6.3590398"
         y="0"
         sodipodi:role="line"
         id="tspan210">(1)</tspan></text><text
       transform="matrix(1,0,0,-1,512.58,383.5403)"
       style="font-variant:normal;font-weight:normal;font-stretch:normal;font-size:9px;font-family:Arial;-inkscape-font-specification:ArialMT;writing-mode:lr-tb;fill:#000000;fill-opacity:1;fill-rule:nonzero;stroke:none"
       id="text218"><tspan
         x="0"
         y="0"
         id="tspan214">V</tspan><tspan
         x="-316.19971 -310.689 -305.3475 -302.88599 -297.8703 -292.85461 -287.8389 -285.31711 -279.8559 -274.33441 -271.82071 -269.35919 -266.84549 -264.33179 -177.39 -113.9103 -92.490303 -87.474602 -85.0131 -79.997398 -74.981697 -70.063202 -67.541397"
         y="-13.9797"
         sodipodi:role="line"
         id="tspan216">FT and FTf I/O--0.475 V</tspan></text><text
       transform="matrix(1,0,0,-1,451.02,395.3003)"
       style="font-variant:normal;font-weight:normal;font-stretch:normal;font-size:7.2px;font-family:Arial;-inkscape-font-specification:ArialMT;writing-mode:lr-tb;fill:#000000;fill-opacity:1;fill-rule:nonzero;stroke:none"
       id="text222"><tspan
         x="0 5.17032 10.38888 12.3624 17.935921"
         y="0"
         sodipodi:role="line"
         id="tspan220">DDIOx</tspan></text><text
       transform="matrix(1,0,0,-1,472.56,397.5203)"
       style="font-variant:normal;font-weight:normal;font-stretch:normal;font-size:9px;font-family:Arial;-inkscape-font-specification:ArialMT;writing-mode:lr-tb;fill:#000000;fill-opacity:1;fill-rule:nonzero;stroke:none"
       id="text226"><tspan
         x="0 4.9706998 10.0089 12.4776"
         y="0"
         sodipodi:role="line"
         id="tspan224">–0.2</tspan></text><text
       transform="matrix(1,0,0,-1,490.08,401.1203)"
       style="font-variant:normal;font-weight:normal;font-stretch:normal;font-size:7.2px;font-family:Arial;-inkscape-font-specification:ArialMT;writing-mode:lr-tb;fill:#000000;fill-opacity:1;fill-rule:nonzero;stroke:none"
       id="text230"><tspan
         x="0 2.40696 6.4195199"
         y="0"
         sodipodi:role="line"
         id="tspan228">(1)</tspan></text><text
       transform="matrix(1,0,0,-1,196.38,380.5403)"
       style="font-variant:normal;font-weight:normal;font-stretch:normal;font-size:9px;font-family:Arial;-inkscape-font-specification:ArialMT;writing-mode:lr-tb;fill:#000000;fill-opacity:1;fill-rule:nonzero;stroke:none"
       id="text234"><tspan
         x="0 5.9751 12.9969 19.971001 25.4925 138.771 202.2507 228.65041 233.6292 236.1033 241.14149 243.6633"
         y="0"
         sodipodi:role="line"
         id="tspan232">BOOT0--0.3 V</tspan></text><text
       transform="matrix(1,0,0,-1,446.04,378.3203)"
       style="font-variant:normal;font-weight:normal;font-stretch:normal;font-size:7.2px;font-family:Arial;-inkscape-font-specification:ArialMT;writing-mode:lr-tb;fill:#000000;fill-opacity:1;fill-rule:nonzero;stroke:none"
       id="text238"><tspan
         x="0 5.2286401 10.38744 12.41928 18.000719"
         y="0"
         sodipodi:role="line"
         id="tspan236">DDIOx</tspan></text><text
       transform="matrix(1,0,0,-1,467.58,380.5403)"
       style="font-variant:normal;font-weight:normal;font-stretch:normal;font-size:9px;font-family:Arial;-inkscape-font-specification:ArialMT;writing-mode:lr-tb;fill:#000000;fill-opacity:1;fill-rule:nonzero;stroke:none"
       id="text242"><tspan
         x="0 4.9941001 9.9882002 12.4803"
         y="0"
         sodipodi:role="line"
         id="tspan240">–0.3</tspan></text><text
       transform="matrix(1,0,0,-1,485.1,384.1403)"
       style="font-variant:normal;font-weight:normal;font-stretch:normal;font-size:7.2px;font-family:Arial;-inkscape-font-specification:ArialMT;writing-mode:lr-tb;fill:#000000;fill-opacity:1;fill-rule:nonzero;stroke:none"
       id="text246"><tspan
         x="0 2.40696 6.4195199"
         y="0"
         sodipodi:role="line"
         id="tspan244">(1)</tspan></text><text
       transform="matrix(1,0,0,-1,196.38,363.5603)"
       style="font-variant:normal;font-weight:normal;font-stretch:normal;font-size:9px;font-family:Arial;-inkscape-font-specification:ArialMT;writing-mode:lr-tb;fill:#000000;fill-opacity:1;fill-rule:nonzero;stroke:none"
       id="text254"><tspan
         x="0 5.9994001 7.9938002 9.9882002 12.4497 14.9481 17.446501 24.444901 28.941299 31.4631 36.463501 40.9599 45.456299 50.456699 55.4571 57.955502"
         y="0"
         sodipodi:role="line"
         id="tspan248">All I/Os except </tspan><tspan
         x="0 5.9832001 12.9654 19.947599 25.469101 30.4533 32.975101 37.959301 39.9375"
         y="11.0403"
         sodipodi:role="line"
         id="tspan250">BOOT0 pin</tspan><tspan
         x="138.78 202.2597 241.79939 246.7782 249.2397 254.27789 256.79971"
         y="5.5205998"
         sodipodi:role="line"
         id="tspan252">--0.3 V</tspan></text><text
       transform="matrix(1,0,0,-1,459.18,355.8203)"
       style="font-variant:normal;font-weight:normal;font-stretch:normal;font-size:7.2px;font-family:Arial;-inkscape-font-specification:ArialMT;writing-mode:lr-tb;fill:#000000;fill-opacity:1;fill-rule:nonzero;stroke:none"
       id="text258"><tspan
         x="0 5.2286401 10.38744 12.41928 18.000719"
         y="0"
         sodipodi:role="line"
         id="tspan256">DDIOx</tspan></text><text
       transform="matrix(1,0,0,-1,80.94,304.5204)"
       style="font-variant:normal;font-weight:normal;font-stretch:normal;font-size:9px;font-family:Arial;-inkscape-font-specification:ArialMT;writing-mode:lr-tb;fill:#000000;fill-opacity:1;fill-rule:nonzero;stroke:none"
       id="text262"><tspan
         x="0"
         y="0"
         id="tspan260">V</tspan></text><text
       transform="matrix(1,0,0,-1,86.94,302.3004)"
       style="font-variant:normal;font-weight:normal;font-stretch:normal;font-size:7.2px;font-family:Arial;-inkscape-font-specification:ArialMT;writing-mode:lr-tb;fill:#000000;fill-opacity:1;fill-rule:nonzero;stroke:none"
       id="text266"><tspan
         x="0 2.0411999"
         y="0"
         sodipodi:role="line"
         id="tspan264">IH</tspan></text><text
       transform="matrix(1,0,0,-1,110.76,310.0403)"
       style="font-variant:normal;font-weight:normal;font-stretch:normal;font-size:9px;font-family:Arial;-inkscape-font-specification:ArialMT;writing-mode:lr-tb;fill:#000000;fill-opacity:1;fill-rule:nonzero;stroke:none"
       id="text274"><tspan
         x="0 6.5384998 8.5166998 13.4973 18.4779 20.999701 22.9743 28.012501 32.489101 37.4697 39.444302 41.966099 43.940701 48.921299 53.959499 58.938301 61.416901"
         y="0"
         sodipodi:role="line"
         id="tspan268">High level input </tspan><tspan
         x="0 4.4892001 9.5274 11.5146 14.0058 18.999001 23.992201"
         y="10.98"
         sodipodi:role="line"
         id="tspan270">voltage</tspan><tspan
         x="85.619698 91.141197 97.6194 100.1412 105.1209 110.1006 115.1388 117.4806 122.9553 127.4571 132.4368 134.9586 137.43629 139.914 181.3752 186.41341 188.8911 193.92931 198.909 203.8887 206.3502"
         y="-25.499701"
         sodipodi:role="line"
         id="tspan272">TC and TTa I/O0.445 V</tspan></text><text
       transform="matrix(1,0,0,-1,323.1,333.3203)"
       style="font-variant:normal;font-weight:normal;font-stretch:normal;font-size:7.2px;font-family:Arial;-inkscape-font-specification:ArialMT;writing-mode:lr-tb;fill:#000000;fill-opacity:1;fill-rule:nonzero;stroke:none"
       id="text278"><tspan
         x="0 5.17032 10.38888 12.3624 17.935921"
         y="0"
         sodipodi:role="line"
         id="tspan276">DDIOx</tspan></text><text
       transform="matrix(1,0,0,-1,344.64,335.5403)"
       style="font-variant:normal;font-weight:normal;font-stretch:normal;font-size:9px;font-family:Arial;-inkscape-font-specification:ArialMT;writing-mode:lr-tb;fill:#000000;fill-opacity:1;fill-rule:nonzero;stroke:none"
       id="text282"><tspan
         x="0 5.2209001 10.2582 12.7251 17.7624 22.7313"
         y="0"
         sodipodi:role="line"
         id="tspan280">+0.398</tspan></text><text
       transform="matrix(1,0,0,-1,372.42,339.1404)"
       style="font-variant:normal;font-weight:normal;font-stretch:normal;font-size:7.2px;font-family:Arial;-inkscape-font-specification:ArialMT;writing-mode:lr-tb;fill:#000000;fill-opacity:1;fill-rule:nonzero;stroke:none"
       id="text286"><tspan
         x="0 2.40696 6.4195199"
         y="0"
         sodipodi:role="line"
         id="tspan284">(1)</tspan></text><text
       transform="matrix(1,0,0,-1,398.64,335.5403)"
       style="font-variant:normal;font-weight:normal;font-stretch:normal;font-size:9px;font-family:Arial;-inkscape-font-specification:ArialMT;writing-mode:lr-tb;fill:#000000;fill-opacity:1;fill-rule:nonzero;stroke:none"
       id="text294"><tspan
         x="0 59.339699"
         y="0"
         sodipodi:role="line"
         id="tspan288">--</tspan><tspan
         x="113.94"
         y="31.0203"
         id="tspan290">V</tspan><tspan
         x="-202.2597 -196.74989 -191.4084 -188.9469 -183.9321 -178.9173 -173.9025 -171.38071 -165.91949 -160.39799 -157.88519 -155.42371 -152.9109 -150.3981 -96.516899 -91.502098 -88.989304 -83.974503 -81.513"
         y="16.980301"
         sodipodi:role="line"
         id="tspan292">FT and FTf I/O0.5 V</tspan></text><text
       transform="matrix(1,0,0,-1,323.1,316.2803)"
       style="font-variant:normal;font-weight:normal;font-stretch:normal;font-size:7.2px;font-family:Arial;-inkscape-font-specification:ArialMT;writing-mode:lr-tb;fill:#000000;fill-opacity:1;fill-rule:nonzero;stroke:none"
       id="text298"><tspan
         x="0 5.17032 10.38888 12.3624 17.935921"
         y="0"
         sodipodi:role="line"
         id="tspan296">DDIOx</tspan></text><text
       transform="matrix(1,0,0,-1,344.64,318.5604)"
       style="font-variant:normal;font-weight:normal;font-stretch:normal;font-size:9px;font-family:Arial;-inkscape-font-specification:ArialMT;writing-mode:lr-tb;fill:#000000;fill-opacity:1;fill-rule:nonzero;stroke:none"
       id="text302"><tspan
         x="0 5.2172999 10.2555 12.7188"
         y="0"
         sodipodi:role="line"
         id="tspan300">+0.2</tspan></text><text
       transform="matrix(1,0,0,-1,362.4,322.1603)"
       style="font-variant:normal;font-weight:normal;font-stretch:normal;font-size:7.2px;font-family:Arial;-inkscape-font-specification:ArialMT;writing-mode:lr-tb;fill:#000000;fill-opacity:1;fill-rule:nonzero;stroke:none"
       id="text306"><tspan
         x="0 2.39976 6.3583202"
         y="0"
         sodipodi:role="line"
         id="tspan304">(1)</tspan></text><text
       transform="matrix(1,0,0,-1,398.64,318.5604)"
       style="font-variant:normal;font-weight:normal;font-stretch:normal;font-size:9px;font-family:Arial;-inkscape-font-specification:ArialMT;writing-mode:lr-tb;fill:#000000;fill-opacity:1;fill-rule:nonzero;stroke:none"
       id="text312"><tspan
         x="0 59.339699"
         y="0"
         sodipodi:role="line"
         id="tspan308">--</tspan><tspan
         x="-202.2597 -196.28191 -189.2601 -182.28329 -176.7618 -99.003601 -93.965401 -91.488602 -86.509804 -83.987999"
         y="17.0397"
         sodipodi:role="line"
         id="tspan310">BOOT00.2 V</tspan></text><text
       transform="matrix(1,0,0,-1,320.58,299.3004)"
       style="font-variant:normal;font-weight:normal;font-stretch:normal;font-size:7.2px;font-family:Arial;-inkscape-font-specification:ArialMT;writing-mode:lr-tb;fill:#000000;fill-opacity:1;fill-rule:nonzero;stroke:none"
       id="text316"><tspan
         x="0 5.17032 10.38888 12.3624 17.935921"
         y="0"
         sodipodi:role="line"
         id="tspan314">DDIOx</tspan></text><text
       transform="matrix(1,0,0,-1,342.18,301.5204)"
       style="font-variant:normal;font-weight:normal;font-stretch:normal;font-size:9px;font-family:Arial;-inkscape-font-specification:ArialMT;writing-mode:lr-tb;fill:#000000;fill-opacity:1;fill-rule:nonzero;stroke:none"
       id="text320"><tspan
         x="0 5.2785001 10.2573 12.7818 17.760599"
         y="0"
         sodipodi:role="line"
         id="tspan318">+0.95</tspan></text><text
       transform="matrix(1,0,0,-1,364.92,305.1204)"
       style="font-variant:normal;font-weight:normal;font-stretch:normal;font-size:7.2px;font-family:Arial;-inkscape-font-specification:ArialMT;writing-mode:lr-tb;fill:#000000;fill-opacity:1;fill-rule:nonzero;stroke:none"
       id="text324"><tspan
         x="0 2.40696 6.4195199"
         y="0"
         sodipodi:role="line"
         id="tspan322">(1)</tspan></text><text
       transform="matrix(1,0,0,-1,398.64,301.5204)"
       style="font-variant:normal;font-weight:normal;font-stretch:normal;font-size:9px;font-family:Arial;-inkscape-font-specification:ArialMT;writing-mode:lr-tb;fill:#000000;fill-opacity:1;fill-rule:nonzero;stroke:none"
       id="text334"><tspan
         x="0 59.339699"
         y="0"
         sodipodi:role="line"
         id="tspan326">--</tspan><tspan
         x="-202.2597 -196.2603 -194.2659 -192.2715 -189.81 -187.3116 -184.8132 -177.8148 -173.31841 -170.7966 -165.7962 -161.2998 -156.80341 -151.80299 -146.8026 -144.3042"
         y="16.980301"
         sodipodi:role="line"
         id="tspan328">All I/Os except </tspan><tspan
         x="-202.2597 -196.2765 -189.2943 -182.3121 -176.7906 -171.8064 -169.28461 -164.3004 -162.3222"
         y="27.9603"
         sodipodi:role="line"
         id="tspan330">BOOT0 pin</tspan><tspan
         x="-83.279701 -78.278397 -75.779099 -70.740898 -68.279404"
         y="22.5"
         sodipodi:role="line"
         id="tspan332">0.7 V</tspan></text><text
       transform="matrix(1,0,0,-1,336.36,276.8004)"
       style="font-variant:normal;font-weight:normal;font-stretch:normal;font-size:7.2px;font-family:Arial;-inkscape-font-specification:ArialMT;writing-mode:lr-tb;fill:#000000;fill-opacity:1;fill-rule:nonzero;stroke:none"
       id="text338"><tspan
         x="0 5.17032 10.38888 12.3624 17.935921"
         y="0"
         sodipodi:role="line"
         id="tspan336">DDIOx</tspan></text><text
       transform="matrix(1,0,0,-1,398.64,279.0203)"
       style="font-variant:normal;font-weight:normal;font-stretch:normal;font-size:9px;font-family:Arial;-inkscape-font-specification:ArialMT;writing-mode:lr-tb;fill:#000000;fill-opacity:1;fill-rule:nonzero;stroke:none"
       id="text344"><tspan
         x="0 59.339699"
         y="0"
         sodipodi:role="line"
         id="tspan340">--</tspan><tspan
         x="-319.7403"
         y="38.639702"
         id="tspan342">V</tspan></text><text
       transform="matrix(1,0,0,-1,84.9,238.1003)"
       style="font-variant:normal;font-weight:normal;font-stretch:normal;font-size:7.2px;font-family:Arial;-inkscape-font-specification:ArialMT;writing-mode:lr-tb;fill:#000000;fill-opacity:1;fill-rule:nonzero;stroke:none"
       id="text348"><tspan
         x="0 4.0190401 7.5592799"
         y="0"
         sodipodi:role="line"
         id="tspan346">hys</tspan></text><text
       transform="matrix(1,0,0,-1,110.76,245.0603)"
       style="font-variant:normal;font-weight:normal;font-stretch:normal;font-size:9px;font-family:Arial;-inkscape-font-specification:ArialMT;writing-mode:lr-tb;fill:#000000;fill-opacity:1;fill-rule:nonzero;stroke:none"
       id="text356"><tspan
         x="0 5.9949002 10.4868 15.525 22.9653 25.003799 27.4653 29.9592 32.480999 34.974899 37.963799 39.953701 44.991901 49.987801 54.9837 57.972599"
         y="0"
         sodipodi:role="line"
         id="tspan350">Schmitt trigger </tspan><tspan
         x="0 5.0211 9.5382004 14.0553 16.5168 21.537901 24.478201 29.4993 34.016399 35.994598"
         y="11.0403"
         sodipodi:role="line"
         id="tspan352">hysteresis</tspan><tspan
         x="85.619698 91.141197 97.6194 100.1412 105.1245 110.1078 115.146 117.4878 122.9661 127.4679 132.4512 134.97301 137.4543 139.93559 224.41679 277.45651 282.43979 287.478"
         y="-11.4597"
         sodipodi:role="line"
         id="tspan354">TC and TTa I/O-200</tspan></text><text
       transform="matrix(1,0,0,-1,403.2,260.1204)"
       style="font-variant:normal;font-weight:normal;font-stretch:normal;font-size:7.2px;font-family:Arial;-inkscape-font-specification:ArialMT;writing-mode:lr-tb;fill:#000000;fill-opacity:1;fill-rule:nonzero;stroke:none"
       id="text360"><tspan
         x="0 2.39976 6.3590398"
         y="0"
         sodipodi:role="line"
         id="tspan358">(1)</tspan></text><text
       transform="matrix(1,0,0,-1,457.98,256.5203)"
       style="font-variant:normal;font-weight:normal;font-stretch:normal;font-size:9px;font-family:Arial;-inkscape-font-specification:ArialMT;writing-mode:lr-tb;fill:#000000;fill-opacity:1;fill-rule:nonzero;stroke:none"
       id="text366"><tspan
         x="0"
         y="0"
         id="tspan362">-</tspan><tspan
         x="50.820301 58.32 -261.5994 -256.08691 -250.74541 -248.28391 -243.2664 -238.2489 -233.2314 -230.70959 -225.2484 -219.7269 -217.2114 -214.74989 -212.23441 -209.7189 -122.7771 -69.737396 -64.758598 -59.7411"
         y="16.980301"
         sodipodi:role="line"
         id="tspan364">mVFT and FTf I/O-100</tspan></text><text
       transform="matrix(1,0,0,-1,403.2,243.1404)"
       style="font-variant:normal;font-weight:normal;font-stretch:normal;font-size:7.2px;font-family:Arial;-inkscape-font-specification:ArialMT;writing-mode:lr-tb;fill:#000000;fill-opacity:1;fill-rule:nonzero;stroke:none"
       id="text370"><tspan
         x="0 2.39976 6.3590398"
         y="0"
         sodipodi:role="line"
         id="tspan368">(1)</tspan></text><text
       transform="matrix(1,0,0,-1,457.98,239.5403)"
       style="font-variant:normal;font-weight:normal;font-stretch:normal;font-size:9px;font-family:Arial;-inkscape-font-specification:ArialMT;writing-mode:lr-tb;fill:#000000;fill-opacity:1;fill-rule:nonzero;stroke:none"
       id="text376"><tspan
         x="0"
         y="0"
         id="tspan372">-</tspan><tspan
         x="-261.60031 -255.5955 -248.59171 -241.58791 -236.0871 -122.8086 -69.768898 -64.7631 -59.757301"
         y="16.980301"
         sodipodi:role="line"
         id="tspan374">BOOT0-300</tspan></text><text
       transform="matrix(1,0,0,-1,403.2,226.1603)"
       style="font-variant:normal;font-weight:normal;font-stretch:normal;font-size:7.2px;font-family:Arial;-inkscape-font-specification:ArialMT;writing-mode:lr-tb;fill:#000000;fill-opacity:1;fill-rule:nonzero;stroke:none"
       id="text380"><tspan
         x="0 2.39976 6.3590398"
         y="0"
         sodipodi:role="line"
         id="tspan378">(1)</tspan></text><text
       transform="matrix(1,0,0,-1,457.98,222.5603)"
       style="font-variant:normal;font-weight:normal;font-stretch:normal;font-size:9px;font-family:Arial;-inkscape-font-specification:ArialMT;writing-mode:lr-tb;fill:#000000;fill-opacity:1;fill-rule:nonzero;stroke:none"
       id="text384"><tspan
         x="0"
         y="0"
         id="tspan382">-</tspan></text><path
       d="M 67.02,216.8 H 67.5 V 446.3 H 67.02 Z"
       style="fill:#000000;fill-opacity:1;fill-rule:nonzero;stroke:none"
       id="path386" /><path
       d="M 107.52,216.26 H 108 v 230.52 h -0.48 z"
       style="fill:#000000;fill-opacity:1;fill-rule:nonzero;stroke:none"
       id="path388" /><path
       d="m 193.14,216.26 h 0.48001 V 446.78 H 193.14 Z"
       style="fill:#000000;fill-opacity:1;fill-rule:nonzero;stroke:none"
       id="path390" /><path
       d="m 288.54,216.26 h 0.48001 V 446.78 H 288.54 Z"
       style="fill:#000000;fill-opacity:1;fill-rule:nonzero;stroke:none"
       id="path392" /><path
       d="m 384.3,216.26 h 0.47998 V 446.78 H 384.3 Z"
       style="fill:#000000;fill-opacity:1;fill-rule:nonzero;stroke:none"
       id="path394" /><path
       d="m 415.44,216.26 h 0.48001 V 446.78 H 415.44 Z"
       style="fill:#000000;fill-opacity:1;fill-rule:nonzero;stroke:none"
       id="path396" /><path
       d="m 502.98,216.26 h 0.48001 V 446.78 H 502.98 Z"
       style="fill:#000000;fill-opacity:1;fill-rule:nonzero;stroke:none"
       id="path398" /><path
       d="m 527.7,216.8 h 0.47998 V 446.3 H 527.7 Z"
       style="fill:#000000;fill-opacity:1;fill-rule:nonzero;stroke:none"
       id="path400" /><path
       d="m 67.02,446.3 h 461.16 v 0.48001 H 67.02 Z"
       style="fill:#000000;fill-opacity:1;fill-rule:nonzero;stroke:none"
       id="path402" /><path
       d="m 67.02,424.76 h 461.16 v 1.5 H 67.02 Z"
       style="fill:#000000;fill-opacity:1;fill-rule:nonzero;stroke:none"
       id="path404" /><path
       d="m 193.14,408.32 h 310.32 v 0.48001 H 193.14 Z"
       style="fill:#000000;fill-opacity:1;fill-rule:nonzero;stroke:none"
       id="path406" /><path
       d="m 193.14,391.28 h 310.32 v 0.47998 H 193.14 Z"
       style="fill:#000000;fill-opacity:1;fill-rule:nonzero;stroke:none"
       id="path408" /><path
       d="m 193.14,374.3 h 310.32 v 0.48001 H 193.14 Z"
       style="fill:#000000;fill-opacity:1;fill-rule:nonzero;stroke:none"
       id="path410" /><path
       d="m 67.02,346.28 h 461.16 v 0.48001 H 67.02 Z"
       style="fill:#000000;fill-opacity:1;fill-rule:nonzero;stroke:none"
       id="path412" /><path
       d="m 193.14,329.3 h 310.32 v 0.47998 H 193.14 Z"
       style="fill:#000000;fill-opacity:1;fill-rule:nonzero;stroke:none"
       id="path414" /><path
       d="m 193.14,312.32 h 310.32 v 0.48001 H 193.14 Z"
       style="fill:#000000;fill-opacity:1;fill-rule:nonzero;stroke:none"
       id="path416" /><path
       d="m 193.14,295.28 h 310.32 v 0.48001 H 193.14 Z"
       style="fill:#000000;fill-opacity:1;fill-rule:nonzero;stroke:none"
       id="path418" /><path
       d="m 67.02,267.32 h 461.16 v 0.48001 H 67.02 Z"
       style="fill:#000000;fill-opacity:1;fill-rule:nonzero;stroke:none"
       id="path420" /><path
       d="m 193.14,250.28 h 310.32 v 0.48 H 193.14 Z"
       style="fill:#000000;fill-opacity:1;fill-rule:nonzero;stroke:none"
       id="path422" /><path
       d="m 193.14,233.3 h 310.32 v 0.48001 H 193.14 Z"
       style="fill:#000000;fill-opacity:1;fill-rule:nonzero;stroke:none"
       id="path424" /><path
       d="m 67.02,216.32 h 461.16 v 0.48 H 67.02 Z"
       style="fill:#000000;fill-opacity:1;fill-rule:nonzero;stroke:none"
       id="path426" /><rect
       ry="0.34455913"
       rx="133.56194"
       transform="scale(1,-1)"
       y="-393.55258"
       x="191.41975"
       height="21.013945"
       width="329.06537"
       id="rect9905"
       style="fill:none;stroke:#ff0000;stroke-width:0.566929;stroke-linecap:round;stroke-linejoin:round;stroke-miterlimit:4;stroke-dasharray:2.26772, 1.13386;stroke-dashoffset:0" /><rect
       style="fill:none;stroke:#ff0000;stroke-width:0.566929;stroke-linecap:round;stroke-linejoin:round;stroke-miterlimit:4;stroke-dasharray:2.26772, 1.13386;stroke-dashoffset:0"
       id="rect9907"
       width="329.06537"
       height="21.013945"
       x="191.41975"
       y="-314.48929"
       transform="scale(1,-1)"
       rx="133.56194"
       ry="0.34455913" /></g></svg>
