<?xml version="1.0" encoding="UTF-8" standalone="no"?>
<!-- Generator: Adobe Illustrator 17.0.0, SVG Export Plug-In . SVG Version: 6.00 Build 0)  -->

<svg
   xmlns:dc="http://purl.org/dc/elements/1.1/"
   xmlns:cc="http://creativecommons.org/ns#"
   xmlns:rdf="http://www.w3.org/1999/02/22-rdf-syntax-ns#"
   xmlns:svg="http://www.w3.org/2000/svg"
   xmlns="http://www.w3.org/2000/svg"
   xmlns:sodipodi="http://sodipodi.sourceforge.net/DTD/sodipodi-0.dtd"
   xmlns:inkscape="http://www.inkscape.org/namespaces/inkscape"
   version="1.1"
   id="Layer_1"
   x="0px"
   y="0px"
   width="122.19204"
   height="56.692913"
   viewBox="0 0 122.19204 56.692913"
   enable-background="new 0 0 504 360"
   xml:space="preserve"
   sodipodi:docname="keebsLogo.svg"
   inkscape:version="0.92.4 5da689c313, 2019-01-14"><metadata
   id="metadata37"><rdf:RDF><cc:Work
       rdf:about=""><dc:format>image/svg+xml</dc:format><dc:type
         rdf:resource="http://purl.org/dc/dcmitype/StillImage" /><dc:title></dc:title></cc:Work></rdf:RDF></metadata><defs
   id="defs35" /><sodipodi:namedview
   pagecolor="#ffffff"
   bordercolor="#666666"
   borderopacity="1"
   objecttolerance="10"
   gridtolerance="10"
   guidetolerance="10"
   inkscape:pageopacity="0"
   inkscape:pageshadow="2"
   inkscape:window-width="1920"
   inkscape:window-height="1052"
   id="namedview33"
   showgrid="false"
   inkscape:zoom="3.8095238"
   inkscape:cx="85.57508"
   inkscape:cy="-16.507474"
   inkscape:window-x="1920"
   inkscape:window-y="294"
   inkscape:window-maximized="1"
   inkscape:current-layer="g30"
   fit-margin-top="0"
   fit-margin-left="0"
   fit-margin-right="0"
   fit-margin-bottom="0" />
<g
   id="g30"
   transform="translate(-117.691,-159.63009)">
	
	<rect
   style="fill:#ffffff;fill-opacity:1;stroke:#000006;stroke-width:0.89196849;stroke-linecap:round;stroke-linejoin:round;stroke-miterlimit:4;stroke-dasharray:none;stroke-dashoffset:0;stroke-opacity:1;paint-order:normal"
   id="rect856"
   width="161.11427"
   height="76.287987"
   x="93.550224"
   y="256.42654" /><g
   id="g28"
   style="fill:#000000;fill-opacity:1"
   transform="matrix(0.45488978,0,0,0.45488978,64.154567,117.91988)">
		<path
   d="m 243.921,108.609 c -0.71,7.469 -1.067,14.058 -1.067,19.579 v 52.168 h 17.983 V 108.07 h 11.928 V 91.693 h -36.319 l -40.954,42.731 -41.307,-42.731 h -36.143 v 16.378 h 11.928 v 72.285 h 17.983 v -52.168 c 0,-5.521 -0.357,-12.11 -1.067,-19.579 4.807,5.874 9.08,10.68 12.996,14.772 l 35.609,36.857 35.433,-36.857 c 4.099,-4.092 8.372,-9.075 12.997,-14.772 z"
   id="path20"
   style="fill:#000000;fill-opacity:1"
   inkscape:connector-curvature="0" />
		<path
   style="fill:#000000;fill-opacity:1"
   d="m 117.691,199.944 v 16.378 h 67.298 v -40.597 l -17.984,-19.941 v 44.16 z"
   id="polygon22"
   inkscape:connector-curvature="0" />
		<path
   d="m 345.893,152.221 35.076,-44.15 h 2.491 V 91.693 h -52.344 v 16.505 h 26.108 c -9.613,13.353 -20.411,28.536 -26.108,36.554 v 15.311 c 11.214,14.596 22.07,26.774 32.217,39.765 l -100.503,0.117 h -39.026 v -44.16 l -17.983,19.941 v 40.597 h 57.009 10.294 113.186 v -16.378 z"
   id="path24"
   style="fill:#000000;fill-opacity:1"
   inkscape:connector-curvature="0" />
		<path
   style="fill:#000000;fill-opacity:1"
   d="M 310.46,180.356 V 91.693 h -29.73 v 16.377 h 11.747 v 72.286 z"
   id="polygon26"
   inkscape:connector-curvature="0" />
	</g>
<g
   transform="matrix(0.37907482,0,0,0.37907482,74.376614,239.00757)"
   style="fill:#000000;fill-opacity:1"
   id="g852"
   inkscape:export-filename="/home/alvaro/Desktop/AcheronProject/KeebsPCB/graphics/keebsLogo.png"
   inkscape:export-xdpi="10000"
   inkscape:export-ydpi="10000">
		<path
   inkscape:connector-curvature="0"
   style="fill:#000000;fill-opacity:1"
   id="path844"
   d="m 243.921,108.609 c -0.71,7.469 -1.067,14.058 -1.067,19.579 v 52.168 h 17.983 V 108.07 h 11.928 V 91.693 h -36.319 l -40.954,42.731 -41.307,-42.731 h -36.143 v 16.378 h 11.928 v 72.285 h 17.983 v -52.168 c 0,-5.521 -0.357,-12.11 -1.067,-19.579 4.807,5.874 9.08,10.68 12.996,14.772 l 35.609,36.857 35.433,-36.857 c 4.099,-4.092 8.372,-9.075 12.997,-14.772 z" />
		<path
   style="fill:#000000;fill-opacity:1"
   d="m 117.691,216.322 h 67.298 v -40.597 l -17.984,-19.941 v 44.16 h -49.314 z"
   id="polygon846"
   inkscape:connector-curvature="0" />
		<path
   inkscape:connector-curvature="0"
   style="fill:#000000;fill-opacity:1"
   id="path848"
   d="m 345.893,152.221 35.076,-44.15 h 2.491 V 91.693 h -52.344 v 16.505 h 26.108 c -9.613,13.353 -20.411,28.536 -26.108,36.554 v 15.311 c 11.214,14.596 22.07,26.774 32.217,39.765 l -100.503,0.117 h -39.026 v -44.16 l -17.983,19.941 v 40.597 h 57.009 10.294 113.186 v -16.378 z" />
		<path
   style="fill:#000000;fill-opacity:1"
   d="m 310.46,91.693 h -29.73 v 16.377 h 11.747 v 72.286 h 17.983 z"
   id="polygon850"
   inkscape:connector-curvature="0" />
	</g></g>
</svg>