<?xml version="1.0" encoding="UTF-8" standalone="no"?>
<svg
   xmlns:dc="http://purl.org/dc/elements/1.1/"
   xmlns:cc="http://creativecommons.org/ns#"
   xmlns:rdf="http://www.w3.org/1999/02/22-rdf-syntax-ns#"
   xmlns:svg="http://www.w3.org/2000/svg"
   xmlns="http://www.w3.org/2000/svg"
   xmlns:sodipodi="http://sodipodi.sourceforge.net/DTD/sodipodi-0.dtd"
   xmlns:inkscape="http://www.inkscape.org/namespaces/inkscape"
   version="1.1"
   id="svg2"
   xml:space="preserve"
   width="2664.9419"
   height="1161.8884"
   viewBox="0 0 2664.9418 1161.8885"
   sodipodi:docname="acheronDocsWhite.svg"
   inkscape:version="1.0 (4035a4fb49, 2020-05-01)"
   inkscape:export-filename="/home/alvaro/Desktop/SharkPCB/sharkLogo/shark.png"
   inkscape:export-xdpi="1000"
   inkscape:export-ydpi="1000"><metadata
     id="metadata8"><rdf:RDF><cc:Work
         rdf:about=""><dc:format>image/svg+xml</dc:format><dc:type
           rdf:resource="http://purl.org/dc/dcmitype/StillImage" /><dc:title></dc:title></cc:Work></rdf:RDF></metadata><defs
     id="defs6" /><sodipodi:namedview
     pagecolor="#ffffff"
     bordercolor="#666666"
     borderopacity="1"
     objecttolerance="10"
     gridtolerance="10"
     guidetolerance="10"
     inkscape:pageopacity="0"
     inkscape:pageshadow="2"
     inkscape:window-width="1920"
     inkscape:window-height="1043"
     id="namedview4"
     showgrid="false"
     inkscape:zoom="0.21024132"
     inkscape:cx="2091.4028"
     inkscape:cy="1517.1749"
     inkscape:window-x="1920"
     inkscape:window-y="310"
     inkscape:window-maximized="1"
     inkscape:current-layer="g10"
     fit-margin-top="0"
     fit-margin-left="0"
     fit-margin-right="0"
     fit-margin-bottom="0"
     inkscape:snap-object-midpoints="true"
     inkscape:snap-center="true"
     inkscape:document-rotation="0" /><g
     id="g10"
     inkscape:groupmode="layer"
     inkscape:label="shark"
     transform="matrix(1.3333333,0,0,-1.3333333,-663.48982,1722.8449)"><flowRoot
       xml:space="preserve"
       id="flowRoot874"
       style="font-style:normal;font-weight:normal;font-size:40px;line-height:1.25;font-family:sans-serif;letter-spacing:0px;word-spacing:0px;fill:#353130;fill-opacity:1;stroke:none"
       transform="matrix(6.0843608,0,0,-6.0843608,6936.7487,1780.1295)"
       inkscape:export-xdpi="1000"
       inkscape:export-ydpi="1000"><flowRegion
         id="flowRegion870"
         style="fill:#353130;fill-opacity:1"><rect
           id="rect868"
           width="851.40259"
           height="596.93311"
           x="-1058.3077"
           y="254.81065"
           style="fill:#353130;fill-opacity:1" /></flowRegion><flowPara
         id="flowPara872"
         style="font-style:normal;font-variant:normal;font-weight:normal;font-stretch:normal;font-family:Pirulen;-inkscape-font-specification:Pirulen;fill:#353130;fill-opacity:1">acheron</flowPara></flowRoot><flowRoot
       inkscape:export-ydpi="1000"
       inkscape:export-xdpi="1000"
       transform="matrix(2.0578738,0,0,-2.0578738,4356.5364,724.90748)"
       style="font-style:normal;font-weight:normal;font-size:40px;line-height:1.25;font-family:sans-serif;letter-spacing:0px;word-spacing:0px;fill:#353130;fill-opacity:1;stroke:none"
       id="flowRoot882"
       xml:space="preserve"><flowRegion
         style="fill:#353130;fill-opacity:1"
         id="flowRegion878"><rect
           style="fill:#353130;fill-opacity:1"
           y="254.81065"
           x="-1058.3077"
           height="596.93311"
           width="851.40259"
           id="rect876" /></flowRegion><flowPara
         style="font-style:normal;font-variant:normal;font-weight:normal;font-stretch:normal;font-family:Pirulen;-inkscape-font-specification:Pirulen;fill:#353130;fill-opacity:1"
         id="flowPara880">docs</flowPara></flowRoot><g
       id="g894"
       transform="matrix(0.56458802,0,0,0.56458802,-1521.8986,-116.47364)" /><g
       transform="matrix(2.8346457,0,0,-2.8346457,1670.5047,-140.87111)"
       id="layer1"
       inkscape:label="Layer 1"
       style="fill:#353130;fill-opacity:1;stroke:none;stroke-opacity:1"><flowRoot
         transform="scale(0.26458333)"
         style="font-style:normal;font-variant:normal;font-weight:normal;font-stretch:normal;font-size:40px;line-height:1.25;font-family:optima;-inkscape-font-specification:optima;letter-spacing:0px;word-spacing:0px;fill:#353130;fill-opacity:1;stroke:none;stroke-opacity:1"
         id="flowRoot815"
         xml:space="preserve"><flowRegion
           style="font-style:normal;font-variant:normal;font-weight:normal;font-stretch:normal;font-family:optima;-inkscape-font-specification:optima;fill:#353130;fill-opacity:1;stroke:none;stroke-opacity:1"
           id="flowRegion817"><rect
             style="font-style:normal;font-variant:normal;font-weight:normal;font-stretch:normal;font-family:optima;-inkscape-font-specification:optima;stroke:none;stroke-opacity:1;fill:#353130;fill-opacity:1"
             y="339.66254"
             x="-634.28571"
             height="371.42856"
             width="697.14288"
             id="rect819" /></flowRegion><flowPara
           style="font-style:normal;font-variant:normal;font-weight:normal;font-stretch:normal;font-family:optima;-inkscape-font-specification:optima;fill:#353130;fill-opacity:1;stroke:none;stroke-opacity:1"
           id="flowPara821" /></flowRoot><text
         id="text825"
         y="103.2872"
         x="-118.49554"
         style="font-style:normal;font-variant:normal;font-weight:normal;font-stretch:normal;font-size:10.5833px;line-height:1.25;font-family:optima;-inkscape-font-specification:optima;letter-spacing:0px;word-spacing:0px;fill:#353130;fill-opacity:1;stroke:none;stroke-width:0.264583;stroke-opacity:1"
         xml:space="preserve" /><flowRoot
         style="font-style:normal;font-weight:normal;font-size:40px;line-height:1.25;font-family:sans-serif;letter-spacing:0px;word-spacing:0px;fill:#353130;fill-opacity:1;stroke:none;stroke-opacity:1"
         id="flowRoot843"
         xml:space="preserve"><flowRegion
           id="flowRegion845"
           style="fill:#353130;fill-opacity:1;stroke:none;stroke-opacity:1"><rect
             y="472.51968"
             x="-550.71429"
             height="292.14285"
             width="296.42856"
             id="rect847"
             style="stroke:none;stroke-opacity:1;fill:#353130;fill-opacity:1" /></flowRegion><flowPara
           id="flowPara849" /></flowRoot><g
         id="g984"
         transform="matrix(0.26458333,0,0,0.26458333,-727.61969,-953.207)"
         style="fill:#353130;fill-opacity:1;stroke:none;stroke-opacity:1"><g
           inkscape:export-ydpi="1000"
           inkscape:export-xdpi="1000"
           transform="matrix(1.5233393,0,0,1.5233393,-1721.6743,-2044.9498)"
           id="g838"
           style="fill:#353130;fill-opacity:1;stroke:none;stroke-opacity:1"><path
             style="fill:#353130;fill-opacity:1;stroke:none;stroke-width:1.35792;stroke-linecap:butt;stroke-linejoin:miter;stroke-miterlimit:4;stroke-dasharray:none;stroke-opacity:1"
             d="m 2792.0717,4011.5151 c -2.3522,-9.9751 -17.1,-75.07 -5.0524,-83.4108 0,0 44.7473,-14.6379 91.0024,-45.866 l 0.2844,48.3769 -72.7855,47.2794 c 6.8489,46.5321 -4.6947,206.4809 -4.5402,206.371 92.1089,-65.5525 102.3963,-138.8287 102.3492,-138.9698 -11.5872,-34.8134 -19.408,-82.147 9.2696,-95.5071 0.086,-11.1471 -1.7272,-13.4907 -8.5141,-21.6844 17.0781,-125.4819 -22.3593,-202.9669 -119.295,-243.17 -17.7104,-12.2296 -20.4459,-21.1627 -20.4459,-21.1627 0,0 -2.7358,8.9331 -20.4462,21.1627 -96.9357,40.2031 -136.3729,117.6881 -119.295,243.17 -6.7866,8.1937 -8.5995,10.5373 -8.5141,21.6844 28.6776,13.3601 20.8568,60.6937 9.2695,95.5071 -0.046,0.14 10.2403,73.4173 102.3492,138.9698 0.1536,0.1105 -11.3891,-159.8389 -4.5402,-206.371 l -34.4846,-22.3509 -14.5202,56.888 0.9339,-65.3562 -24.7145,-16.4603 0.2844,-48.3769 c 12.3672,8.3494 21.3959,13.6426 32.7211,19.6574 1.362,0.7234 16.3198,-53.5307 16.3198,-53.5307 0,0 -5.447,59.3057 -4.5502,59.7614 27.696,14.0888 46.5128,19.9779 46.5128,19.9779 12.0475,8.3408 -2.7002,73.4357 -5.0524,83.4108 -0.2047,0.8658 27.7278,29.8372 27.7278,29.8372 0,0 27.9316,-28.9714 27.7275,-29.8372 z"
             id="path831"
             inkscape:connector-curvature="0"
             sodipodi:nodetypes="cccccsscccccccssccccccscscscsc" /></g></g></g><g
       style="font-style:normal;font-weight:normal;font-size:40px;line-height:1.25;font-family:sans-serif;letter-spacing:0px;word-spacing:0px;fill:#ffffff;fill-opacity:1;stroke:none"
       id="flowRoot5039"
       transform="matrix(6.0843608,0,0,-6.0843608,6936.7487,2886.5438)"
       aria-label="acheron"><path
         id="path873"
         style="font-style:normal;font-variant:normal;font-weight:normal;font-stretch:normal;font-family:Pirulen;-inkscape-font-specification:Pirulen;fill:#ffffff;fill-opacity:1"
         d="m -1058.3086,290.21055 z m 35.2,0 -14.52,-22.68 -14.76,22.68 h -5.92 l 18.72,-28.16 h 3.88 l 18.6,28.16 z" /><path
         id="path875"
         style="font-style:normal;font-variant:normal;font-weight:normal;font-stretch:normal;font-family:Pirulen;-inkscape-font-specification:Pirulen;fill:#ffffff;fill-opacity:1"
         d="m -1014.7086,290.21055 z m 8.84,0 q -2.4,0 -4.08,-0.48 -1.68,-0.52 -2.76,-1.4 -1.04,-0.92 -1.52,-2.16 -0.48,-1.24 -0.48,-2.76 v -14.56 q 0,-1.52 0.48,-2.76 0.48,-1.24 1.52,-2.12 1.08,-0.92 2.76,-1.4 1.68,-0.52 4.08,-0.52 h 22.67996 v 4.16 h -22.67996 q -3.52,0 -3.52,2.6 v 14.64 q 0,2.6 3.52,2.6 h 22.67996 v 4.16 z" /><path
         id="path877"
         style="font-style:normal;font-variant:normal;font-weight:normal;font-stretch:normal;font-family:Pirulen;-inkscape-font-specification:Pirulen;fill:#ffffff;fill-opacity:1"
         d="m -978.7087,290.21055 z m 28.36,0 v -12.8 h -23.04 v 12.8 h -5.32 v -28.16 h 5.32 v 11.2 h 23.04 v -11.2 h 5.32 v 28.16 z" /><path
         id="path879"
         style="font-style:normal;font-variant:normal;font-weight:normal;font-stretch:normal;font-family:Pirulen;-inkscape-font-specification:Pirulen;fill:#ffffff;fill-opacity:1"
         d="m -939.82877,290.21055 z m 0,0 v -28.16 h 28.96 v 4.16 h -23.64 v 7.04 h 22.44 v 4.16 h -22.44 v 8.64 h 23.64 v 4.16 z" /><path
         id="path881"
         style="font-style:normal;font-variant:normal;font-weight:normal;font-stretch:normal;font-family:Pirulen;-inkscape-font-specification:Pirulen;fill:#ffffff;fill-opacity:1"
         d="m -906.34878,290.21055 z m 26.76,0 -6.6,-12.56 h -14.84 v 12.56 h -5.32 v -28.16 h 23.92 q 2.4,0 4.08,0.52 1.68,0.48 2.72,1.4 1.08,0.88 1.56,2.12 0.48,1.24 0.48,2.76 v 2 q 0,2.72 -1.6,4.56 -1.6,1.8 -5.36,2.16 l 6.64,12.64 z m 0.68,-21.4 q 0,-2.6 -3.52,-2.6 h -18.6 v 7.28 h 18.6 q 3.52,0 3.52,-2.6 z" /><path
         id="path883"
         style="font-style:normal;font-variant:normal;font-weight:normal;font-stretch:normal;font-family:Pirulen;-inkscape-font-specification:Pirulen;fill:#ffffff;fill-opacity:1"
         d="m -869.50883,290.21055 z m 8.84,0 q -2.4,0 -4.08,-0.48 -1.68,-0.52 -2.76,-1.4 -1.04,-0.92 -1.52,-2.16 -0.48,-1.24 -0.48,-2.76 v -14.56 q 0,-1.52 0.48,-2.76 0.48,-1.24 1.52,-2.12 1.08,-0.92 2.76,-1.4 1.68,-0.52 4.08,-0.52 h 18.6 q 2.4,0 4.08,0.52 1.68,0.48 2.72,1.4 1.08,0.88 1.56,2.12 0.48,1.24 0.48,2.76 v 14.56 q 0,1.52 -0.48,2.76 -0.48,1.24 -1.56,2.16 -1.04,0.88 -2.72,1.4 -1.68,0.48 -4.08,0.48 z m 22.12,-21.4 q 0,-2.6 -3.52,-2.6 h -18.6 q -3.52,0 -3.52,2.6 v 14.64 q 0,2.6 3.52,2.6 h 18.6 q 3.52,0 3.52,-2.6 z" /><path
         id="path885"
         style="font-style:normal;font-variant:normal;font-weight:normal;font-stretch:normal;font-family:Pirulen;-inkscape-font-specification:Pirulen;fill:#ffffff;fill-opacity:1"
         d="m -828.22889,290.21055 z m 34.68,0 -30.04,-21.92 v 21.92 h -4.64 v -28.16 h 4.6 l 28.04,20.92 v -20.92 h 4.64 v 28.16 z" /></g><g
       style="font-style:normal;font-weight:normal;font-size:40px;line-height:1.25;font-family:sans-serif;letter-spacing:0px;word-spacing:0px;fill:#ffffff;fill-opacity:1;stroke:none"
       id="flowRoot5047"
       transform="matrix(2.0578738,0,0,-2.0578738,4356.5364,1831.3217)"
       aria-label="docs"><path
         id="path888"
         style="font-style:normal;font-variant:normal;font-weight:normal;font-stretch:normal;font-family:Pirulen;-inkscape-font-specification:Pirulen;fill:#ffffff;fill-opacity:1"
         d="m -1055.7086,290.21055 z m 0,0 v -28.16 h 25.8 q 3,0 5,0.52 2,0.52 3.2,1.56 1.2,1.04 1.68,2.6 0.52,1.56 0.52,3.64 v 11.8 q 0,2 -0.52,3.52 -0.48,1.48 -1.68,2.48 -1.2,1 -3.2,1.52 -2,0.52 -5,0.52 z m 30.88,-19.84 q 0,-1.2 -0.24,-2 -0.24,-0.8 -0.84,-1.28 -0.56,-0.48 -1.56,-0.68 -0.96,-0.2 -2.44,-0.2 h -20.48 v 19.84 h 20.48 q 1.48,0 2.44,-0.2 1,-0.2 1.56,-0.64 0.6,-0.44 0.84,-1.2 0.24,-0.76 0.24,-1.88 z" /><path
         id="path890"
         style="font-style:normal;font-variant:normal;font-weight:normal;font-stretch:normal;font-family:Pirulen;-inkscape-font-specification:Pirulen;fill:#ffffff;fill-opacity:1"
         d="m -1014.7086,290.21055 z m 8.84,0 q -2.4,0 -4.08,-0.48 -1.68,-0.52 -2.76,-1.4 -1.04,-0.92 -1.52,-2.16 -0.48,-1.24 -0.48,-2.76 v -14.56 q 0,-1.52 0.48,-2.76 0.48,-1.24 1.52,-2.12 1.08,-0.92 2.76,-1.4 1.68,-0.52 4.08,-0.52 h 18.59996 q 2.4,0 4.08,0.52 1.68,0.48 2.72,1.4 1.08,0.88 1.56,2.12 0.48,1.24 0.48,2.76 v 14.56 q 0,1.52 -0.48,2.76 -0.48,1.24 -1.56,2.16 -1.04,0.88 -2.72,1.4 -1.68,0.48 -4.08,0.48 z m 22.11996,-21.4 q 0,-2.6 -3.52,-2.6 h -18.59996 q -3.52,0 -3.52,2.6 v 14.64 q 0,2.6 3.52,2.6 h 18.59996 q 3.52,0 3.52,-2.6 z" /><path
         id="path892"
         style="font-style:normal;font-variant:normal;font-weight:normal;font-stretch:normal;font-family:Pirulen;-inkscape-font-specification:Pirulen;fill:#ffffff;fill-opacity:1"
         d="m -973.6287,290.21055 z m 8.84,0 q -2.4,0 -4.08,-0.48 -1.68,-0.52 -2.76,-1.4 -1.04,-0.92 -1.52,-2.16 -0.48,-1.24 -0.48,-2.76 v -14.56 q 0,-1.52 0.48,-2.76 0.48,-1.24 1.52,-2.12 1.08,-0.92 2.76,-1.4 1.68,-0.52 4.08,-0.52 h 22.68 v 4.16 h -22.68 q -3.52,0 -3.52,2.6 v 14.64 q 0,2.6 3.52,2.6 h 22.68 v 4.16 z" /><path
         id="path894"
         style="font-style:normal;font-variant:normal;font-weight:normal;font-stretch:normal;font-family:Pirulen;-inkscape-font-specification:Pirulen;fill:#ffffff;fill-opacity:1"
         d="m -938.18876,290.21055 z m 0.92,0 v -4.16 h 24.48 q 3.52,0 3.52,-2.6 v -3.56 q 0,-2.6 -3.52,-2.6 h -16.56 q -2.4,0 -4.08,-0.48 -1.68,-0.52 -2.76,-1.4 -1.04,-0.92 -1.52,-2.16 -0.48,-1.24 -0.48,-2.76 v -1.64 q 0,-1.52 0.48,-2.76 0.48,-1.24 1.52,-2.12 1.08,-0.92 2.76,-1.4 1.68,-0.52 4.08,-0.52 h 23.84 v 4.16 h -23.84 q -3.52,0 -3.52,2.6 v 1.72 q 0,2.6 3.52,2.6 h 16.56 q 2.4,0 4.08,0.52 1.68,0.48 2.72,1.4 1.08,0.88 1.56,2.12 0.48,1.24 0.48,2.76 v 3.48 q 0,1.52 -0.48,2.76 -0.48,1.24 -1.56,2.16 -1.04,0.88 -2.72,1.4 -1.68,0.48 -4.08,0.48 z" /></g><g
       style="fill:#ffffff;fill-opacity:1;stroke:none;stroke-opacity:1"
       inkscape:label="Layer 1"
       id="g5073"
       transform="matrix(2.8346457,0,0,-2.8346457,1670.5047,965.54315)"><g
         style="font-style:normal;font-variant:normal;font-weight:normal;font-stretch:normal;font-size:40px;line-height:1.25;font-family:optima;-inkscape-font-specification:optima;letter-spacing:0px;word-spacing:0px;fill:#ffffff;fill-opacity:1;stroke:none;stroke-opacity:1"
         id="flowRoot5055"
         transform="scale(0.26458333)" /><g
         style="font-style:normal;font-variant:normal;font-weight:normal;font-stretch:normal;font-size:10.5833px;line-height:1.25;font-family:optima;-inkscape-font-specification:optima;letter-spacing:0px;word-spacing:0px;fill:#ffffff;fill-opacity:1;stroke:none;stroke-width:0.264583;stroke-opacity:1"
         id="text5057" /><g
         style="font-style:normal;font-weight:normal;font-size:40px;line-height:1.25;font-family:sans-serif;letter-spacing:0px;word-spacing:0px;fill:#ffffff;fill-opacity:1;stroke:none;stroke-opacity:1"
         id="flowRoot5065" /><g
         style="fill:#ffffff;fill-opacity:1;stroke:none;stroke-opacity:1"
         transform="matrix(0.26458333,0,0,0.26458333,-727.61969,-953.207)"
         id="g5071"><g
           style="fill:#ffffff;fill-opacity:1;stroke:none;stroke-opacity:1"
           id="g5069"
           transform="matrix(1.5233393,0,0,1.5233393,-1721.6743,-2044.9498)"
           inkscape:export-xdpi="1000"
           inkscape:export-ydpi="1000"><path
             sodipodi:nodetypes="cccccsscccccccssccccccscscscsc"
             inkscape:connector-curvature="0"
             id="path5067"
             d="m 2792.0717,4011.5151 c -2.3522,-9.9751 -17.1,-75.07 -5.0524,-83.4108 0,0 44.7473,-14.6379 91.0024,-45.866 l 0.2844,48.3769 -72.7855,47.2794 c 6.8489,46.5321 -4.6947,206.4809 -4.5402,206.371 92.1089,-65.5525 102.3963,-138.8287 102.3492,-138.9698 -11.5872,-34.8134 -19.408,-82.147 9.2696,-95.5071 0.086,-11.1471 -1.7272,-13.4907 -8.5141,-21.6844 17.0781,-125.4819 -22.3593,-202.9669 -119.295,-243.17 -17.7104,-12.2296 -20.4459,-21.1627 -20.4459,-21.1627 0,0 -2.7358,8.9331 -20.4462,21.1627 -96.9357,40.2031 -136.3729,117.6881 -119.295,243.17 -6.7866,8.1937 -8.5995,10.5373 -8.5141,21.6844 28.6776,13.3601 20.8568,60.6937 9.2695,95.5071 -0.046,0.14 10.2403,73.4173 102.3492,138.9698 0.1536,0.1105 -11.3891,-159.8389 -4.5402,-206.371 l -34.4846,-22.3509 -14.5202,56.888 0.9339,-65.3562 -24.7145,-16.4603 0.2844,-48.3769 c 12.3672,8.3494 21.3959,13.6426 32.7211,19.6574 1.362,0.7234 16.3198,-53.5307 16.3198,-53.5307 0,0 -5.447,59.3057 -4.5502,59.7614 27.696,14.0888 46.5128,19.9779 46.5128,19.9779 12.0475,8.3408 -2.7002,73.4357 -5.0524,83.4108 -0.2047,0.8658 27.7278,29.8372 27.7278,29.8372 0,0 27.9316,-28.9714 27.7275,-29.8372 z"
             style="fill:#ffffff;fill-opacity:1;stroke:none;stroke-width:1.35792;stroke-linecap:butt;stroke-linejoin:miter;stroke-miterlimit:4;stroke-dasharray:none;stroke-opacity:1" /></g></g></g></g></svg>
