<?xml version="1.0" encoding="UTF-8" standalone="no"?>
<!-- Created with Inkscape (http://www.inkscape.org/) -->

<svg
   xmlns:dc="http://purl.org/dc/elements/1.1/"
   xmlns:cc="http://creativecommons.org/ns#"
   xmlns:rdf="http://www.w3.org/1999/02/22-rdf-syntax-ns#"
   xmlns:svg="http://www.w3.org/2000/svg"
   xmlns="http://www.w3.org/2000/svg"
   xmlns:sodipodi="http://sodipodi.sourceforge.net/DTD/sodipodi-0.dtd"
   xmlns:inkscape="http://www.inkscape.org/namespaces/inkscape"
   width="23.624352mm"
   height="2.9999971mm"
   viewBox="0 0 23.624351 2.9999971"
   version="1.1"
   id="svg8"
   inkscape:version="0.92.4 5da689c313, 2019-01-14"
   sodipodi:docname="elongateLogo.svg">
  <defs
     id="defs2" />
  <sodipodi:namedview
     id="base"
     pagecolor="#ffffff"
     bordercolor="#666666"
     borderopacity="1.0"
     inkscape:pageopacity="0.0"
     inkscape:pageshadow="2"
     inkscape:zoom="15.839192"
     inkscape:cx="50.074376"
     inkscape:cy="17.223062"
     inkscape:document-units="mm"
     inkscape:current-layer="layer1"
     showgrid="false"
     inkscape:window-width="1024"
     inkscape:window-height="1226"
     inkscape:window-x="3840"
     inkscape:window-y="26"
     inkscape:window-maximized="1"
     fit-margin-top="0"
     fit-margin-left="0"
     fit-margin-right="0"
     fit-margin-bottom="0" />
  <metadata
     id="metadata5">
    <rdf:RDF>
      <cc:Work
         rdf:about="">
        <dc:format>image/svg+xml</dc:format>
        <dc:type
           rdf:resource="http://purl.org/dc/dcmitype/StillImage" />
        <dc:title></dc:title>
      </cc:Work>
    </rdf:RDF>
  </metadata>
  <g
     inkscape:label="Layer 1"
     inkscape:groupmode="layer"
     id="layer1"
     transform="translate(-62.621248,-138.49069)">
    <g
       id="g859"
       transform="matrix(0.5,0,0,0.5,37.130445,70.053152)"
       inkscape:export-xdpi="1000"
       inkscape:export-ydpi="1000">
      <g
         inkscape:export-ydpi="10000"
         inkscape:export-xdpi="10000"
         id="flowRoot890"
         style="font-style:normal;font-variant:normal;font-weight:normal;font-stretch:normal;font-size:40px;line-height:1.25;font-family:Pirulen;-inkscape-font-specification:Pirulen;letter-spacing:0px;word-spacing:0px;fill:#000000;fill-opacity:1;stroke:none"
         transform="matrix(0.18936338,0,0,0.18936338,88.903028,54.821038)"
         aria-label="E">
        <path
           inkscape:connector-curvature="0"
           id="path930"
           d="m -200.25742,463.63437 v -28.16 h 28.96 v 4.16 h -23.64 v 7.04 h 22.44 v 4.16 h -22.44 v 8.64 h 23.64 v 4.16 z" />
      </g>
      <g
         inkscape:export-ydpi="10000"
         inkscape:export-xdpi="10000"
         id="flowRoot898"
         style="font-style:normal;font-variant:normal;font-weight:normal;font-stretch:normal;font-size:40px;line-height:1.25;font-family:Pirulen;-inkscape-font-specification:Pirulen;letter-spacing:0px;word-spacing:0px;fill:#000000;fill-opacity:1;stroke:none"
         transform="matrix(0.12822798,0,0,0.12822798,82.925873,82.237099)"
         aria-label="LON">
        <path
           inkscape:connector-curvature="0"
           id="path923"
           d="m -200.25742,463.63437 v -28.16 h 5.36 v 24 h 22.84 v 4.16 z" />
        <path
           inkscape:connector-curvature="0"
           id="path925"
           d="m -160.44555,463.63437 q -2.4,0 -4.08,-0.48 -1.68,-0.52 -2.76,-1.4 -1.04,-0.92 -1.52,-2.16 -0.48,-1.24 -0.48,-2.76 v -14.56 q 0,-1.52 0.48,-2.76 0.48,-1.24 1.52,-2.12 1.08,-0.92 2.76,-1.4 1.68,-0.52 4.08,-0.52 h 18.6 q 2.4,0 4.08,0.52 1.68,0.48 2.72,1.4 1.08,0.88 1.56,2.12 0.48,1.24 0.48,2.76 v 14.56 q 0,1.52 -0.48,2.76 -0.48,1.24 -1.56,2.16 -1.04,0.88 -2.72,1.4 -1.68,0.48 -4.08,0.48 z m 22.12,-21.4 q 0,-2.6 -3.52,-2.6 h -18.6 q -3.52,0 -3.52,2.6 v 14.64 q 0,2.6 3.52,2.6 h 18.6 q 3.52,0 3.52,-2.6 z" />
        <path
           inkscape:connector-curvature="0"
           id="path927"
           d="m -93.311797,463.63437 -30.040003,-21.92 v 21.92 h -4.64 v -28.16 h 4.6 l 28.040003,20.92 v -20.92 h 4.64 v 28.16 z" />
      </g>
      <g
         inkscape:export-ydpi="10000"
         inkscape:export-xdpi="10000"
         id="flowRoot906"
         style="font-style:normal;font-variant:normal;font-weight:normal;font-stretch:normal;font-size:40px;line-height:1.25;font-family:Pirulen;-inkscape-font-specification:Pirulen;letter-spacing:0px;word-spacing:0px;fill:#000000;fill-opacity:1;stroke:none"
         transform="matrix(0.18936338,0,0,0.18936338,110.51832,54.821038)"
         aria-label="GATE">
        <path
           inkscape:connector-curvature="0"
           id="path914"
           d="m -190.41742,463.63437 q -10.04,0 -10.04,-6.08 v -16 q 0,-6.08 10.04,-6.08 h 22.04 v 4.16 h -22.04 q -4.72,0 -4.72,1.92 v 16 q 0,1.92 4.72,1.92 h 12.44 q 4.72,0 4.72,-1.84 v -9.36 h 5.32 v 9.36 q 0,6 -10.04,6 z" />
        <path
           inkscape:connector-curvature="0"
           id="path916"
           d="m -131.79805,463.63437 -14.52,-22.68 -14.76,22.68 h -5.92 l 18.72,-28.16 h 3.88 l 18.6,28.16 z" />
        <path
           inkscape:connector-curvature="0"
           id="path918"
           d="m -117.0993,463.63437 v -24 h -14.76 v -4.16 h 34.440003 v 4.16 H -111.7793 v 24 z" />
        <path
           inkscape:connector-curvature="0"
           id="path920"
           d="m -93.851172,463.63437 v -28.16 h 28.96 v 4.16 h -23.64 v 7.04 h 22.44 v 4.16 h -22.44 v 8.64 h 23.64 v 4.16 z" />
      </g>
      <path
         inkscape:export-ydpi="10000"
         inkscape:export-xdpi="10000"
         style="fill:none;stroke:#000000;stroke-width:0.71570414;stroke-linecap:butt;stroke-linejoin:miter;stroke-miterlimit:4;stroke-dasharray:none;stroke-opacity:1"
         d="m 56.952463,137.23292 h 14.63337"
         id="path908"
         inkscape:connector-curvature="0"
         sodipodi:nodetypes="cc" />
      <path
         inkscape:export-ydpi="10000"
         inkscape:export-xdpi="10000"
         inkscape:connector-curvature="0"
         id="path910"
         d="m 56.952463,142.51721 h 14.63337"
         style="fill:none;stroke:#000000;stroke-width:0.71570414;stroke-linecap:butt;stroke-linejoin:miter;stroke-miterlimit:4;stroke-dasharray:none;stroke-opacity:1"
         sodipodi:nodetypes="cc" />
      <rect
         inkscape:export-ydpi="10000"
         inkscape:export-xdpi="10000"
         ry="0"
         rx="0"
         y="137.84894"
         x="63.2733"
         height="4.1109629"
         width="0.58855957"
         id="rect39"
         style="opacity:1;fill:#ffffff;fill-opacity:1;stroke:none;stroke-width:0.73755509;stroke-linecap:round;stroke-linejoin:round;stroke-miterlimit:4;stroke-dasharray:none;stroke-dashoffset:0;stroke-opacity:1" />
    </g>
  </g>
</svg>
