<?xml version="1.0" encoding="UTF-8" standalone="no"?>
<svg
   xmlns:dc="http://purl.org/dc/elements/1.1/"
   xmlns:cc="http://creativecommons.org/ns#"
   xmlns:rdf="http://www.w3.org/1999/02/22-rdf-syntax-ns#"
   xmlns:svg="http://www.w3.org/2000/svg"
   xmlns="http://www.w3.org/2000/svg"
   xmlns:sodipodi="http://sodipodi.sourceforge.net/DTD/sodipodi-0.dtd"
   xmlns:inkscape="http://www.inkscape.org/namespaces/inkscape"
   version="1.1"
   viewBox="0 0 177.31537 177.31537"
   enable-background="new 0 0 454.11 454.11"
   id="svg48"
   sodipodi:docname="foxLogo.svg"
   inkscape:version="0.92.4 5da689c313, 2019-01-14"
   width="177.31537"
   height="177.31537">
  <metadata
     id="metadata54">
    <rdf:RDF>
      <cc:Work
         rdf:about="">
        <dc:format>image/svg+xml</dc:format>
        <dc:type
           rdf:resource="http://purl.org/dc/dcmitype/StillImage" />
        <dc:title></dc:title>
      </cc:Work>
    </rdf:RDF>
  </metadata>
  <defs
     id="defs52">
    <clipPath
       clipPathUnits="userSpaceOnUse"
       id="clipPath1744">
      <g
         id="use1746"
         inkscape:label="Clip">
        <g
           id="g883">
          <path
             style="fill:#ff0000;fill-opacity:1;stroke:none;stroke-width:3.77952766;stroke-linecap:round;stroke-linejoin:round;stroke-miterlimit:4;stroke-dasharray:none;stroke-dashoffset:0;stroke-opacity:1"
             d="m 3476.8583,-28.005481 c -0.9879,-0.0113 -1.9872,0.0582 -2.9922,0.20899 -4.313,0.647 -8.1696,2.78675 -10.9766,5.96875 l 63.9961,55.94336 c 10.539,9.214 15.3959,23.03626 13.3789,36.44726 5.122,-1.044 8.3861,-1.29655 8.5801,-1.31055 3.296,-0.244 6.1789,2.23992 6.4219,5.544931 0.243,3.302 -2.2342,6.17582 -5.5332,6.42382 -0.058,0.004 -5.8547,0.47064 -14.0567,2.80664 -18.622,5.307 -43.0643,17.97904 -53.7363,48.20704 -1.834,5.204 -3.8428,10.1586 -5.9688,14.7246 -7.192,15.455 -15.0844,24.98057 -22.1074,30.85157 6.144,-0.2 12.3177,-1.53291 16.5137,-5.12891 2.14,-1.833 5.2686,-1.93233 7.5176,-0.23633 2.25,1.696 3.0177,4.72902 1.8437,7.29102 -5.612,12.244 -17.3225,20.78778 -28.6465,29.05078 -10.05,7.334 -20.3652,14.86158 -26.7402,25.01758 11.129,1.296 19.6909,9.70845 20.1719,10.18945 1.691,1.691 2.2169,4.22522 1.3379,6.44922 -0.65,1.645 -14.6368,36.518 -37.3418,54.5 26.833,14.427 51.094,12.34226 74.625,10.32226 21.744,-1.867 42.5693,-3.63882 61.5293,8.82618 -10.863,-18.975 -28.0304,-24.29096 -42.4864,-28.75196 -6.994,-2.158 -13.0331,-4.02267 -17.4531,-7.26367 -18.043,-13.231 -12.5174,-36.31892 -12.2734,-37.29492 0.804,-3.214 4.0653,-5.17023 7.2773,-4.36523 3.215,0.804 5.1693,4.06234 4.3653,7.27734 -0.152,0.637 -3.7575,16.28403 7.7285,24.70703 2.792,2.047 7.9365,3.63366 13.8945,5.47266 19.472,6.009 48.8984,15.08993 58.5254,58.83593 0.809,3.675 1.4773,7.64579 1.9863,11.80079 1.367,11.27 6.7258,19.08067 16.3828,23.88867 7.858,3.912 18.52,5.81369 31.711,5.67968 v -4.03515 c -3.402,-0.504 -6.6965,-1.63238 -9.6895,-3.35938 -4.162,-2.402 -7.6321,-5.87215 -10.0351,-10.03515 v -0.01 l -0.4297,-0.75 c -4.604,-7.984 -3.7709,-18.13876 2.0781,-25.25976 2.1,-2.548 4.764,-4.62377 7.707,-6.00977 2.535,-1.199 5.3266,-1.90994 8.1446,-2.08594 l 12.457,-0.002 c 6.182,0.374 11.9024,3.27761 15.8594,8.09961 3.259,3.959 5.0566,8.97795 5.0566,14.12695 0,3.906 -1.0314,7.75863 -2.9844,11.14063 l -0.4238,0.73828 c -4.209,7.292 -11.5462,12.18825 -19.7402,13.40625 v 4.03711 c 29.872,0.346 45.6485,-9.33845 48.1035,-29.56446 0.509,-4.16 1.1783,-8.12868 1.9863,-11.80468 9.628,-43.747 39.0534,-52.82694 58.5254,-58.83594 5.959,-1.839 11.1035,-3.42661 13.8965,-5.47461 11.616,-8.518 7.7676,-24.54408 7.7266,-24.70508 -0.804,-3.215 1.1502,-6.47334 4.3652,-7.27734 3.208,-0.803 6.4733,1.15023 7.2773,4.36523 0.244,0.977 5.7696,24.06393 -12.2734,37.29492 -4.421,3.241 -10.4601,5.10568 -17.4531,7.26368 -14.457,4.461 -31.6224,9.775 -42.4864,28.75 18.961,-12.466 39.7863,-10.69222 61.5293,-8.82422 23.532,2.021 47.791,4.10383 74.627,-10.32617 -22.705,-17.982 -36.6938,-52.85305 -37.3438,-54.49805 -0.879,-2.224 -0.3531,-4.75822 1.3379,-6.44922 0.481,-0.481 9.0459,-8.89145 20.1739,-10.18945 -6.375,-10.157 -16.6903,-17.68458 -26.7403,-25.01758 -11.325,-8.263 -23.0335,-16.80778 -28.6445,-29.05078 -1.174,-2.562 -0.4073,-5.59502 1.8437,-7.29102 2.25,-1.698 5.3767,-1.59862 7.5157,0.23438 4.219,3.616 10.4009,4.95334 16.5429,5.15234 -7.031,-5.869 -14.9347,-15.398 -22.1367,-30.875 -2.128,-4.569 -4.1377,-9.52551 -5.9707,-14.72851 -11.339,-32.123 -38.9533,-44.10858 -54.4043,-48.39258 -7.835,-2.177 -13.3258,-2.61319 -13.3808,-2.61719 -3.3,-0.251 -5.7782,-3.12773 -5.5332,-6.42773 0.246,-3.300001 3.1111,-5.780071 6.4101,-5.539071 0.182,0.013 3.1913,0.24174 7.9453,1.17774 -1.96,-13.383 2.9087,-27.14845 13.3907,-36.31445 l 64.3515,-56.25977 c -2.77,-3.002 -6.5164,-5.02434 -10.6894,-5.65234 -5.359,-0.807 -10.575,0.71982 -14.67,4.29882 l -74.5117,65.14063 c -1.586,1.382 -3.0205,2.92189 -4.2715,4.58789 -4.443,5.883 -6.5897,13.18526 -6.0527,20.57226 0.24,3.305 -2.2458,6.177971 -5.5508,6.417971 -3.304,0.24 -6.1779,-2.244821 -6.4179,-5.548821 -0.476,-6.556 0.5741,-13.06393 2.9941,-19.04493 l -36.0059,0.002 -36.0039,0.002 c 2.419,5.979 3.4702,12.48792 2.9942,19.04492 -0.24,3.305 -3.113,5.788831 -6.42,5.548831 -3.305,-0.24 -5.7907,-3.114921 -5.5507,-6.419921 0.537,-7.386 -1.609,-14.68759 -6.043,-20.55859 -1.26,-1.677 -2.6945,-3.21684 -4.2715,-4.58984 l -74.5195,-65.14844 c -3.3248,-2.90956 -7.3854,-4.46461 -11.666,-4.51367 z m 300.7949,12.875 -63.2227,55.27149 c -9.265,8.103 -13.0421,20.68214 -10.0781,32.369141 17.837,5.099 48.7461,19.02742 61.7031,55.73242 0.552,1.567 1.126,3.09547 1.709,4.60547 28.994,-37.351 35.5907,-87.223921 17.0977,-130.9199212 z m -318.791,0.4043 -7.0371,16.6523398 c -18.493,43.6980002 -11.8973,93.5728312 17.0957,130.9238312 0.583,-1.51 1.1569,-3.03752 1.7089,-4.60352 12.852,-36.404 43.4225,-50.38406 61.0235,-55.53906 3.061,-11.748001 -0.6963,-24.407401 -10.0293,-32.566401 z m 154.6172,355.216791 c -2.102,0 -4.2107,0.47224 -6.0996,1.36524 -1.887,0.889 -3.5964,2.22337 -4.9454,3.85937 -3.742,4.556 -4.2753,11.0635 -1.3203,16.1875 l 0.4336,0.75391 c 1.702,2.944 4.1556,5.40061 7.0996,7.09961 2.94,1.697 6.2924,2.59375 9.6914,2.59375 6.912,0 13.3507,-3.71722 16.8047,-9.69922 l 0.4238,-0.74023 c 1.2591,-2.179 1.9219,-4.64739 1.9219,-7.15039 0,-3.299 -1.1503,-6.51283 -3.2383,-9.04883 -2.725,-3.32 -6.747,-5.22071 -11.041,-5.22071 z"
             id="path881"
             inkscape:connector-curvature="0"
             sodipodi:nodetypes="cccccccccccccccccscccccccccccccccccccccccccscccccccccccccccccscccccccccccccccccccccccccccccccccccccccccccccccscccccsccscss" />
        </g>
      </g>
    </clipPath>
  </defs>
  <sodipodi:namedview
     pagecolor="#ffffff"
     bordercolor="#666666"
     borderopacity="1"
     objecttolerance="10"
     gridtolerance="10"
     guidetolerance="10"
     inkscape:pageopacity="0"
     inkscape:pageshadow="2"
     inkscape:window-width="1024"
     inkscape:window-height="1232"
     id="namedview50"
     showgrid="false"
     inkscape:zoom="0.50000003"
     inkscape:cx="-13.343024"
     inkscape:cy="238.40513"
     inkscape:window-x="3840"
     inkscape:window-y="20"
     inkscape:window-maximized="1"
     inkscape:current-layer="svg48"
     showguides="false"
     fit-margin-top="0"
     fit-margin-left="0"
     fit-margin-right="0"
     fit-margin-bottom="0" />
  <g
     id="g1814"
     transform="matrix(0.27467864,0,0,0.27467864,26.290477,285.80471)"
     inkscape:export-xdpi="1000"
     inkscape:export-ydpi="1000"
     style="fill:#353130;fill-opacity:1;stroke:none;stroke-opacity:1">
    <path
       sodipodi:nodetypes="cccccccccccccccccccccccccccccccccccccccccccccccccccccccccccccccscccccsscsccsccccccccccccccccccccccccccccccscccccccccccccccccccccccccccccccccccccccccccccccscccccccccccccccccscc"
       inkscape:connector-curvature="0"
       id="path907"
       d="m 450.95617,339.9559 c -19.322,-10.404 -33.758,-39.323 -38.549,-49.946 3.715,-2.634 10.229,-6.075 16.189,-3.323 2.163,0.998 4.713,0.622 6.494,-0.958 1.783,-1.58 2.462,-4.065 1.73,-6.332 -6.09,-18.88 -21.687,-30.26 -35.446,-40.301 -4.296,-3.134 -8.494,-6.198 -12.253,-9.363 2.562,0.164 5.261,0.163 8.092,-0.004 9.085,-0.535 16.299,-2.647 16.602,-2.737 2.908,-0.862 4.853,-3.761 4.35,-6.752 -0.5,-2.97 -2.986,-5.115 -5.991,-5.003 -0.582,-0.045 -4.434,-0.475 -9.944,-4.26 -5.247,-3.604 -12.875,-10.965 -20.302,-25.727 l 2.019,-2.484 c 33.372,-41.042 41.297,-96.800002 20.682,-145.511002 l -7.952,-18.814 c -0.605,-1.429 -1.324,-2.826 -2.15,-4.175 -4.651,-7.5210001 -12.378,-12.5960001 -21.199,-13.9230001 -8.781,-1.32 -17.657,1.278 -24.354,7.131 l -74.502,65.1290001 c -1.432,1.246 -2.769,2.6 -4.016,4.025 H 183.6572 c -1.247,-1.426 -2.582,-2.777 -4.006,-4.017 L 105.1432,7.4728979 c -6.69,-5.854 -15.561,-8.454 -24.339,-7.138 -8.829,1.325 -16.565,6.405 -21.247,13.9720001 -0.807,1.324 -1.52,2.714 -2.123,4.135 l -7.949,18.807 c -20.616,48.714 -12.691,104.472002 20.68,145.513002 l 2.02,2.485 c -7.426,14.762 -15.056,22.123 -20.303,25.727 -5.511,3.786 -9.362,4.216 -9.945,4.26 -2.989,-0.113 -5.49,2.033 -5.99,5.003 -0.503,2.991 1.44,5.89 4.349,6.752 0.303,0.09 7.517,2.202 16.602,2.737 2.833,0.167 5.532,0.167 8.091,0.004 -3.759,3.166 -7.957,6.229 -12.252,9.363 -13.76,10.041 -29.356,21.421 -35.447,40.301 -0.731,2.267 -0.052,4.752 1.73,6.332 1.783,1.58 4.332,1.956 6.494,0.958 5.979,-2.761 12.484,0.68 16.192,3.318 -4.789,10.62 -19.226,39.546 -38.551,49.952 -1.864,1.004 -3.062,2.917 -3.15,5.032 -0.088,2.116 0.945,4.122 2.719,5.278 33.497,21.824 63.602,19.238 90.165,16.957 27.434,-2.355 49.1,-4.217 68.365,20.687 0.203,0.262 1.478,5.51 1.79,8.052 2.25,18.535 14.385,40.131 58.70997,40.13 1.717,0 3.481,-0.032 5.296,-0.099 1.818,0.066 3.577,0.099 5.296,0.099 44.325,-0.002 56.471,-21.596 58.719,-40.123 0.313,-2.546 1.588,-7.797 1.791,-8.059 19.265,-24.904 40.934,-23.042 68.364,-20.687 26.563,2.282 56.669,4.866 90.165,-16.957 1.774,-1.156 2.808,-3.162 2.72,-5.278 -0.087,-2.113 -1.284,-4.026 -3.149,-5.03 z m -74.478,-167.108 c -0.583,-1.51 -1.156,-3.039 -1.708,-4.606 -12.957,-36.705 -43.866,-50.634 -61.703,-55.733 -2.964,-11.687 0.813,-24.266002 10.078,-32.369002 l 63.222,-55.27 7.209,17.057 c 18.493,43.696 11.896,93.570002 -17.098,130.921002 z m -149.426,239.501 c -3.399,0 -6.74997,-0.897 -9.68997,-2.594 -2.944,-1.699 -5.399,-4.154 -7.101,-7.098 l -0.433,-0.755 c -2.955,-5.124 -2.421,-11.631 1.321,-16.187 1.349,-1.636 3.057,-2.97 4.944,-3.859 1.889,-0.893 3.998,-1.366 6.09997,-1.366 h 9.73 c 4.294,0 8.317,1.902 11.042,5.222 2.088,2.536 3.237,5.749 3.237,9.048 0,2.503 -0.662,4.972 -1.921,7.151 l -0.423,0.739 c -3.454,5.982 -9.894,9.699 -16.806,9.699 z M 60.5382,41.924898 l 7.038,-16.652 62.762,54.868 c 9.333,8.159 13.09,20.818002 10.029,32.566002 -17.601,5.155 -48.172,19.135 -61.024,55.539 -0.552,1.566 -1.125,3.094 -1.708,4.604 -28.993,-37.351 -35.59,-87.227002 -17.097,-130.925002 z M 220.82317,372.5339 c -2.81797,0.176 -5.61097,0.886 -8.14597,2.085 -2.943,1.386 -5.606,3.462 -7.706,6.01 -5.849,7.121 -6.683,17.275 -2.079,25.259 l 0.43,0.75 c 0.002,0.003 0.004,0.006 0.005,0.01 2.403,4.163 5.873,7.633 10.035,10.035 2.993,1.727 6.287,2.857 9.68897,3.361 v 4.035 c -13.19097,0.134 -23.85197,-1.768 -31.70997,-5.68 -9.657,-4.808 -15.016,-12.62 -16.383,-23.89 -0.509,-4.155 -1.177,-8.125 -1.986,-11.8 -9.627,-43.746 -39.053,-52.826 -58.525,-58.835 -5.958,-1.839 -11.104,-3.427 -13.896,-5.474 -11.486,-8.423 -7.88,-24.07 -7.728,-24.707 0.804,-3.215 -1.151,-6.472 -4.366,-7.276 -3.212,-0.805 -6.472,1.151 -7.276,4.365 -0.244,0.976 -5.77,24.063 12.273,37.294 4.42,3.241 10.46,5.105 17.454,7.263 14.456,4.461 31.622,9.777 42.485,28.752 -18.96,-12.465 -39.785,-10.692 -61.529,-8.825 -23.531,2.02 -47.791,4.104 -74.624,-10.323 22.705,-17.982 36.691,-52.854 37.341,-54.499 0.879,-2.224 0.354,-4.758 -1.337,-6.449 -0.481,-0.481 -9.044,-8.894 -20.173,-10.19 6.375,-10.156 16.691,-17.683 26.741,-25.017 11.324,-8.263 23.033,-16.807 28.645,-29.051 1.174,-2.562 0.407,-5.595 -1.843,-7.291 -2.249,-1.696 -5.377,-1.598 -7.517,0.235 -4.196,3.596 -10.37,4.929 -16.514,5.129 7.023,-5.871 14.916,-15.396 22.108,-30.851 2.126,-4.566 4.135,-9.521 5.969,-14.725 10.672,-30.228 35.113,-42.9 53.735,-48.207 8.202,-2.336 14,-2.803 14.058,-2.807 3.299,-0.248 5.776,-3.121 5.533,-6.423 -0.243,-3.305 -3.127,-5.788 -6.423,-5.544 -0.194,0.014 -3.457,0.266 -8.579,1.31 2.017,-13.411002 -2.84,-27.233002 -13.379,-36.447002 l -63.996,-55.944 c 2.807,-3.182 6.663,-5.322 10.976,-5.969 5.36,-0.804 10.566,0.723 14.658,4.304 l 74.52,65.149 c 1.577,1.373 3.011,2.913 4.271,4.59 4.434,5.871 6.581,13.173 6.044,20.559002 -0.24,3.305 2.245,6.179 5.55,6.419 3.307,0.24 6.179,-2.244 6.419,-5.549 0.476,-6.557 -0.574,-13.066002 -2.993,-19.045002 l 36.00347,-0.0015 36.0055,-0.0015 c -2.42,5.981 -3.47,12.489002 -2.994,19.045002 0.24,3.304 3.115,5.789 6.419,5.549 3.305,-0.24 5.79,-3.114 5.55,-6.419 -0.537,-7.387002 1.609,-14.688002 6.052,-20.571002 1.251,-1.666 2.686,-3.206 4.272,-4.588 l 74.511,-65.14 c 4.095,-3.579 9.311,-5.106 14.67,-4.299 4.173,0.628 7.921,2.65 10.691,5.652 l -64.353,56.259 c -10.482,9.166 -15.35,22.932 -13.39,36.315002 -4.754,-0.936 -7.763,-1.165 -7.945,-1.178 -3.299,-0.241 -6.164,2.24 -6.41,5.54 -0.245,3.3 2.233,6.176 5.533,6.427 0.055,0.004 5.546,0.441 13.381,2.618 15.451,4.284 43.065,16.269 54.404,48.392 1.833,5.203 3.842,10.159 5.97,14.728 7.202,15.477 15.106,25.007 22.137,30.876 -6.142,-0.199 -12.324,-1.537 -16.543,-5.153 -2.139,-1.833 -5.266,-1.933 -7.516,-0.235 -2.251,1.696 -3.017,4.729 -1.843,7.291 5.611,12.243 17.32,20.788 28.645,29.051 10.05,7.333 20.365,14.86 26.74,25.017 -11.128,1.298 -19.692,9.709 -20.173,10.19 -1.691,1.691 -2.217,4.225 -1.338,6.449 0.65,1.645 14.637,36.517 37.342,54.499 -26.836,14.43 -51.095,12.346 -74.627,10.325 -21.743,-1.868 -42.568,-3.641 -61.529,8.825 10.864,-18.975 28.029,-24.29 42.486,-28.751 6.993,-2.158 13.033,-4.022 17.454,-7.263 18.043,-13.231 12.517,-36.317 12.273,-37.294 -0.804,-3.215 -4.068,-5.168 -7.276,-4.365 -3.215,0.804 -5.17,4.061 -4.366,7.276 0.041,0.161 3.889,16.188 -7.727,24.706 -2.793,2.048 -7.938,3.635 -13.897,5.474 -19.472,6.009 -48.897,15.089 -58.525,58.836 -0.808,3.676 -1.476,7.645 -1.985,11.805 -2.455,20.226 -18.232,29.911 -48.104,29.565 v -4.038 c 8.194,-1.218 15.531,-6.114 19.74,-13.406 l 0.423,-0.738 c 1.953,-3.382 2.986,-7.235 2.986,-11.141 0,-5.149 -1.798,-10.168 -5.057,-14.127 -3.957,-4.822 -9.678,-7.725 -15.86,-8.099"
       inkscape:export-xdpi="1000"
       inkscape:export-ydpi="1000"
       style="fill:#353130;fill-opacity:1;stroke:none;stroke-opacity:1" />
    <path
       sodipodi:nodetypes="ccccccsccccccc"
       inkscape:connector-curvature="0"
       id="path913"
       d="m 184.6532,284.3309 c 1.273,-0.812 1.981,-2.272 1.829,-3.775 -0.767,-7.576 -4.799,-14.411 -11.065,-18.753 -6.27,-4.344 -14.097,-5.719 -21.478,-3.772 l -10.579,2.79 c 8.51346,17.2912 -0.6401,-1.00549 4.45051,8.94247 6.51687,10.12621 11.45849,18.44553 23.52049,18.44553 4.738,0 9.345,-1.341 13.322,-3.878 z m -29.934,-18.23 1.263,-0.334 c 5.11,-1.35 10.534,-0.397 14.877,2.613 3.62,2.508 6.164,6.217 7.215,10.423 -2.112,0.926 -4.403,1.407 -6.743,1.407 -8.342,-10e-4 -15.288,-6.1 -16.612,-14.109 z"
       inkscape:export-xdpi="1000"
       inkscape:export-ydpi="1000"
       style="fill:#353130;fill-opacity:1;stroke:none;stroke-opacity:1" />
    <flowRoot
       transform="matrix(2.4838573,0,0,2.4838573,467.78647,99.389138)"
       style="font-style:normal;font-weight:normal;font-size:40px;line-height:1.25;font-family:sans-serif;letter-spacing:0px;word-spacing:0px;fill:#353130;fill-opacity:1;stroke:none;stroke-opacity:1"
       id="flowRoot923"
       xml:space="preserve"
       inkscape:export-xdpi="1000"
       inkscape:export-ydpi="1000"><flowRegion
         id="flowRegion919"
         style="fill:#353130;fill-opacity:1;stroke:none;stroke-opacity:1"><rect
           y="137.76787"
           x="-180.28099"
           height="112.25043"
           width="583.70221"
           id="rect917"
           style="fill:#353130;fill-opacity:1;stroke:none;stroke-opacity:1" /></flowRegion><flowPara
         style="font-style:normal;font-variant:normal;font-weight:normal;font-stretch:normal;font-family:'Fox Sans TRF';-inkscape-font-specification:'Fox Sans TRF';fill:#353130;fill-opacity:1;stroke:none;stroke-opacity:1"
         id="flowPara921">ArcticFox</flowPara></flowRoot>    <path
       d="m 269.02517,284.3309 c -1.273,-0.812 -1.981,-2.272 -1.829,-3.775 0.767,-7.576 4.799,-14.411 11.065,-18.753 6.27,-4.344 14.097,-5.719 21.478,-3.772 l 10.579,2.79 c -8.5134,17.2912 0.6401,-1.00549 -4.4505,8.94247 -6.5169,10.12621 -11.4585,18.44553 -23.5205,18.44553 -4.738,0 -9.345,-1.341 -13.322,-3.878 z m 29.934,-18.23 -1.263,-0.334 c -5.11,-1.35 -10.534,-0.397 -14.877,2.613 -3.62,2.508 -6.164,6.217 -7.215,10.423 2.112,0.926 4.403,1.407 6.743,1.407 8.342,-10e-4 15.288,-6.1 16.612,-14.109 z"
       id="path925"
       inkscape:connector-curvature="0"
       sodipodi:nodetypes="ccccccsccccccc"
       inkscape:export-xdpi="1000"
       inkscape:export-ydpi="1000"
       style="fill:#353130;fill-opacity:1;stroke:none;stroke-opacity:1" />
  </g>
  <g
     id="g855"
     transform="translate(68.15159,96.191491)" />
  <rect
     style="opacity:1;vector-effect:none;fill:none;fill-opacity:1;stroke:#353130;stroke-width:4.92740107;stroke-linecap:round;stroke-linejoin:round;stroke-miterlimit:4;stroke-dasharray:none;stroke-dashoffset:0;stroke-opacity:1;paint-order:normal"
     id="rect889"
     width="172.38797"
     height="172.38797"
     x="2.4637005"
     y="272.46368"
     ry="17.203556" />
  <g
     style="fill:#353130;fill-opacity:1;stroke:none;stroke-opacity:1"
     inkscape:export-ydpi="1000"
     inkscape:export-xdpi="1000"
     transform="matrix(0.27467864,0,0,0.27467864,26.290477,15.804721)"
     id="g842">
    <path
       style="fill:#353130;fill-opacity:1;stroke:none;stroke-opacity:1"
       inkscape:export-ydpi="1000"
       inkscape:export-xdpi="1000"
       d="m 450.95617,339.9559 c -19.322,-10.404 -33.758,-39.323 -38.549,-49.946 3.715,-2.634 10.229,-6.075 16.189,-3.323 2.163,0.998 4.713,0.622 6.494,-0.958 1.783,-1.58 2.462,-4.065 1.73,-6.332 -6.09,-18.88 -21.687,-30.26 -35.446,-40.301 -4.296,-3.134 -8.494,-6.198 -12.253,-9.363 2.562,0.164 5.261,0.163 8.092,-0.004 9.085,-0.535 16.299,-2.647 16.602,-2.737 2.908,-0.862 4.853,-3.761 4.35,-6.752 -0.5,-2.97 -2.986,-5.115 -5.991,-5.003 -0.582,-0.045 -4.434,-0.475 -9.944,-4.26 -5.247,-3.604 -12.875,-10.965 -20.302,-25.727 l 2.019,-2.484 c 33.372,-41.042 41.297,-96.800002 20.682,-145.511002 l -7.952,-18.814 c -0.605,-1.429 -1.324,-2.826 -2.15,-4.175 -4.651,-7.5210001 -12.378,-12.5960001 -21.199,-13.9230001 -8.781,-1.32 -17.657,1.278 -24.354,7.131 l -74.502,65.1290001 c -1.432,1.246 -2.769,2.6 -4.016,4.025 H 183.6572 c -1.247,-1.426 -2.582,-2.777 -4.006,-4.017 L 105.1432,7.4728979 c -6.69,-5.854 -15.561,-8.454 -24.339,-7.138 -8.829,1.325 -16.565,6.405 -21.247,13.9720001 -0.807,1.324 -1.52,2.714 -2.123,4.135 l -7.949,18.807 c -20.616,48.714 -12.691,104.472002 20.68,145.513002 l 2.02,2.485 c -7.426,14.762 -15.056,22.123 -20.303,25.727 -5.511,3.786 -9.362,4.216 -9.945,4.26 -2.989,-0.113 -5.49,2.033 -5.99,5.003 -0.503,2.991 1.44,5.89 4.349,6.752 0.303,0.09 7.517,2.202 16.602,2.737 2.833,0.167 5.532,0.167 8.091,0.004 -3.759,3.166 -7.957,6.229 -12.252,9.363 -13.76,10.041 -29.356,21.421 -35.447,40.301 -0.731,2.267 -0.052,4.752 1.73,6.332 1.783,1.58 4.332,1.956 6.494,0.958 5.979,-2.761 12.484,0.68 16.192,3.318 -4.789,10.62 -19.226,39.546 -38.551,49.952 -1.864,1.004 -3.062,2.917 -3.15,5.032 -0.088,2.116 0.945,4.122 2.719,5.278 33.497,21.824 63.602,19.238 90.165,16.957 27.434,-2.355 49.1,-4.217 68.365,20.687 0.203,0.262 1.478,5.51 1.79,8.052 2.25,18.535 14.385,40.131 58.70997,40.13 1.717,0 3.481,-0.032 5.296,-0.099 1.818,0.066 3.577,0.099 5.296,0.099 44.325,-0.002 56.471,-21.596 58.719,-40.123 0.313,-2.546 1.588,-7.797 1.791,-8.059 19.265,-24.904 40.934,-23.042 68.364,-20.687 26.563,2.282 56.669,4.866 90.165,-16.957 1.774,-1.156 2.808,-3.162 2.72,-5.278 -0.087,-2.113 -1.284,-4.026 -3.149,-5.03 z m -74.478,-167.108 c -0.583,-1.51 -1.156,-3.039 -1.708,-4.606 -12.957,-36.705 -43.866,-50.634 -61.703,-55.733 -2.964,-11.687 0.813,-24.266002 10.078,-32.369002 l 63.222,-55.27 7.209,17.057 c 18.493,43.696 11.896,93.570002 -17.098,130.921002 z m -149.426,239.501 c -3.399,0 -6.74997,-0.897 -9.68997,-2.594 -2.944,-1.699 -5.399,-4.154 -7.101,-7.098 l -0.433,-0.755 c -2.955,-5.124 -2.421,-11.631 1.321,-16.187 1.349,-1.636 3.057,-2.97 4.944,-3.859 1.889,-0.893 3.998,-1.366 6.09997,-1.366 h 9.73 c 4.294,0 8.317,1.902 11.042,5.222 2.088,2.536 3.237,5.749 3.237,9.048 0,2.503 -0.662,4.972 -1.921,7.151 l -0.423,0.739 c -3.454,5.982 -9.894,9.699 -16.806,9.699 z M 60.5382,41.924898 l 7.038,-16.652 62.762,54.868 c 9.333,8.159 13.09,20.818002 10.029,32.566002 -17.601,5.155 -48.172,19.135 -61.024,55.539 -0.552,1.566 -1.125,3.094 -1.708,4.604 -28.993,-37.351 -35.59,-87.227002 -17.097,-130.925002 z M 220.82317,372.5339 c -2.81797,0.176 -5.61097,0.886 -8.14597,2.085 -2.943,1.386 -5.606,3.462 -7.706,6.01 -5.849,7.121 -6.683,17.275 -2.079,25.259 l 0.43,0.75 c 0.002,0.003 0.004,0.006 0.005,0.01 2.403,4.163 5.873,7.633 10.035,10.035 2.993,1.727 6.287,2.857 9.68897,3.361 v 4.035 c -13.19097,0.134 -23.85197,-1.768 -31.70997,-5.68 -9.657,-4.808 -15.016,-12.62 -16.383,-23.89 -0.509,-4.155 -1.177,-8.125 -1.986,-11.8 -9.627,-43.746 -39.053,-52.826 -58.525,-58.835 -5.958,-1.839 -11.104,-3.427 -13.896,-5.474 -11.486,-8.423 -7.88,-24.07 -7.728,-24.707 0.804,-3.215 -1.151,-6.472 -4.366,-7.276 -3.212,-0.805 -6.472,1.151 -7.276,4.365 -0.244,0.976 -5.77,24.063 12.273,37.294 4.42,3.241 10.46,5.105 17.454,7.263 14.456,4.461 31.622,9.777 42.485,28.752 -18.96,-12.465 -39.785,-10.692 -61.529,-8.825 -23.531,2.02 -47.791,4.104 -74.624,-10.323 22.705,-17.982 36.691,-52.854 37.341,-54.499 0.879,-2.224 0.354,-4.758 -1.337,-6.449 -0.481,-0.481 -9.044,-8.894 -20.173,-10.19 6.375,-10.156 16.691,-17.683 26.741,-25.017 11.324,-8.263 23.033,-16.807 28.645,-29.051 1.174,-2.562 0.407,-5.595 -1.843,-7.291 -2.249,-1.696 -5.377,-1.598 -7.517,0.235 -4.196,3.596 -10.37,4.929 -16.514,5.129 7.023,-5.871 14.916,-15.396 22.108,-30.851 2.126,-4.566 4.135,-9.521 5.969,-14.725 10.672,-30.228 35.113,-42.9 53.735,-48.207 8.202,-2.336 14,-2.803 14.058,-2.807 3.299,-0.248 5.776,-3.121 5.533,-6.423 -0.243,-3.305 -3.127,-5.788 -6.423,-5.544 -0.194,0.014 -3.457,0.266 -8.579,1.31 2.017,-13.411002 -2.84,-27.233002 -13.379,-36.447002 l -63.996,-55.944 c 2.807,-3.182 6.663,-5.322 10.976,-5.969 5.36,-0.804 10.566,0.723 14.658,4.304 l 74.52,65.149 c 1.577,1.373 3.011,2.913 4.271,4.59 4.434,5.871 6.581,13.173 6.044,20.559002 -0.24,3.305 2.245,6.179 5.55,6.419 3.307,0.24 6.179,-2.244 6.419,-5.549 0.476,-6.557 -0.574,-13.066002 -2.993,-19.045002 l 36.00347,-0.0015 36.0055,-0.0015 c -2.42,5.981 -3.47,12.489002 -2.994,19.045002 0.24,3.304 3.115,5.789 6.419,5.549 3.305,-0.24 5.79,-3.114 5.55,-6.419 -0.537,-7.387002 1.609,-14.688002 6.052,-20.571002 1.251,-1.666 2.686,-3.206 4.272,-4.588 l 74.511,-65.14 c 4.095,-3.579 9.311,-5.106 14.67,-4.299 4.173,0.628 7.921,2.65 10.691,5.652 l -64.353,56.259 c -10.482,9.166 -15.35,22.932 -13.39,36.315002 -4.754,-0.936 -7.763,-1.165 -7.945,-1.178 -3.299,-0.241 -6.164,2.24 -6.41,5.54 -0.245,3.3 2.233,6.176 5.533,6.427 0.055,0.004 5.546,0.441 13.381,2.618 15.451,4.284 43.065,16.269 54.404,48.392 1.833,5.203 3.842,10.159 5.97,14.728 7.202,15.477 15.106,25.007 22.137,30.876 -6.142,-0.199 -12.324,-1.537 -16.543,-5.153 -2.139,-1.833 -5.266,-1.933 -7.516,-0.235 -2.251,1.696 -3.017,4.729 -1.843,7.291 5.611,12.243 17.32,20.788 28.645,29.051 10.05,7.333 20.365,14.86 26.74,25.017 -11.128,1.298 -19.692,9.709 -20.173,10.19 -1.691,1.691 -2.217,4.225 -1.338,6.449 0.65,1.645 14.637,36.517 37.342,54.499 -26.836,14.43 -51.095,12.346 -74.627,10.325 -21.743,-1.868 -42.568,-3.641 -61.529,8.825 10.864,-18.975 28.029,-24.29 42.486,-28.751 6.993,-2.158 13.033,-4.022 17.454,-7.263 18.043,-13.231 12.517,-36.317 12.273,-37.294 -0.804,-3.215 -4.068,-5.168 -7.276,-4.365 -3.215,0.804 -5.17,4.061 -4.366,7.276 0.041,0.161 3.889,16.188 -7.727,24.706 -2.793,2.048 -7.938,3.635 -13.897,5.474 -19.472,6.009 -48.897,15.089 -58.525,58.836 -0.808,3.676 -1.476,7.645 -1.985,11.805 -2.455,20.226 -18.232,29.911 -48.104,29.565 v -4.038 c 8.194,-1.218 15.531,-6.114 19.74,-13.406 l 0.423,-0.738 c 1.953,-3.382 2.986,-7.235 2.986,-11.141 0,-5.149 -1.798,-10.168 -5.057,-14.127 -3.957,-4.822 -9.678,-7.725 -15.86,-8.099"
       id="path828"
       inkscape:connector-curvature="0"
       sodipodi:nodetypes="cccccccccccccccccccccccccccccccccccccccccccccccccccccccccccccccscccccsscsccsccccccccccccccccccccccccccccccscccccccccccccccccccccccccccccccccccccccccccccccscccccccccccccccccscc" />
    <path
       style="fill:#353130;fill-opacity:1;stroke:none;stroke-opacity:1"
       inkscape:export-ydpi="1000"
       inkscape:export-xdpi="1000"
       d="m 184.6532,284.3309 c 1.273,-0.812 1.981,-2.272 1.829,-3.775 -0.767,-7.576 -4.799,-14.411 -11.065,-18.753 -6.27,-4.344 -14.097,-5.719 -21.478,-3.772 l -10.579,2.79 c 8.51346,17.2912 -0.6401,-1.00549 4.45051,8.94247 6.51687,10.12621 11.45849,18.44553 23.52049,18.44553 4.738,0 9.345,-1.341 13.322,-3.878 z m -29.934,-18.23 1.263,-0.334 c 5.11,-1.35 10.534,-0.397 14.877,2.613 3.62,2.508 6.164,6.217 7.215,10.423 -2.112,0.926 -4.403,1.407 -6.743,1.407 -8.342,-10e-4 -15.288,-6.1 -16.612,-14.109 z"
       id="path830"
       inkscape:connector-curvature="0"
       sodipodi:nodetypes="ccccccsccccccc" />
    <g
       aria-label="ArcticFox"
       transform="matrix(2.4838573,0,0,2.4838573,467.78647,99.389138)"
       style="font-style:normal;font-weight:normal;font-size:40px;line-height:1.25;font-family:sans-serif;letter-spacing:0px;word-spacing:0px;fill:#353130;fill-opacity:1;stroke:none;stroke-opacity:1"
       id="flowRoot838">
      <path
         d="m -179.08984,173.1582 11.01562,-28.00781 h 3.1836 l 11.01562,28.00781 h -4.23828 l -3.125,-8.16406 h -10.48828 l -3.10547,8.16406 z m 8.73047,-11.60156 h 7.7539 l -3.78906,-10.42969 h -0.17578 z"
         style="font-style:normal;font-variant:normal;font-weight:normal;font-stretch:normal;font-family:'Fox Sans TRF';-inkscape-font-specification:'Fox Sans TRF';fill:#353130;fill-opacity:1;stroke:none;stroke-opacity:1"
         id="path846"
         inkscape:connector-curvature="0" />
      <path
         d="m -149.89062,153.72461 h 3.65234 l 0.15625,2.48047 q 0.25391,-0.33203 0.68359,-0.74219 0.44922,-0.41016 1.13282,-0.89844 0.70312,-0.50781 1.62109,-0.83984 0.91797,-0.33203 1.83594,-0.33203 0.95703,0 1.89453,0.19531 0.95703,0.19531 1.46484,0.52734 l -1.07422,3.28125 q -1.07422,-0.60546 -2.48047,-0.60546 -0.80078,0 -1.62109,0.33203 -0.80078,0.3125 -1.40625,0.76172 -0.58594,0.44921 -1.07422,0.89843 -0.48828,0.44922 -0.74219,0.78125 l -0.23437,0.3125 v 13.28125 h -3.76953 z"
         style="font-style:normal;font-variant:normal;font-weight:normal;font-stretch:normal;font-family:'Fox Sans TRF';-inkscape-font-specification:'Fox Sans TRF';fill:#353130;fill-opacity:1;stroke:none;stroke-opacity:1"
         id="path848"
         inkscape:connector-curvature="0" />
      <path
         d="m -136.45312,163.23633 q 0,-4.25781 2.59765,-7.08985 2.61719,-2.83203 6.75781,-2.83203 2.1875,0 3.4961,0.39063 1.30859,0.37109 2.51953,1.09375 l -1.21094,2.91015 q -1.89453,-1.15234 -4.51172,-1.15234 -2.71484,0 -4.35547,1.89453 -1.64062,1.875 -1.64062,4.86328 0,3.20313 1.60156,5.11719 1.60156,1.89453 4.55078,1.89453 1.23047,0 2.42188,-0.29297 1.21093,-0.3125 1.79687,-0.625 l 0.58594,-0.29297 1.07422,3.125 q -2.5586,1.3086 -6.44531,1.3086 -4.25782,0 -6.75782,-2.8711 -2.48046,-2.87109 -2.48046,-7.4414 z"
         style="font-style:normal;font-variant:normal;font-weight:normal;font-stretch:normal;font-family:'Fox Sans TRF';-inkscape-font-specification:'Fox Sans TRF';fill:#353130;fill-opacity:1;stroke:none;stroke-opacity:1"
         id="path850"
         inkscape:connector-curvature="0" />
      <path
         d="m -118.19141,157.12305 v -3.39844 h 3.04688 v -3.28125 l 3.75,-2.8125 v 6.09375 h 4.375 v 3.39844 h -4.375 v 9.58984 q 0,1.54297 1.07422,2.51953 1.09375,0.95703 2.92968,0.95703 l 1.21094,-0.0781 -0.64453,3.35937 q -1.05469,0.0781 -1.52344,0.0781 -3.02734,0 -4.92187,-1.71875 -1.875,-1.73828 -1.875,-4.4336 v -10.27343 z"
         style="font-style:normal;font-variant:normal;font-weight:normal;font-stretch:normal;font-family:'Fox Sans TRF';-inkscape-font-specification:'Fox Sans TRF';fill:#353130;fill-opacity:1;stroke:none;stroke-opacity:1"
         id="path852"
         inkscape:connector-curvature="0" />
      <path
         d="m -103.19141,147.43555 3.281254,-3.28125 3.28125,3.28125 -3.28125,3.28125 z m 1.40625,25.72265 v -19.43359 h 3.750004 v 19.43359 z"
         style="font-style:normal;font-variant:normal;font-weight:normal;font-stretch:normal;font-family:'Fox Sans TRF';-inkscape-font-specification:'Fox Sans TRF';fill:#353130;fill-opacity:1;stroke:none;stroke-opacity:1"
         id="path854"
         inkscape:connector-curvature="0" />
      <path
         d="m -93.035156,163.23633 q 0,-4.25781 2.597656,-7.08985 2.617188,-2.83203 6.757813,-2.83203 2.1875,0 3.496093,0.39063 1.308594,0.37109 2.519532,1.09375 l -1.210938,2.91015 q -1.894531,-1.15234 -4.511719,-1.15234 -2.714843,0 -4.355468,1.89453 -1.640625,1.875 -1.640625,4.86328 0,3.20313 1.601562,5.11719 1.601563,1.89453 4.550781,1.89453 1.230469,0 2.421875,-0.29297 1.210938,-0.3125 1.796875,-0.625 l 0.585938,-0.29297 1.074219,3.125 q -2.558594,1.3086 -6.445313,1.3086 -4.257812,0 -6.757812,-2.8711 -2.480469,-2.87109 -2.480469,-7.4414 z"
         style="font-style:normal;font-variant:normal;font-weight:normal;font-stretch:normal;font-family:'Fox Sans TRF';-inkscape-font-specification:'Fox Sans TRF';fill:#353130;fill-opacity:1;stroke:none;stroke-opacity:1"
         id="path856"
         inkscape:connector-curvature="0" />
      <path
         d="m -72.371094,173.1582 v -28.00781 h 14.765625 v 3.61328 h -10.722656 v 8.10547 h 10.234375 v 3.57422 h -10.234375 v 12.71484 z"
         style="font-style:normal;font-variant:normal;font-weight:normal;font-stretch:normal;font-family:'Fox Sans TRF';-inkscape-font-specification:'Fox Sans TRF';fill:#353130;fill-opacity:1;stroke:none;stroke-opacity:1"
         id="path858"
         inkscape:connector-curvature="0" />
      <path
         d="m -53.503906,163.39258 q 0,-4.45313 2.597656,-7.26563 2.617188,-2.8125 6.933594,-2.8125 4.277344,0 6.875,2.79297 2.597656,2.77344 2.597656,7.28516 0,4.64844 -2.578125,7.40234 -2.578125,2.75391 -6.894531,2.75391 -4.355469,0 -6.953125,-2.73438 -2.578125,-2.7539 -2.578125,-7.42187 z m 3.515625,0 q 0,3.125 1.640625,5.03906 1.640625,1.89453 4.375,1.89453 2.714844,0 4.335937,-1.91406 1.621094,-1.91406 1.621094,-5.01953 0,-3.06641 -1.640625,-4.94141 -1.640625,-1.89453 -4.316406,-1.89453 -2.675781,0 -4.355469,1.91406 -1.660156,1.89453 -1.660156,4.92188 z"
         style="font-style:normal;font-variant:normal;font-weight:normal;font-stretch:normal;font-family:'Fox Sans TRF';-inkscape-font-specification:'Fox Sans TRF';fill:#353130;fill-opacity:1;stroke:none;stroke-opacity:1"
         id="path860"
         inkscape:connector-curvature="0" />
      <path
         d="m -32.507812,173.1582 6.972656,-9.96093 -6.640625,-9.47266 h 4.394531 l 4.238281,6.50391 h 0.15625 l 4.238282,-6.50391 h 4.374999 l -6.640624,9.47266 7.031249,9.96093 h -4.589843 l -4.414063,-6.83593 h -0.15625 l -4.433593,6.83593 z"
         style="font-style:normal;font-variant:normal;font-weight:normal;font-stretch:normal;font-family:'Fox Sans TRF';-inkscape-font-specification:'Fox Sans TRF';fill:#353130;fill-opacity:1;stroke:none;stroke-opacity:1"
         id="path862"
         inkscape:connector-curvature="0" />
    </g>
    <path
       style="fill:#353130;fill-opacity:1;stroke:none;stroke-opacity:1"
       inkscape:export-ydpi="1000"
       inkscape:export-xdpi="1000"
       sodipodi:nodetypes="ccccccsccccccc"
       inkscape:connector-curvature="0"
       id="path840"
       d="m 269.02517,284.3309 c -1.273,-0.812 -1.981,-2.272 -1.829,-3.775 0.767,-7.576 4.799,-14.411 11.065,-18.753 6.27,-4.344 14.097,-5.719 21.478,-3.772 l 10.579,2.79 c -8.5134,17.2912 0.6401,-1.00549 -4.4505,8.94247 -6.5169,10.12621 -11.4585,18.44553 -23.5205,18.44553 -4.738,0 -9.345,-1.341 -13.322,-3.878 z m 29.934,-18.23 -1.263,-0.334 c -5.11,-1.35 -10.534,-0.397 -14.877,2.613 -3.62,2.508 -6.164,6.217 -7.215,10.423 2.112,0.926 4.403,1.407 6.743,1.407 8.342,-10e-4 15.288,-6.1 16.612,-14.109 z" />
  </g>
  <path
     style="opacity:1;vector-effect:none;fill:none;fill-opacity:1;stroke:#353130;stroke-width:4.92740107;stroke-linecap:round;stroke-linejoin:round;stroke-miterlimit:4;stroke-dasharray:none;stroke-dashoffset:0;stroke-opacity:1;paint-order:normal"
     d="M 19.667257,2.4637005 H 157.64811 c 9.53077,0 17.20356,7.6727905 17.20356,17.2035605 V 157.64812 c 0,9.53077 -7.67279,17.20356 -17.20356,17.20356 H 19.667257 c -9.53077,0 -17.2035565,-7.67279 -17.2035565,-17.20356 V 19.667261 c 0,-9.53077 7.6727865,-17.2035605 17.2035565,-17.2035605 z"
     id="rect844"
     inkscape:connector-curvature="0" />
</svg>
