<?xml version="1.0" encoding="UTF-8" standalone="no"?>
<!-- Generator: Adobe Illustrator 19.0.0, SVG Export Plug-In . SVG Version: 6.00 Build 0)  -->

<svg
   xmlns:dc="http://purl.org/dc/elements/1.1/"
   xmlns:cc="http://creativecommons.org/ns#"
   xmlns:rdf="http://www.w3.org/1999/02/22-rdf-syntax-ns#"
   xmlns:svg="http://www.w3.org/2000/svg"
   xmlns="http://www.w3.org/2000/svg"
   xmlns:sodipodi="http://sodipodi.sourceforge.net/DTD/sodipodi-0.dtd"
   xmlns:inkscape="http://www.inkscape.org/namespaces/inkscape"
   version="1.1"
   id="Layer_1"
   x="0px"
   y="0px"
   viewBox="0 0 132.28347 44.459494"
   xml:space="preserve"
   sodipodi:docname="doddle60Logo.svg"
   inkscape:version="0.92.4 5da689c313, 2019-01-14"
   width="132.28346"
   height="44.459492"><metadata
   id="metadata1057"><rdf:RDF><cc:Work
       rdf:about=""><dc:format>image/svg+xml</dc:format><dc:type
         rdf:resource="http://purl.org/dc/dcmitype/StillImage" /><dc:title></dc:title></cc:Work></rdf:RDF></metadata><defs
   id="defs1055">
	
	
	
	
	
	

	
	
	
	
	

	
	
	
	
	
	

	
	

	
	
	
	
	















</defs><sodipodi:namedview
   pagecolor="#ffffff"
   bordercolor="#666666"
   borderopacity="1"
   objecttolerance="10"
   gridtolerance="10"
   guidetolerance="10"
   inkscape:pageopacity="0"
   inkscape:pageshadow="2"
   inkscape:window-width="1920"
   inkscape:window-height="1052"
   id="namedview1053"
   showgrid="false"
   inkscape:zoom="2.3920051"
   inkscape:cx="31.100565"
   inkscape:cy="57.866009"
   inkscape:window-x="1920"
   inkscape:window-y="294"
   inkscape:window-maximized="1"
   inkscape:current-layer="Layer_1"
   fit-margin-top="0"
   fit-margin-left="0"
   fit-margin-right="0"
   fit-margin-bottom="0" />
























<g
   id="g860"
   transform="scale(0.07046761)"
   inkscape:export-xdpi="10000"
   inkscape:export-ydpi="10000"><g
     transform="translate(92.71446,59.459987)"
     id="g851"><path
       style="fill:#202121"
       d="m 1648.9176,130.81 c -13.45,0 -26.167,6.43 -34.216,17.049 h -6.174 v -56.48 c 0,-4.482 -3.631,-8.113 -8.113,-8.113 h -27.149 c -4.482,0 -8.113,3.631 -8.113,8.113 0,4.482 3.631,8.113 8.113,8.113 h 19.036 v 56.48 c 0,4.482 3.631,8.113 8.113,8.113 h 18.592 c 2.862,0 5.513,-1.509 6.975,-3.97 4.792,-8.067 13.581,-13.079 22.937,-13.079 14.695,0 26.651,11.956 26.651,26.652 0,14.696 -11.956,26.652 -26.651,26.652 -9.358,0 -18.147,-5.011 -22.936,-13.077 -1.462,-2.461 -4.114,-3.971 -6.976,-3.971 h -18.592 c -4.482,0 -8.113,3.631 -8.113,8.113 v 56.481 h -56.481 c -4.482,0 -8.113,3.631 -8.113,8.113 v 18.594 c 0,2.863 1.51,5.516 3.972,6.976 8.065,4.788 13.076,13.577 13.076,22.936 0,14.694 -11.955,26.649 -26.65,26.649 -14.696,0 -26.652,-11.955 -26.652,-26.649 0,-9.359 5.01,-18.147 13.076,-22.936 2.462,-1.462 3.972,-4.113 3.972,-6.976 v -18.594 c 0,-4.482 -3.631,-8.113 -8.113,-8.113 h -56.481 v -48.368 h 6.174 c 8.046,10.617 20.763,17.048 34.216,17.048 23.641,0 42.876,-19.235 42.876,-42.878 0,-23.643 -19.234,-42.878 -42.876,-42.878 -13.451,0 -26.167,6.43 -34.215,17.049 h -6.176 V 99.492 h 102.312 c 4.482,0 8.113,-3.631 8.113,-8.113 0,-4.482 -3.631,-8.113 -8.113,-8.113 h -110.424 -56.481 v -6.174 c 10.617,-8.046 17.047,-20.762 17.047,-34.215 0,-23.642 -19.234,-42.877 -42.878,-42.877 -23.644,0 -42.877,19.235 -42.877,42.877 0,13.45 6.429,26.165 17.048,34.214 v 6.176 h -56.479 v 0 0 c -4.482,0 -8.113,3.631 -8.113,8.113 V 256 312.482 h -6.176 c -8.046,-10.617 -20.76,-17.048 -34.214,-17.048 -23.643,0 -42.878,19.235 -42.878,42.877 0,23.642 19.235,42.878 42.878,42.878 13.45,0 26.165,-6.43 34.214,-17.05 h 6.176 v 56.481 0 0 c 0,4.482 3.631,8.113 8.113,8.113 h 28.769 c 4.482,0 8.113,-3.631 8.113,-8.113 0,-4.482 -3.631,-8.113 -8.113,-8.113 h -20.657 v -56.481 c 0,-4.482 -3.631,-8.113 -8.113,-8.113 h -18.593 c -2.862,0 -5.515,1.509 -6.975,3.971 -4.791,8.067 -13.579,13.079 -22.934,13.079 -14.696,0 -26.652,-11.956 -26.652,-26.652 0,-14.696 11.956,-26.652 26.652,-26.652 9.358,0 18.145,5.01 22.932,13.076 1.461,2.462 4.113,3.972 6.976,3.972 h 18.593 c 4.482,0 8.113,-3.631 8.113,-8.113 v -56.481 h 56.482 c 4.482,0 8.113,-3.631 8.113,-8.113 v -18.593 c 0,-2.862 -1.509,-5.515 -3.971,-6.975 -8.067,-4.792 -13.079,-13.58 -13.079,-22.935 0,-14.696 11.956,-26.652 26.651,-26.652 14.696,0 26.652,11.956 26.652,26.652 0,9.356 -5.011,18.144 -13.077,22.935 -2.462,1.461 -3.971,4.113 -3.971,6.975 V 256 c 0,4.482 3.631,8.113 8.113,8.113 h 56.482 v 48.368 h -6.178 c -8.047,-10.618 -20.762,-17.049 -34.213,-17.049 -23.642,0 -42.878,19.235 -42.878,42.879 0,23.644 19.235,42.879 42.878,42.879 13.451,0 26.166,-6.431 34.214,-17.051 h 6.177 v 48.37 h -102.491 c -4.482,0 -8.113,3.631 -8.113,8.113 0,4.482 3.631,8.113 8.113,8.113 h 110.605 56.481 v 6.174 c -10.616,8.046 -17.046,20.762 -17.046,34.215 0,23.642 19.234,42.877 42.876,42.877 23.642,0 42.878,-19.234 42.878,-42.877 0,-13.45 -6.429,-26.165 -17.048,-34.214 v -6.176 h 56.479 c 4.482,0 8.113,-3.631 8.113,-8.113 v -55.044 -10.269 -99.309 -56.481 h 6.173 c 8.047,10.617 20.765,17.048 34.217,17.048 23.642,0 42.877,-19.235 42.877,-42.878 0,-23.643 -19.235,-42.878 -42.877,-42.878 z m -269.605,110.901 c 10.617,-8.047 17.048,-20.764 17.048,-34.214 0,-23.642 -19.235,-42.878 -42.878,-42.878 -23.643,0 -42.877,19.235 -42.877,42.878 0,13.45 6.43,26.166 17.05,34.215 v 6.174 h -48.369 V 99.492 h 56.48 c 4.482,0 8.113,-3.631 8.113,-8.113 V 72.788 c 0,-2.862 -1.509,-5.514 -3.97,-6.975 -8.066,-4.792 -13.078,-13.58 -13.078,-22.935 0,-14.696 11.955,-26.652 26.651,-26.652 14.695,0 26.651,11.956 26.651,26.651 0,9.358 -5.011,18.145 -13.076,22.934 -2.461,1.462 -3.971,4.114 -3.971,6.976 V 91.38 c 0,4.482 3.631,8.113 8.113,8.113 h 56.481 v 56.48 c 0,4.482 3.631,8.113 8.113,8.113 h 18.593 c 2.862,0 5.515,-1.509 6.975,-3.97 4.791,-8.067 13.58,-13.079 22.936,-13.079 14.695,0 26.65,11.956 26.65,26.652 0,14.696 -11.955,26.652 -26.65,26.652 -9.358,0 -18.146,-5.011 -22.935,-13.076 -1.462,-2.462 -4.113,-3.972 -6.976,-3.972 h -18.593 c -4.482,0 -8.113,3.631 -8.113,8.113 v 56.481 h -48.369 v -6.176 z m 156.51,170.797 c -4.482,0 -8.113,3.631 -8.113,8.113 v 18.593 c 0,2.862 1.509,5.514 3.97,6.975 8.066,4.792 13.078,13.58 13.078,22.935 0,14.695 -11.956,26.651 -26.652,26.651 -14.695,0 -26.65,-11.956 -26.65,-26.651 0,-9.358 5.009,-18.146 13.075,-22.934 2.461,-1.462 3.971,-4.114 3.971,-6.976 v -18.593 c 0,-4.482 -3.631,-8.113 -8.113,-8.113 h -56.481 v -56.483 c 0,-4.482 -3.631,-8.113 -8.113,-8.113 h -18.594 c -2.862,0 -5.515,1.51 -6.976,3.971 -4.79,8.069 -13.577,13.08 -22.932,13.08 -14.696,0 -26.652,-11.957 -26.652,-26.654 0,-14.696 11.956,-26.654 26.652,-26.654 9.355,0 18.143,5.012 22.934,13.078 1.461,2.462 4.113,3.971 6.975,3.971 h 18.594 c 4.482,0 8.113,-3.631 8.113,-8.113 v -56.48 h 48.368 v 6.177 c -10.617,8.046 -17.048,20.764 -17.048,34.217 0,23.641 19.235,42.875 42.878,42.875 23.641,0 42.876,-19.233 42.876,-42.875 0,-13.454 -6.43,-26.171 -17.048,-34.217 v -6.177 h 48.368 v 91.198 10.269 46.93 h -56.479 v 0 z"
       id="path1020"
       inkscape:connector-curvature="0" /><g
       aria-label="DODDLE60"
       transform="matrix(6.1836952,0,0,6.1836952,3973.9088,-67.50821)"
       style="font-style:normal;font-weight:normal;font-size:40px;line-height:1.25;font-family:sans-serif;letter-spacing:0px;word-spacing:0px;fill:#353130;fill-opacity:1;stroke:#353130;stroke-width:0.77830386;stroke-miterlimit:4;stroke-dasharray:none;stroke-opacity:1"
       id="flowRoot817"><path
         d="m -632.41391,67.316406 h -8.72 q -0.48,0 -0.8,-0.32 -0.32,-0.36 -0.32,-0.84 v -27.68 q 0,-0.48 0.32,-0.8 0.32,-0.36 0.8,-0.36 h 7.88 q 0.04,0 0.56,0.04 0.56,0.04 1.44,0.24 0.88,0.16 1.96,0.56 1.08,0.36 2.2,1.04 2.68,1.68 4.24,4.6 1.84,3.56 1.84,8.52 0,5.08 -1.72,8.52 -1.4,2.84 -3.92,4.56 -1.08,0.72 -2.08,1.12 -1,0.36 -1.84,0.56 -0.8,0.16 -1.32,0.2 -0.48,0.04 -0.52,0.04 z m -7.56,-2.28 h 7.56 q 0,0 0.4,-0.04 0.44,-0.04 1.08,-0.16 0.64,-0.16 1.44,-0.48 0.8,-0.32 1.64,-0.92 4.56,-3.24 4.56,-11.12 0,-7.92 -4.96,-11.08 -0.92,-0.6 -1.8,-0.92 -0.88,-0.36 -1.6,-0.48 -0.72,-0.16 -1.16,-0.2 -0.44,-0.04 -0.44,-0.04 h -6.72 z"
         style="font-style:normal;font-variant:normal;font-weight:normal;font-stretch:normal;font-family:oneday;-inkscape-font-specification:oneday;fill:#353130;fill-opacity:1;stroke:#353130;stroke-width:0.77830386;stroke-miterlimit:4;stroke-dasharray:none;stroke-opacity:1"
         id="path820" /><path
         d="m -606.89397,67.436406 q -5.76,0 -8.56,-3.52 -3.04,-3.64 -3.04,-11.6 0,-2.04 0.16,-3.72 0.2,-1.68 0.52,-3.12 0.68,-3.04 2.12,-4.76 1.48,-1.8 3.76,-2.72 2,-0.8 5.04,-0.8 1.48,0 2.76,0.24 1.28,0.2 2.32,0.72 2.2,0.88 3.76,2.88 2.68,3.68 2.68,11.28 0,3.64 -0.68,6.56 -0.36,1.4 -0.92,2.6 -0.56,1.2 -1.36,2.16 -2.88,3.8 -8.56,3.8 z m 0,-27.92 q -5,0 -7.04,2.64 -2.28,3 -2.28,10.16 0,3.64 0.6,6.12 0.64,2.48 1.84,4.04 2.12,2.64 6.88,2.64 4.6,0 6.84,-2.96 1.16,-1.6 1.76,-4.04 0.64,-2.48 0.64,-5.8 0,-6.76 -2.2,-9.84 -2.2,-2.96 -7.04,-2.96 z"
         style="font-style:normal;font-variant:normal;font-weight:normal;font-stretch:normal;font-family:oneday;-inkscape-font-specification:oneday;fill:#353130;fill-opacity:1;stroke:#353130;stroke-width:0.77830386;stroke-miterlimit:4;stroke-dasharray:none;stroke-opacity:1"
         id="path822" /><path
         d="m -582.21402,67.316406 h -8.72 q -0.48,0 -0.8,-0.32 -0.32,-0.36 -0.32,-0.84 v -27.68 q 0,-0.48 0.32,-0.8 0.32,-0.36 0.8,-0.36 h 7.88 q 0.04,0 0.56,0.04 0.56,0.04 1.44,0.24 0.88,0.16 1.96,0.56 1.08,0.36 2.2,1.04 2.68,1.68 4.24,4.6 1.84,3.56 1.84,8.52 0,5.08 -1.72,8.52 -1.4,2.84 -3.92,4.56 -1.08,0.72 -2.08,1.12 -1,0.36 -1.84,0.56 -0.8,0.16 -1.32,0.2 -0.48,0.04 -0.52,0.04 z m -7.56,-2.28 h 7.56 q 0,0 0.4,-0.04 0.44,-0.04 1.08,-0.16 0.64,-0.16 1.44,-0.48 0.8,-0.32 1.64,-0.92 4.56,-3.24 4.56,-11.12 0,-7.92 -4.96,-11.08 -0.92,-0.6 -1.8,-0.92 -0.88,-0.36 -1.6,-0.48 -0.72,-0.16 -1.16,-0.2 -0.44,-0.04 -0.44,-0.04 h -6.72 z"
         style="font-style:normal;font-variant:normal;font-weight:normal;font-stretch:normal;font-family:oneday;-inkscape-font-specification:oneday;fill:#353130;fill-opacity:1;stroke:#353130;stroke-width:0.77830386;stroke-miterlimit:4;stroke-dasharray:none;stroke-opacity:1"
         id="path824" /><path
         d="m -557.37408,67.316406 h -8.72 q -0.48,0 -0.8,-0.32 -0.32,-0.36 -0.32,-0.84 v -27.68 q 0,-0.48 0.32,-0.8 0.32,-0.36 0.8,-0.36 h 7.88 q 0.04,0 0.56,0.04 0.56,0.04 1.44,0.24 0.88,0.16 1.96,0.56 1.08,0.36 2.2,1.04 2.68,1.68 4.24,4.6 1.84,3.56 1.84,8.52 0,5.08 -1.72,8.52 -1.4,2.84 -3.92,4.56 -1.08,0.72 -2.08,1.12 -1,0.36 -1.84,0.56 -0.8,0.16 -1.32,0.2 -0.48,0.04 -0.52,0.04 z m -7.56,-2.28 h 7.56 q 0,0 0.4,-0.04 0.44,-0.04 1.08,-0.16 0.64,-0.16 1.44,-0.48 0.8,-0.32 1.64,-0.92 4.56,-3.24 4.56,-11.12 0,-7.92 -4.96,-11.08 -0.92,-0.6 -1.8,-0.92 -0.88,-0.36 -1.6,-0.48 -0.72,-0.16 -1.16,-0.2 -0.44,-0.04 -0.44,-0.04 h -6.72 z"
         style="font-style:normal;font-variant:normal;font-weight:normal;font-stretch:normal;font-family:oneday;-inkscape-font-specification:oneday;fill:#353130;fill-opacity:1;stroke:#353130;stroke-width:0.77830386;stroke-miterlimit:4;stroke-dasharray:none;stroke-opacity:1"
         id="path826" /><path
         d="m -527.01415,67.316406 h -15.2 q -0.48,0 -0.84,-0.32 -0.32,-0.36 -0.32,-0.84 0,-0.48 0.32,-0.8 0.36,-0.32 0.84,-0.32 h 15.2 q 0.44,0 0.8,0.32 0.36,0.32 0.36,0.8 0,0.48 -0.36,0.84 -0.36,0.32 -0.8,0.32 z m -15.2,-3.48 q -0.48,0 -0.84,-0.32 -0.32,-0.32 -0.32,-0.8 v -24.24 q 0,-0.48 0.32,-0.8 0.36,-0.36 0.84,-0.36 0.48,0 0.8,0.36 0.32,0.32 0.32,0.8 v 24.24 q 0,0.48 -0.32,0.8 -0.32,0.32 -0.8,0.32 z"
         style="font-style:normal;font-variant:normal;font-weight:normal;font-stretch:normal;font-family:oneday;-inkscape-font-specification:oneday;fill:#353130;fill-opacity:1;stroke:#353130;stroke-width:0.77830386;stroke-miterlimit:4;stroke-dasharray:none;stroke-opacity:1"
         id="path828" /><path
         d="m -521.05418,46.676406 q -0.48,0 -0.8,-0.32 -0.32,-0.36 -0.32,-0.84 v -7.08 q 0,-0.48 0.32,-0.8 0.32,-0.32 0.8,-0.32 h 16.72 q 0.48,0 0.8,0.32 0.32,0.32 0.32,0.8 0,0.48 -0.32,0.84 -0.32,0.32 -0.8,0.32 h -15.56 v 5.92 q 0,0.48 -0.36,0.84 -0.32,0.32 -0.8,0.32 z m 16.72,20.6 h -16.72 q -0.48,0 -0.8,-0.32 -0.32,-0.32 -0.32,-0.8 v -15.84 q 0,-0.48 0.32,-0.8 0.32,-0.36 0.8,-0.36 h 12.68 q 0.48,0 0.8,0.36 0.36,0.32 0.36,0.8 0,0.44 -0.36,0.8 -0.32,0.32 -0.8,0.32 h -11.52 v 13.56 h 15.56 q 0.48,0 0.8,0.36 0.32,0.32 0.32,0.8 0,0.48 -0.32,0.8 -0.32,0.32 -0.8,0.32 z"
         style="font-style:normal;font-variant:normal;font-weight:normal;font-stretch:normal;font-family:oneday;-inkscape-font-specification:oneday;fill:#353130;fill-opacity:1;stroke:#353130;stroke-width:0.77830386;stroke-miterlimit:4;stroke-dasharray:none;stroke-opacity:1"
         id="path830" /><path
         d="m -487.57425,49.996406 q 0.72,0.4 1.48,1.08 0.76,0.64 1.36,1.64 0.6,0.96 1,2.32 0.4,1.32 0.4,3.12 0,3.04 -1.24,5.28 -0.52,0.92 -1.24,1.64 -0.72,0.72 -1.68,1.2 -2.04,1.16 -4.84,1.16 -2.84,0 -4.92,-1.2 -1.92,-1.04 -2.92,-2.84 -1.2,-2.08 -1.2,-5.24 0,-0.28 0.04,-0.4 0,-0.08 -0.04,-0.12 0,-0.08 0,-0.16 v -2.88 -5.4 -2.68 q 0,-0.36 0,-0.92 0.04,-0.56 0.12,-1.28 0.12,-0.72 0.32,-1.48 0.2,-0.8 0.6,-1.6 0.96,-1.76 2.68,-2.8 2,-1.12 4.96,-1.12 4.56,0 7,2.36 0.56,0.56 0.96,1.28 0.44,0.68 0.72,1.48 0.48,1.52 0.48,3.24 0,0.48 -0.32,0.84 -0.32,0.32 -0.8,0.32 -0.48,0 -0.84,-0.32 -0.32,-0.36 -0.32,-0.84 0,-2.76 -1.52,-4.36 -1.72,-1.72 -5.36,-1.72 -4.16,0 -5.64,2.76 -0.56,1.16 -0.68,2.36 -0.08,1.16 -0.08,1.8 v 2.68 8.28 q 0,0.12 -0.08,0.36 0.08,0.16 0.08,0.32 0,2.28 0.68,3.68 0.72,1.36 1.76,2.12 1.04,0.72 2.2,0.96 1.16,0.24 2.12,0.24 0.92,0 2.08,-0.24 1.2,-0.24 2.2,-0.96 1.04,-0.76 1.72,-2.12 0.72,-1.4 0.72,-3.68 0,-4.4 -3.08,-6.08 -0.8,-0.44 -1.72,-0.64 -0.92,-0.24 -1.92,-0.24 -0.48,0 -1.44,0.12 -0.92,0.12 -2.28,0.92 -0.44,0.24 -0.92,0.12 -0.44,-0.12 -0.68,-0.56 -0.24,-0.44 -0.12,-0.88 0.12,-0.48 0.56,-0.72 1.76,-1 3.04,-1.16 1.28,-0.2 1.84,-0.2 1.28,0 2.48,0.32 1.24,0.28 2.28,0.84 z"
         style="font-style:normal;font-variant:normal;font-weight:normal;font-stretch:normal;font-family:oneday;-inkscape-font-specification:oneday;fill:#353130;fill-opacity:1;stroke:#353130;stroke-width:0.77830386;stroke-miterlimit:4;stroke-dasharray:none;stroke-opacity:1"
         id="path832" /><path
         d="m -470.97427,67.516406 q -3.44,0 -5.72,-1.8 -0.96,-0.72 -1.68,-1.76 -0.72,-1.08 -1.28,-2.44 -0.44,-1.16 -0.68,-2.4 -0.2,-1.24 -0.32,-2.44 -0.08,-1.2 -0.08,-2.32 -0.04,-1.12 -0.04,-2.04 0,-0.84 0.04,-1.92 0,-1.12 0.08,-2.32 0.12,-1.24 0.36,-2.48 0.24,-1.28 0.68,-2.48 0.56,-1.36 1.28,-2.4 0.72,-1.08 1.68,-1.8 1.16,-0.88 2.52,-1.32 1.4,-0.48 3.16,-0.48 3.32,0 5.64,1.84 0.92,0.72 1.64,1.8 0.72,1.08 1.24,2.4 0.4,1.2 0.64,2.44 0.24,1.24 0.32,2.44 0.12,1.2 0.12,2.32 0.04,1.08 0.04,1.96 v 0.12 q 0,0.92 -0.04,2.04 0,1.08 -0.12,2.28 -0.08,1.2 -0.32,2.44 -0.24,1.2 -0.64,2.36 -1.04,2.72 -2.88,4.16 -2.28,1.8 -5.64,1.8 z m 0,-28.04 q -2.44,0 -4.04,1.08 -1.6,1.08 -2.44,3.36 -0.36,1.04 -0.6,2.2 -0.2,1.16 -0.28,2.28 -0.08,1.12 -0.12,2.16 0,1 0,1.76 0,0.84 0,1.88 0.04,1.04 0.12,2.16 0.08,1.12 0.28,2.24 0.24,1.12 0.6,2.12 0.84,2.32 2.4,3.4 1.56,1.08 4.08,1.08 2.4,0 3.96,-1.08 1.6,-1.08 2.4,-3.36 0.36,-1 0.56,-2.12 0.24,-1.12 0.32,-2.2 0.08,-1.12 0.08,-2.12 0.04,-1.04 0.04,-1.88 v -0.12 q 0,-0.84 -0.04,-1.84 0,-1.04 -0.08,-2.12 -0.08,-1.12 -0.32,-2.24 -0.2,-1.12 -0.56,-2.16 -1.6,-4.48 -6.36,-4.48 z m -4.04,11.76 h 7.96 q 0.44,0 0.8,0.36 0.36,0.32 0.36,0.76 0,0.48 -0.36,0.84 -0.36,0.32 -0.8,0.32 h -7.96 q -0.48,0 -0.84,-0.32 -0.32,-0.36 -0.32,-0.84 0,-0.44 0.32,-0.76 0.36,-0.36 0.84,-0.36 z"
         style="font-style:normal;font-variant:normal;font-weight:normal;font-stretch:normal;font-family:oneday;-inkscape-font-specification:oneday;fill:#353130;fill-opacity:1;stroke:#353130;stroke-width:0.77830386;stroke-miterlimit:4;stroke-dasharray:none;stroke-opacity:1"
         id="path834" /></g></g><path
     style="opacity:1;vector-effect:none;fill:none;fill-opacity:1;stroke:#202121;stroke-width:30.23622131;stroke-linecap:round;stroke-linejoin:round;stroke-miterlimit:4;stroke-dasharray:none;stroke-dashoffset:0;stroke-opacity:1;paint-order:normal"
     d="m 127.6077,15.118111 h 1622.0081 c 62.3193,0 112.4896,50.170358 112.4896,112.489589 v 375.70557 c 0,62.31924 -50.1703,112.48959 -112.4896,112.48959 H 127.6077 c -62.319231,0 -112.489589,-50.17035 -112.489589,-112.48959 V 127.6077 c 0,-62.319231 50.170358,-112.489589 112.489589,-112.489589 z"
     id="rect844" /></g><g
   transform="matrix(1.3333333,0,0,-1.3333333,-1625.1488,2561.8999)"
   inkscape:label="shark"
   id="g10" /></svg>