<?xml version="1.0" encoding="UTF-8" standalone="no"?>
<!-- Created with Inkscape (http://www.inkscape.org/) -->

<svg
   version="1.1"
   id="svg2"
   xml:space="preserve"
   width="167.73462"
   height="294.43564"
   viewBox="0 0 167.73462 294.43565"
   sodipodi:docname="acheron_logo.svg"
   inkscape:version="1.1 (c4e8f9ed74, 2021-05-24)"
   inkscape:export-filename="/home/alvaro/Desktop/SharkPCB/sharkLogo/shark.png"
   inkscape:export-xdpi="1000"
   inkscape:export-ydpi="1000"
   xmlns:inkscape="http://www.inkscape.org/namespaces/inkscape"
   xmlns:sodipodi="http://sodipodi.sourceforge.net/DTD/sodipodi-0.dtd"
   xmlns="http://www.w3.org/2000/svg"
   xmlns:svg="http://www.w3.org/2000/svg"
   xmlns:rdf="http://www.w3.org/1999/02/22-rdf-syntax-ns#"
   xmlns:cc="http://creativecommons.org/ns#"
   xmlns:dc="http://purl.org/dc/elements/1.1/"><metadata
     id="metadata8"><rdf:RDF><cc:Work
         rdf:about=""><dc:format>image/svg+xml</dc:format><dc:type
           rdf:resource="http://purl.org/dc/dcmitype/StillImage" /></cc:Work></rdf:RDF></metadata><defs
     id="defs6" /><sodipodi:namedview
     pagecolor="#ffffff"
     bordercolor="#666666"
     borderopacity="1"
     objecttolerance="10"
     gridtolerance="10"
     guidetolerance="10"
     inkscape:pageopacity="0"
     inkscape:pageshadow="2"
     inkscape:window-width="1305"
     inkscape:window-height="1003"
     id="namedview4"
     showgrid="false"
     inkscape:zoom="0.21024132"
     inkscape:cx="623.0935"
     inkscape:cy="806.2164"
     inkscape:window-x="2625"
     inkscape:window-y="557"
     inkscape:window-maximized="0"
     inkscape:current-layer="flowRoot956"
     fit-margin-top="0"
     fit-margin-left="0"
     fit-margin-right="0"
     fit-margin-bottom="0"
     inkscape:snap-object-midpoints="true"
     inkscape:snap-center="true"
     inkscape:pagecheckerboard="0" /><g
     id="g10"
     inkscape:groupmode="layer"
     inkscape:label="shark"
     transform="matrix(1.3333333,0,0,-1.3333333,-1982.7719,1028.9182)"><g
       id="g894"
       transform="matrix(0.56458802,0,0,0.56458802,-1521.8986,-116.47364)" /><g
       aria-label="acheron"
       transform="matrix(6.0843608,0,0,-6.0843608,6936.7487,2173.6368)"
       style="font-style:normal;font-weight:normal;font-size:40px;line-height:1.25;font-family:sans-serif;letter-spacing:0px;word-spacing:0px;fill:#353130;fill-opacity:1;stroke:none"
       id="flowRoot956"><path
         sodipodi:nodetypes="cccccsscccccccssccccccscscscsc"
         inkscape:connector-curvature="0"
         id="path831"
         d="m -883.4133,254.66653 c -0.16402,-0.69556 -1.19238,-5.23464 -0.35231,-5.81625 0,0 3.12024,-1.0207 6.34562,-3.19824 l 0.0198,3.37333 -5.07533,3.2968 c 0.47757,3.2447 -0.32737,14.39795 -0.31659,14.39029 6.42277,-4.57098 7.14011,-9.68055 7.13683,-9.69039 -0.80799,-2.42755 -1.35333,-5.72813 0.64636,-6.65973 0.006,-0.77728 -0.12044,-0.94071 -0.59369,-1.51206 1.19086,-8.74987 -1.55912,-14.15292 -8.31846,-16.95628 -1.23495,-0.85277 -1.4257,-1.47569 -1.4257,-1.47569 0,0 -0.19076,0.62292 -1.42572,1.47569 -6.75934,2.80336 -9.5093,8.20641 -8.31845,16.95628 -0.47324,0.57135 -0.59965,0.73478 -0.5937,1.51206 1.9997,0.9316 1.45436,4.23218 0.64637,6.65973 -0.003,0.01 0.71406,5.11941 7.13683,9.69039 0.0107,0.008 -0.79417,-11.14559 -0.31659,-14.39029 l -2.40462,-1.55853 -1.0125,3.96681 0.0651,-4.5573 -1.72335,-1.14778 0.0198,-3.37333 c 0.86237,0.58221 1.49195,0.9513 2.28164,1.37072 0.095,0.0504 1.13799,-3.73271 1.13799,-3.73271 0,0 -0.37982,4.1354 -0.31729,4.16717 1.93125,0.98241 3.24335,1.39306 3.24335,1.39306 0.84008,0.58161 -0.18829,5.12069 -0.35231,5.81625 -0.0143,0.0604 1.93347,2.08056 1.93347,2.08056 0,0 1.94768,-2.02019 1.93345,-2.08056 z"
         style="fill:#ffffff;fill-opacity:1;stroke:none;stroke-width:0.0946882;stroke-linecap:butt;stroke-linejoin:miter;stroke-miterlimit:4;stroke-dasharray:none;stroke-opacity:1" /></g></g></svg>
