<?xml version="1.0" encoding="UTF-8" standalone="no"?>
<!-- Created with Inkscape (http://www.inkscape.org/) -->

<svg
   xmlns:dc="http://purl.org/dc/elements/1.1/"
   xmlns:cc="http://creativecommons.org/ns#"
   xmlns:rdf="http://www.w3.org/1999/02/22-rdf-syntax-ns#"
   xmlns:svg="http://www.w3.org/2000/svg"
   xmlns="http://www.w3.org/2000/svg"
   xmlns:sodipodi="http://sodipodi.sourceforge.net/DTD/sodipodi-0.dtd"
   xmlns:inkscape="http://www.inkscape.org/namespaces/inkscape"
   width="240.2421mm"
   height="64.724785mm"
   viewBox="0 0 240.24209 64.724785"
   version="1.1"
   id="svg8"
   inkscape:version="0.92.4 5da689c313, 2019-01-14"
   sodipodi:docname="ouroboros.svg">
  <defs
     id="defs2">
    <marker
       inkscape:stockid="Arrow2Mend"
       orient="auto"
       refY="0"
       refX="0"
       id="marker988"
       style="overflow:visible"
       inkscape:isstock="true">
      <path
         id="path986"
         style="fill:#353130;fill-opacity:1;fill-rule:evenodd;stroke:#353130;stroke-width:0.625;stroke-linejoin:round;stroke-opacity:1"
         d="M 8.7185878,4.0337352 -2.2072895,0.01601326 8.7185884,-4.0017078 c -1.7454984,2.3720609 -1.7354408,5.6174519 -6e-7,8.035443 z"
         transform="scale(-0.6)"
         inkscape:connector-curvature="0" />
    </marker>
    <marker
       inkscape:stockid="Arrow2Mend"
       orient="auto"
       refY="0"
       refX="0"
       id="marker1561"
       style="overflow:visible"
       inkscape:isstock="true">
      <path
         id="path1559"
         style="fill:#000000;fill-opacity:1;fill-rule:evenodd;stroke:#000000;stroke-width:0.625;stroke-linejoin:round;stroke-opacity:1"
         d="M 8.7185878,4.0337352 -2.2072895,0.01601326 8.7185884,-4.0017078 c -1.7454984,2.3720609 -1.7354408,5.6174519 -6e-7,8.035443 z"
         transform="scale(-0.6)"
         inkscape:connector-curvature="0" />
    </marker>
    <marker
       inkscape:stockid="Arrow1Mend"
       orient="auto"
       refY="0"
       refX="0"
       id="Arrow1Mend"
       style="overflow:visible"
       inkscape:isstock="true">
      <path
         id="path826"
         d="M 0,0 5,-5 -12.5,0 5,5 Z"
         style="fill:#ffffff;fill-opacity:1;fill-rule:evenodd;stroke:#000000;stroke-width:1.00000003pt;stroke-opacity:1"
         transform="matrix(-0.4,0,0,-0.4,-4,0)"
         inkscape:connector-curvature="0" />
    </marker>
    <marker
       inkscape:stockid="Arrow2Mend"
       orient="auto"
       refY="0"
       refX="0"
       id="Arrow2Mend"
       style="overflow:visible"
       inkscape:isstock="true">
      <path
         id="path844"
         style="fill:#ffffff;fill-opacity:1;fill-rule:evenodd;stroke:#000000;stroke-width:0.625;stroke-linejoin:round;stroke-opacity:1"
         d="M 8.7185878,4.0337352 -2.2072895,0.01601326 8.7185884,-4.0017078 c -1.7454984,2.3720609 -1.7354408,5.6174519 -6e-7,8.035443 z"
         transform="scale(-0.6)"
         inkscape:connector-curvature="0" />
    </marker>
    <marker
       inkscape:stockid="Arrow2Lend"
       orient="auto"
       refY="0"
       refX="0"
       id="Arrow2Lend"
       style="overflow:visible"
       inkscape:isstock="true">
      <path
         id="path838"
         style="fill:#ffffff;fill-opacity:1;fill-rule:evenodd;stroke:#000000;stroke-width:0.625;stroke-linejoin:round;stroke-opacity:1"
         d="M 8.7185878,4.0337352 -2.2072895,0.01601326 8.7185884,-4.0017078 c -1.7454984,2.3720609 -1.7354408,5.6174519 -6e-7,8.035443 z"
         transform="matrix(-1.1,0,0,-1.1,-1.1,0)"
         inkscape:connector-curvature="0" />
    </marker>
  </defs>
  <sodipodi:namedview
     id="base"
     pagecolor="#ffffff"
     bordercolor="#666666"
     borderopacity="1.0"
     inkscape:pageopacity="0.0"
     inkscape:pageshadow="2"
     inkscape:zoom="0.70000001"
     inkscape:cx="697.08071"
     inkscape:cy="49.53155"
     inkscape:document-units="mm"
     inkscape:current-layer="layer1"
     showgrid="false"
     inkscape:snap-global="false"
     fit-margin-top="0"
     fit-margin-left="0"
     fit-margin-right="0"
     fit-margin-bottom="0"
     inkscape:window-width="1920"
     inkscape:window-height="1052"
     inkscape:window-x="1920"
     inkscape:window-y="200"
     inkscape:window-maximized="1" />
  <metadata
     id="metadata5">
    <rdf:RDF>
      <cc:Work
         rdf:about="">
        <dc:format>image/svg+xml</dc:format>
        <dc:type
           rdf:resource="http://purl.org/dc/dcmitype/StillImage" />
        <dc:title></dc:title>
      </cc:Work>
    </rdf:RDF>
  </metadata>
  <g
     inkscape:label="Layer 1"
     inkscape:groupmode="layer"
     id="layer1"
     transform="translate(-45.182843,72.48139)">
    <g
       inkscape:export-ydpi="10000"
       inkscape:export-xdpi="10000"
       transform="matrix(0.96096838,0,0,0.96096838,-7.1406424,-39.01193)"
       id="g984">
      <path
         inkscape:export-ydpi="1000"
         inkscape:export-xdpi="1000"
         inkscape:connector-curvature="0"
         id="path954"
         d="M 256.09863,-31.588611 A 31.613309,31.613309 0 0 1 290.54458,-6.5784544 31.613309,31.613309 0 0 1 268.86253,30.053777 31.613309,31.613309 0 0 1 230.36457,11.889541 31.613309,31.613309 0 0 1 244.85204,-28.137264"
         style="fill:none;fill-opacity:1;stroke:#353130;stroke-width:2.15146923;stroke-linecap:round;stroke-linejoin:round;stroke-miterlimit:4;stroke-dasharray:none;stroke-dashoffset:0;stroke-opacity:1;paint-order:normal" />
      <path
         inkscape:export-ydpi="1000"
         inkscape:export-xdpi="1000"
         id="path956"
         d="m 215.07766,-11.979009 h 32.95622 V 3.3793131 h -32.95622 z"
         style="fill:#ffffff;fill-opacity:1;stroke:none;stroke-width:1.11127782;stroke-linecap:round;stroke-linejoin:round;stroke-miterlimit:4;stroke-dasharray:none;stroke-dashoffset:0;stroke-opacity:1;paint-order:normal"
         inkscape:connector-curvature="0" />
      <path
         inkscape:export-ydpi="1000"
         inkscape:export-xdpi="1000"
         sodipodi:nodetypes="cc"
         inkscape:connector-curvature="0"
         id="path958"
         d="m 243.0268,-27.142805 8.58805,-5.307564"
         style="fill:#353130;fill-opacity:1;stroke:#353130;stroke-width:2.66675806px;stroke-linecap:butt;stroke-linejoin:miter;stroke-opacity:1;marker-end:url(#marker988)" />
      <path
         inkscape:connector-curvature="0"
         style="fill:#ffffff;fill-opacity:1;stroke:none;stroke-width:1.45689666;stroke-linecap:round;stroke-linejoin:round;stroke-miterlimit:4;stroke-dasharray:none;stroke-dashoffset:0;stroke-opacity:1;paint-order:normal"
         d="m 260.02835,-12.146053 h 35.931 v 24.211626 h -35.931 z"
         id="path960"
         inkscape:export-xdpi="1000"
         inkscape:export-ydpi="1000" />
      <g
         aria-label="ourobor"
         transform="matrix(0.69429319,0,0,0.69429319,-239.812,-320.20745)"
         style="font-style:normal;font-weight:normal;font-size:40px;line-height:1.25;font-family:sans-serif;letter-spacing:0px;word-spacing:0px;fill:#353130;fill-opacity:1;stroke:none"
         id="g978"
         inkscape:export-xdpi="1000"
         inkscape:export-ydpi="1000">
        <path
           d="m 423.82773,475.06211 z m 8.84,0 q -2.4,0 -4.08,-0.48 -1.68,-0.52 -2.76,-1.4 -1.04,-0.92 -1.52,-2.16 -0.48,-1.24 -0.48,-2.76 v -14.56 q 0,-1.52 0.48,-2.76 0.48,-1.24 1.52,-2.12 1.08,-0.92 2.76,-1.4 1.68,-0.52 4.08,-0.52 h 18.6 q 2.4,0 4.08,0.52 1.68,0.48 2.72,1.4 1.08,0.88 1.56,2.12 0.48,1.24 0.48,2.76 v 14.56 q 0,1.52 -0.48,2.76 -0.48,1.24 -1.56,2.16 -1.04,0.88 -2.72,1.4 -1.68,0.48 -4.08,0.48 z m 22.12,-21.4 q 0,-2.6 -3.52,-2.6 h -18.6 q -3.52,0 -3.52,2.6 v 14.64 q 0,2.6 3.52,2.6 h 18.6 q 3.52,0 3.52,-2.6 z"
           style="font-style:normal;font-variant:normal;font-weight:normal;font-stretch:normal;font-family:pirulen;-inkscape-font-specification:pirulen;fill:#353130;fill-opacity:1"
           id="path962"
           inkscape:connector-curvature="0" />
        <path
           d="m 465.00148,475.06211 z m 8.84,0 q -2.4,0 -4.08,-0.48 -1.68,-0.52 -2.76,-1.4 -1.04,-0.92 -1.52,-2.16 -0.48,-1.24 -0.48,-2.76 v -21.36 h 5.32 v 21.4 q 0,2.6 3.52,2.6 h 17.48 q 3.52,0 3.52,-2.6 v -21.4 h 5.32 v 21.36 q 0,1.52 -0.32,2.76 -0.28,1.24 -1.16,2.16 -0.84,0.88 -2.36,1.4 -1.48,0.48 -3.88,0.48 z"
           style="font-style:normal;font-variant:normal;font-weight:normal;font-stretch:normal;font-family:pirulen;-inkscape-font-specification:pirulen;fill:#353130;fill-opacity:1"
           id="path964"
           inkscape:connector-curvature="0" />
        <path
           d="m 505.27773,475.06211 z m 26.76,0 -6.6,-12.56 h -14.84 v 12.56 h -5.32 v -28.16 h 23.92 q 2.4,0 4.08,0.52 1.68,0.48 2.72,1.4 1.08,0.88 1.56,2.12 0.48,1.24 0.48,2.76 v 2 q 0,2.72 -1.6,4.56 -1.6,1.8 -5.36,2.16 l 6.64,12.64 z m 0.68,-21.4 q 0,-2.6 -3.52,-2.6 h -18.6 v 7.28 h 18.6 q 3.52,0 3.52,-2.6 z"
           style="font-style:normal;font-variant:normal;font-weight:normal;font-stretch:normal;font-family:pirulen;-inkscape-font-specification:pirulen;fill:#353130;fill-opacity:1"
           id="path966"
           inkscape:connector-curvature="0" />
        <path
           d="m 542.10898,475.06211 z m 8.84,0 q -2.4,0 -4.08,-0.48 -1.68,-0.52 -2.76,-1.4 -1.04,-0.92 -1.52,-2.16 -0.48,-1.24 -0.48,-2.76 v -14.56 q 0,-1.52 0.48,-2.76 0.48,-1.24 1.52,-2.12 1.08,-0.92 2.76,-1.4 1.68,-0.52 4.08,-0.52 h 18.6 q 2.4,0 4.08,0.52 1.68,0.48 2.72,1.4 1.08,0.88 1.56,2.12 0.48,1.24 0.48,2.76 v 14.56 q 0,1.52 -0.48,2.76 -0.48,1.24 -1.56,2.16 -1.04,0.88 -2.72,1.4 -1.68,0.48 -4.08,0.48 z m 22.12,-21.4 q 0,-2.6 -3.52,-2.6 h -18.6 q -3.52,0 -3.52,2.6 v 14.64 q 0,2.6 3.52,2.6 h 18.6 q 3.52,0 3.52,-2.6 z"
           style="font-style:normal;font-variant:normal;font-weight:normal;font-stretch:normal;font-family:pirulen;-inkscape-font-specification:pirulen;fill:#353130;fill-opacity:1"
           id="path968"
           inkscape:connector-curvature="0" />
        <path
           d="m 583.40273,475.06211 z m 0,0 v -28.16 h 22.92 q 2.32,0 3.96,0.44 1.68,0.4 2.68,1.2 1.04,0.76 1.52,1.92 0.48,1.12 0.48,2.52 v 2.6 q 0,1.84 -0.92,3.12 -0.88,1.24 -2.4,1.56 1.6,0.44 2.64,1.52 1.04,1.04 1.04,3.08 v 4.12 q 0,1.2 -0.44,2.32 -0.4,1.08 -1.44,1.92 -1,0.84 -2.72,1.36 -1.72,0.48 -4.32,0.48 z m 26.6,-10.12 q 0,-1.32 -1,-1.84 -1,-0.56 -2.6,-0.56 h -17.68 v 8.36 h 17.68 q 1.6,0 2.6,-0.6 1,-0.6 1,-2.32 z m -0.36,-11.68 q 0,-1.16 -0.72,-1.68 -0.72,-0.52 -2.6,-0.52 h -17.6 v 7.32 h 17.6 q 1.88,0 2.6,-0.52 0.72,-0.52 0.72,-1.68 z"
           style="font-style:normal;font-variant:normal;font-weight:normal;font-stretch:normal;font-family:pirulen;-inkscape-font-specification:pirulen;fill:#353130;fill-opacity:1"
           id="path970"
           inkscape:connector-curvature="0" />
        <path
           d="m 620.15586,475.06211 z m 8.84,0 q -2.4,0 -4.08,-0.48 -1.68,-0.52 -2.76,-1.4 -1.04,-0.92 -1.52,-2.16 -0.48,-1.24 -0.48,-2.76 v -14.56 q 0,-1.52 0.48,-2.76 0.48,-1.24 1.52,-2.12 1.08,-0.92 2.76,-1.4 1.68,-0.52 4.08,-0.52 h 18.6 q 2.4,0 4.08,0.52 1.68,0.48 2.72,1.4 1.08,0.88 1.56,2.12 0.48,1.24 0.48,2.76 v 14.56 q 0,1.52 -0.48,2.76 -0.48,1.24 -1.56,2.16 -1.04,0.88 -2.72,1.4 -1.68,0.48 -4.08,0.48 z m 22.12,-21.4 q 0,-2.6 -3.52,-2.6 h -18.6 q -3.52,0 -3.52,2.6 v 14.64 q 0,2.6 3.52,2.6 h 18.6 q 3.52,0 3.52,-2.6 z"
           style="font-style:normal;font-variant:normal;font-weight:normal;font-stretch:normal;font-family:pirulen;-inkscape-font-specification:pirulen;fill:#353130;fill-opacity:1"
           id="path973"
           inkscape:connector-curvature="0" />
        <path
           d="m 661.44961,475.06211 z m 26.76,0 -6.6,-12.56 h -14.84 v 12.56 h -5.32 v -28.16 h 23.92 q 2.4,0 4.08,0.52 1.68,0.48 2.72,1.4 1.08,0.88 1.56,2.12 0.48,1.24 0.48,2.76 v 2 q 0,2.72 -1.6,4.56 -1.6,1.8 -5.36,2.16 l 6.64,12.64 z m 0.68,-21.4 q 0,-2.6 -3.52,-2.6 h -18.6 v 7.28 h 18.6 q 3.52,0 3.52,-2.6 z"
           style="font-style:normal;font-variant:normal;font-weight:normal;font-stretch:normal;font-family:pirulen;-inkscape-font-specification:pirulen;fill:#353130;fill-opacity:1"
           id="path976"
           inkscape:connector-curvature="0" />
      </g>
      <g
         aria-label="s"
         transform="matrix(0.69429319,0,0,0.69429319,-13.334651,-320.20745)"
         style="font-style:normal;font-weight:normal;font-size:40px;line-height:1.25;font-family:sans-serif;letter-spacing:0px;word-spacing:0px;fill:#353130;fill-opacity:1;stroke:none"
         id="g982"
         inkscape:export-xdpi="1000"
         inkscape:export-ydpi="1000">
        <path
           d="m 423.46773,475.06211 z m 0.92,0 v -4.16 h 24.48 q 3.52,0 3.52,-2.6 v -3.56 q 0,-2.6 -3.52,-2.6 h -16.56 q -2.4,0 -4.08,-0.48 -1.68,-0.52 -2.76,-1.4 -1.04,-0.92 -1.52,-2.16 -0.48,-1.24 -0.48,-2.76 v -1.64 q 0,-1.52 0.48,-2.76 0.48,-1.24 1.52,-2.12 1.08,-0.92 2.76,-1.4 1.68,-0.52 4.08,-0.52 h 23.84 v 4.16 h -23.84 q -3.52,0 -3.52,2.6 v 1.72 q 0,2.6 3.52,2.6 h 16.56 q 2.4,0 4.08,0.52 1.68,0.48 2.72,1.4 1.08,0.88 1.56,2.12 0.48,1.24 0.48,2.76 v 3.48 q 0,1.52 -0.48,2.76 -0.48,1.24 -1.56,2.16 -1.04,0.88 -2.72,1.4 -1.68,0.48 -4.08,0.48 z"
           style="font-style:normal;font-variant:normal;font-weight:normal;font-stretch:normal;font-family:pirulen;-inkscape-font-specification:pirulen;fill:#353130;fill-opacity:1"
           id="path980"
           inkscape:connector-curvature="0" />
      </g>
    </g>
  </g>
</svg>
